<?xml version="1.0" standalone="no"?>
<!DOCTYPE svg PUBLIC "-//W3C//DTD SVG 1.1//EN" "http://www.w3.org/Graphics/SVG/1.1/DTD/svg11.dtd" >
<svg xmlns="http://www.w3.org/2000/svg" xmlns:xlink="http://www.w3.org/1999/xlink" version="1.1">
<metadata>
Created by FontForge 20200427 at Fri Oct  1 01:23:18 2021
 By www
Copyright (c) 2021 ParaType Ltd. All rights reserved.
</metadata>
<defs>
<font id="TildaSans-Regular" horiz-adv-x="0" >
  <font-face 
    font-family="Tilda Sans"
    font-weight="400"
    font-stretch="normal"
    units-per-em="1000"
    panose-1="2 11 4 2 2 2 4 2 3 3"
    ascent="800"
    descent="-200"
    x-height="440"
    cap-height="700"
    bbox="-457 -250 1118 899"
    underline-thickness="50"
    underline-position="-150"
    unicode-range="U+000D-FEFF"
  />
<missing-glyph horiz-adv-x="618" 
d="M75 199l2 297q1 94 20 141t68 65.5t145 18.5q97 0 145.5 -19t68 -67t19.5 -144v-292q0 -90 -19.5 -135t-68 -62.5t-145.5 -17.5q-98 0 -147.5 17.5t-69 62.5t-18.5 135zM448 504q0 38 -19 70t-51 51t-69 19q-38 0 -70 -19t-50.5 -51t-18.5 -70t18.5 -70.5t50.5 -51
t70 -18.5t70 18.5t50.5 50.5t18.5 71zM195 504q0 48 33 80.5t81 32.5t81 -33t33 -80q0 -49 -32.5 -81t-81.5 -32t-81.5 32.5t-32.5 80.5zM265 535q0 21 15 21q6 0 14 -3.5t12 -5.5q20 -12 32 -12q35 0 32 46h-21q0 -22 -14 -22q-6 0 -14 4t-11 5q-20 11 -32 11
q-16 0 -25.5 -11t-8.5 -33h21zM295 428h27v99q-18 6 -27 11v-110zM196 97h42v59h20q30 0 50 15.5t20 48.5q0 36 -21.5 48.5t-56.5 12.5q-30 0 -54 -4v-180zM410 114v15q-12 -6 -24 -6q-4 0 -7.5 3.5t-3.5 8.5q0 6 2 16l16 59h30q3 4 5.5 14t1.5 14h-31l8 27l-5 4
q-8 0 -17.5 -3t-15.5 -9l-5 -19q-15 -8 -26 -17v-11h19l-19 -68q-4 -16 -4 -24q0 -11 7.5 -17.5t17.5 -6.5q28 0 51 20zM238 193v51q10 2 14 2q33 0 33 -25q0 -17 -9.5 -23.5t-24.5 -5.5z" />
    <glyph glyph-name="f_f" unicode="ff" horiz-adv-x="568" 
d="M445 534v-94h99v-65h-99v-375h-72v375h-211v-375h-72v375h-75v65h75v81q0 91 41.5 140t127.5 49q113 0 151 -73q40 68 119 68q16 0 31 -3v-68q-7 1 -18 1q-48 0 -72.5 -22t-24.5 -79zM162 440h211v61q0 79 -23.5 111.5t-86.5 32.5q-57 0 -79 -32.5t-22 -111.5v-61z" />
    <glyph glyph-name="fi" unicode="fi" horiz-adv-x="520" 
d="M162 481v-41h109v-65h-109v-375h-72v375h-75v65h75v61q0 101 42.5 155t135.5 54q94 0 135.5 -52t41.5 -136h-72q0 63 -24 93t-81 30q-60 0 -83 -37t-23 -127zM445 0h-72v440h72v-440z" />
    <glyph glyph-name="fl" unicode="fl" horiz-adv-x="520" 
d="M445 501v-501h-72v481q0 90 -22.5 127t-82.5 37t-83 -37t-23 -127v-41h109v-65h-109v-375h-72v375h-75v65h75v61q0 101 42.5 155t135.5 54t135 -54t42 -155z" />
    <glyph glyph-name="f_f_i" unicode="ffi" horiz-adv-x="803" 
d="M445 481v-41h109v-65h-109v-375h-72v375h-211v-375h-72v375h-75v65h75v61q0 189 167 189q105 0 141 -76q28 106 153 106q94 0 135.5 -54.5t41.5 -143.5h-72q0 68 -24 100.5t-81 32.5q-41 0 -64 -17.5t-32.5 -55t-9.5 -101.5zM162 440h211v21q-5 89 -30.5 126.5
t-86.5 37.5q-37 0 -57.5 -14.5t-28.5 -45t-8 -84.5v-41zM728 0h-72v440h72v-440z" />
    <glyph glyph-name="f_f_l" unicode="ffl" horiz-adv-x="803" 
d="M728 532v-532h-72v522q0 68 -24 100.5t-81 32.5q-41 0 -64 -17.5t-32.5 -55t-9.5 -101.5v-41h109v-65h-109v-375h-72v375h-211v-375h-72v375h-75v65h75v61q0 189 167 189q52 0 85.5 -17.5t52.5 -51.5q35 99 156 99q94 0 135.5 -52t41.5 -136zM162 440h211v38
q0 76 -28 111.5t-89 35.5q-37 0 -57.5 -14.5t-28.5 -45t-8 -84.5v-41z" />
    <glyph glyph-name="uni04570457" unicode="&#x457;&#x457;" horiz-adv-x="525" 
d="M73 594q0 18 13 30t32 12q18 0 31 -12t13 -30t-13 -30.5t-31 -12.5q-19 0 -32 12.5t-13 30.5zM218 594q0 18 13 30t32 12q18 0 31 -12t13 -30t-13 -30.5t-31 -12.5q-19 0 -32 12.5t-13 30.5zM363 594q0 18 13 30t32 12q18 0 31 -12t13 -30t-13 -30.5t-31 -12.5
q-19 0 -32 12.5t-13 30.5zM178 0h-72v440h72v-440zM420 0h-72v440h72v-440z" />
    <glyph glyph-name=".notdef" horiz-adv-x="618" 
d="M75 199l2 297q1 94 20 141t68 65.5t145 18.5q97 0 145.5 -19t68 -67t19.5 -144v-292q0 -90 -19.5 -135t-68 -62.5t-145.5 -17.5q-98 0 -147.5 17.5t-69 62.5t-18.5 135zM448 504q0 38 -19 70t-51 51t-69 19q-38 0 -70 -19t-50.5 -51t-18.5 -70t18.5 -70.5t50.5 -51
t70 -18.5t70 18.5t50.5 50.5t18.5 71zM195 504q0 48 33 80.5t81 32.5t81 -33t33 -80q0 -49 -32.5 -81t-81.5 -32t-81.5 32.5t-32.5 80.5zM265 535q0 21 15 21q6 0 14 -3.5t12 -5.5q20 -12 32 -12q35 0 32 46h-21q0 -22 -14 -22q-6 0 -14 4t-11 5q-20 11 -32 11
q-16 0 -25.5 -11t-8.5 -33h21zM295 428h27v99q-18 6 -27 11v-110zM196 97h42v59h20q30 0 50 15.5t20 48.5q0 36 -21.5 48.5t-56.5 12.5q-30 0 -54 -4v-180zM410 114v15q-12 -6 -24 -6q-4 0 -7.5 3.5t-3.5 8.5q0 6 2 16l16 59h30q3 4 5.5 14t1.5 14h-31l8 27l-5 4
q-8 0 -17.5 -3t-15.5 -9l-5 -19q-15 -8 -26 -17v-11h19l-19 -68q-4 -16 -4 -24q0 -11 7.5 -17.5t17.5 -6.5q28 0 51 20zM238 193v51q10 2 14 2q33 0 33 -25q0 -17 -9.5 -23.5t-24.5 -5.5z" />
    <glyph glyph-name=".null" 
 />
    <glyph glyph-name=".null" 
 />
    <glyph glyph-name="uni000D" unicode="&#xd;" horiz-adv-x="260" 
 />
    <glyph glyph-name="space" unicode=" " horiz-adv-x="260" 
 />
    <glyph glyph-name="exclam" unicode="!" horiz-adv-x="247" 
d="M164 230h-80v470h80v-470zM68 43q0 24 14.5 39.5t40.5 15.5t41 -15.5t15 -39.5q0 -22 -15 -37.5t-41 -15.5q-25 0 -40 15t-15 38z" />
    <glyph glyph-name="quotedbl" unicode="&#x22;" horiz-adv-x="479" 
d="M302 700h75l-10 -260h-55zM102 700h75l-10 -260h-55z" />
    <glyph glyph-name="numbersign" unicode="#" horiz-adv-x="756" 
d="M726 520l-24 -65h-127l-68 -192h134l-24 -65h-133l-70 -198h-74l70 198h-175l-70 -198h-74l70 198h-131l24 65h130l68 192h-137l24 65h136l64 180h74l-64 -180h175l64 180h74l-64 -180h128zM258 263h175l68 192h-175z" />
    <glyph glyph-name="dollar" unicode="$" horiz-adv-x="556" 
d="M312 -7v-93h-65v91q-117 7 -199 99l56 63q34 -44 76 -67.5t99 -23.5q70 0 108 35t38 92q0 44 -22 72.5t-55 45.5t-87 37q-60 23 -96 42.5t-61 54t-25 88.5q0 74 47.5 122t127.5 56v93h65v-93q99 -10 161 -80l-50 -55q-49 65 -144 65q-60 0 -93.5 -26.5t-33.5 -72.5
q0 -35 19.5 -58t48 -37.5t78.5 -32.5q64 -24 104 -45.5t68 -61.5t28 -104q0 -88 -53 -141.5t-140 -64.5z" />
    <glyph glyph-name="percent" unicode="%" horiz-adv-x="808" 
d="M60 546q0 72 46 116t118 44q46 0 83.5 -20t59 -56.5t21.5 -83.5q0 -71 -46.5 -115.5t-117.5 -44.5t-117.5 44.5t-46.5 115.5zM324 546q0 45 -27.5 72.5t-72.5 27.5t-72.5 -27.5t-27.5 -72.5t27.5 -72.5t72.5 -27.5t72.5 27.5t27.5 72.5zM420 153q0 72 46 116t118 44
q46 0 83.5 -20t59 -56.5t21.5 -83.5q0 -71 -46.5 -115.5t-117.5 -44.5t-117.5 44.5t-46.5 115.5zM684 153q0 45 -27.5 72.5t-72.5 27.5t-72.5 -27.5t-27.5 -72.5t27.5 -72.5t72.5 -27.5t72.5 27.5t27.5 72.5zM618 700h79l-504 -700h-82z" />
    <glyph glyph-name="ampersand" unicode="&#x26;" horiz-adv-x="643" 
d="M623 266v-65h-97v-16q-9 -89 -72.5 -142t-162.5 -53q-68 0 -120.5 26.5t-81.5 74t-29 109.5q0 71 39 120t108 66q-48 13 -77.5 53t-29.5 94q0 51 24.5 91t68 63t98.5 23q88 0 141 -48.5t59 -134.5v-23h-64q-1 65 -37 103t-98 38q-57 0 -88.5 -30.5t-31.5 -86.5
q0 -54 33 -86t88 -32h20v-60h-20q-75 0 -118 -39t-43 -107t42.5 -108t116.5 -41q76 0 123 40t48 106h-133v65h294z" />
    <glyph glyph-name="quotesingle" unicode="'" horiz-adv-x="279" 
d="M102 700h75l-10 -260h-55z" />
    <glyph glyph-name="parenleft" unicode="(" horiz-adv-x="353" 
d="M292 -239q-95 66 -163.5 182t-68.5 288t68.5 287.5t163.5 181.5h71v-16q-101 -68 -165 -183t-64 -270q0 -156 63.5 -270.5t165.5 -183.5v-16h-71z" />
    <glyph glyph-name="parenright" unicode=")" horiz-adv-x="353" 
d="M-10 -239v16q102 69 165.5 183.5t63.5 270.5q0 155 -64 270t-165 183v16h71q95 -66 163.5 -181.5t68.5 -287.5t-68.5 -288t-163.5 -182h-71z" />
    <glyph glyph-name="asterisk" unicode="*" horiz-adv-x="521" 
d="M438 602l23 -71l-153 -42l101 -125l-61 -44l-87 134l-86 -132l-61 44l99 123l-153 41l24 72l147 -56l-8 154h75l-8 -155z" />
    <glyph glyph-name="plus" unicode="+" horiz-adv-x="620" 
d="M342 380h178v-65h-178v-180h-65v180h-177v65h177v175h65v-175z" />
    <glyph glyph-name="comma" unicode="," horiz-adv-x="237" 
d="M176 36q0 -19 -12.5 -46.5t-40.5 -76.5l-42 -73h-63l90 158q-23 3 -36 17t-13 34q0 24 17 39t40 15q27 0 43.5 -18t16.5 -49z" />
    <glyph glyph-name="hyphen" unicode="-" horiz-adv-x="384" 
d="M58 274h268v-65h-268v65z" />
    <glyph glyph-name="period" unicode="." horiz-adv-x="233" 
d="M61 43q0 24 14.5 39.5t40.5 15.5t41 -15.5t15 -39.5q0 -22 -15 -37.5t-41 -15.5q-25 0 -40 15t-15 38z" />
    <glyph glyph-name="slash" unicode="/" horiz-adv-x="291" 
d="M228 700h74l-248 -940h-74z" />
    <glyph glyph-name="zero" unicode="0" horiz-adv-x="584" 
d="M65 349q0 111 30 192t81.5 123t114.5 42q71 0 122.5 -44t78.5 -124t27 -187q0 -111 -29.5 -192t-81 -123t-114.5 -42q-71 0 -123 44t-79 124t-27 187zM444 351q0 142 -41.5 213.5t-111.5 71.5q-66 0 -108.5 -71t-42.5 -216q0 -142 41.5 -213.5t112.5 -71.5q66 0 108 71
t42 216z" />
    <glyph glyph-name="one" unicode="1" horiz-adv-x="400" 
d="M67 557v75l203 78v-710h-72v607z" />
    <glyph glyph-name="two" unicode="2" horiz-adv-x="584" 
d="M195 65h303v-65h-423v10l211 279l19 25q62 81 84 120t22 84q0 58 -33.5 90t-89.5 32q-89 0 -158 -83l-44 45q31 44 85 74t124 30q59 0 102.5 -24t66 -64.5t22.5 -90.5q0 -37 -13 -70.5t-35.5 -66.5t-70.5 -97l-20 -26z" />
    <glyph glyph-name="three" unicode="3" horiz-adv-x="584" 
d="M521 202q0 -60 -31 -108.5t-85.5 -76t-122.5 -27.5q-63 0 -117.5 24t-91.5 74l55 49q55 -82 154 -82q74 0 120.5 43t46.5 110q0 65 -44 103.5t-117 38.5h-20v60h20q57 0 89 32.5t32 85.5q0 52 -31 84.5t-88 32.5q-48 0 -82.5 -22t-56.5 -59l-50 48q27 46 74.5 72
t106.5 26t104 -23t70 -63.5t25 -90.5q0 -56 -30 -94t-74 -52q66 -13 105 -64.5t39 -120.5z" />
    <glyph glyph-name="four" unicode="4" horiz-adv-x="584" 
d="M424 266h89v-65h-89v-201h-72v201h-329v27l381 482h20v-444zM352 539l-216 -273h216v273z" />
    <glyph glyph-name="five" unicode="5" horiz-adv-x="584" 
d="M511 215q0 -67 -31 -118t-85 -79t-123 -28q-63 0 -117.5 24t-91.5 74l55 49q55 -82 154 -82q74 0 120.5 44.5t46.5 116.5q0 76 -52.5 117.5t-132.5 41.5q-45 0 -87 -16h-28l48 341h277v-70h-219l-28 -194q24 3 49 3q74 0 129.5 -28.5t85.5 -79t30 -116.5z" />
    <glyph glyph-name="six" unicode="6" horiz-adv-x="584" 
d="M533 218q0 -72 -32 -123t-84.5 -76t-115.5 -25q-65 0 -118.5 27t-85 79.5t-31.5 126.5q0 70 28.5 135t86.5 148l132 190h82v-8l-215 -301q61 51 139 51q56 0 105 -26t79 -77t30 -121zM461 218q0 75 -46 119t-116 44q-69 0 -115 -42.5t-46 -116.5q0 -76 46.5 -119.5
t115.5 -43.5q44 0 80.5 18.5t58.5 54.5t22 86z" />
    <glyph glyph-name="seven" unicode="7" horiz-adv-x="500" 
d="M53 630v70h407v-20l-238 -680h-75l222 630h-316z" />
    <glyph glyph-name="eight" unicode="8" horiz-adv-x="584" 
d="M524 200q0 -60 -28.5 -107.5t-81 -75t-122.5 -27.5t-122.5 27.5t-81 75t-28.5 107.5q0 69 38 119t111 67q-45 13 -77 52t-32 95q0 80 53 128.5t139 48.5t139 -48.5t53 -128.5q0 -56 -32 -95t-77 -52q73 -17 111 -67t38 -119zM292 410q56 0 88 33.5t32 84.5
q0 54 -31.5 85.5t-88.5 31.5t-88.5 -31.5t-31.5 -85.5q0 -51 32 -84.5t88 -33.5zM452 204q0 68 -44 107t-116 39t-116 -39t-44 -107t44 -108.5t116 -40.5t116 40.5t44 108.5z" />
    <glyph glyph-name="nine" unicode="9" horiz-adv-x="584" 
d="M518 473q0 -70 -28.5 -135t-86.5 -148l-132 -190h-82v8l215 301q-61 -51 -139 -51q-56 0 -105 26t-79 77t-30 121q0 72 32 123t84.5 76t115.5 25q65 0 118.5 -27t85 -79.5t31.5 -126.5zM446 478q0 76 -46.5 119.5t-115.5 43.5q-44 0 -80.5 -18.5t-58.5 -54.5t-22 -86
q0 -75 46 -119t116 -44q69 0 115 42.5t46 116.5z" />
    <glyph glyph-name="colon" unicode=":" horiz-adv-x="257" 
d="M61 43q0 24 14.5 39.5t40.5 15.5t41 -15.5t15 -39.5q0 -22 -15 -37.5t-41 -15.5q-25 0 -40 15t-15 38zM61 392q0 24 14.5 39.5t40.5 15.5t41 -15.5t15 -39.5q0 -22 -15 -37.5t-41 -15.5q-25 0 -40 15t-15 38z" />
    <glyph glyph-name="semicolon" unicode=";" horiz-adv-x="261" 
d="M176 36q0 -19 -12.5 -46.5t-40.5 -76.5l-42 -73h-63l90 158q-23 3 -36 17t-13 34q0 24 17 39t40 15q27 0 43.5 -18t16.5 -49zM65 392q0 24 14.5 39.5t40.5 15.5t41 -15.5t15 -39.5q0 -22 -15 -37.5t-41 -15.5q-25 0 -40 15t-15 38z" />
    <glyph glyph-name="less" unicode="&#x3c;" horiz-adv-x="620" 
d="M108 353l392 248v-79l-276 -169l276 -169v-79z" />
    <glyph glyph-name="equal" unicode="=" horiz-adv-x="620" 
d="M100 280h420v-65h-420v65zM100 489h420v-65h-420v65z" />
    <glyph glyph-name="greater" unicode="&#x3e;" horiz-adv-x="620" 
d="M120 516v79l392 -248l-392 -248v79l276 169z" />
    <glyph glyph-name="question" unicode="?" horiz-adv-x="513" 
d="M217 210q0 45 12 77.5t28.5 54t44.5 48.5q36 34 53.5 62t17.5 73q0 52 -29.5 84.5t-84.5 32.5q-58 0 -90 -37t-33 -103h-66v23q6 91 58.5 136.5t132.5 45.5q84 0 138 -46.5t54 -126.5q0 -42 -12.5 -74.5t-31 -54.5t-48.5 -52q-39 -38 -59 -68.5t-20 -74.5h-65zM195 43
q0 24 14.5 39.5t40.5 15.5t41 -15.5t15 -39.5q0 -22 -15 -37.5t-41 -15.5q-25 0 -40 15t-15 38z" />
    <glyph glyph-name="at" unicode="@" horiz-adv-x="902" 
d="M856 294q0 -103 -42 -165t-115 -62q-45 0 -80.5 23t-40.5 70q-15 -42 -52 -68.5t-89 -26.5q-48 0 -87.5 23.5t-62 67.5t-22.5 103t22 103t61.5 67.5t89.5 23.5q54 0 89 -26t47 -63v76h59v-238q0 -38 20.5 -58.5t48.5 -20.5q41 0 65 45t24 126q0 152 -92 230.5t-248 78.5
q-105 0 -181.5 -42t-117.5 -119.5t-41 -181.5q0 -103 42 -181t119 -120t179 -42v-60q-123 0 -214.5 51t-141 142.5t-49.5 209.5q0 116 48 207.5t139.5 143.5t217.5 52q119 0 211 -46t143 -130t51 -193zM571 256v9q0 59 -32 95t-91 36q-57 0 -88.5 -35t-31.5 -99t31 -102
t88 -38q59 0 91.5 37.5t32.5 96.5z" />
    <glyph glyph-name="A" unicode="A" horiz-adv-x="634" 
d="M624 0h-83l-79 195h-293l-79 -195h-80l289 710h33zM315 557l-117 -290h235z" />
    <glyph glyph-name="B" unicode="B" horiz-adv-x="584" 
d="M535 210q0 -61 -31.5 -109t-88 -74.5t-129.5 -26.5h-184v700h184q87 0 137 -43t50 -117q0 -59 -29 -96.5t-72 -54.5q75 -7 119 -57t44 -122zM254 626h-72v-213h72q65 0 102 28t37 82q0 103 -139 103zM268 74q91 0 138 37t47 101q0 65 -46 99t-122 34h-103v-271h86z" />
    <glyph glyph-name="C" unicode="C" horiz-adv-x="673" 
d="M46 349q0 103 47.5 185.5t133 129t195.5 46.5q127 0 222 -63l-36 -65q-78 56 -178 56q-85 0 -154 -37.5t-108.5 -103.5t-39.5 -148q0 -81 39.5 -146.5t108.5 -103t156 -37.5q110 0 187 64l37 -59q-37 -34 -95 -55.5t-134 -21.5q-111 0 -197.5 46t-135 128t-48.5 185z" />
    <glyph glyph-name="D" unicode="D" horiz-adv-x="708" 
d="M662 357q0 -117 -51 -197.5t-135.5 -120t-186.5 -39.5h-187v700h187q119 0 203 -42t127 -119t43 -182zM281 74q142 0 220.5 73.5t78.5 201.5q0 130 -80 203.5t-219 73.5h-99v-552h99z" />
    <glyph glyph-name="E" unicode="E" horiz-adv-x="542" 
d="M477 0h-375v700h365v-74h-285v-214h236v-74h-236v-264h295v-74z" />
    <glyph glyph-name="F" unicode="F" horiz-adv-x="517" 
d="M182 0h-80v700h355v-74h-275v-244h255v-74h-255v-308z" />
    <glyph glyph-name="G" unicode="G" horiz-adv-x="801" 
d="M405 354h352q0 -117 -42 -198.5t-118.5 -123.5t-178.5 -42q-111 0 -195.5 47t-130.5 128.5t-46 182.5q0 97 43 179.5t127 132.5t202 50q80 0 152.5 -24.5t128.5 -79.5l-52 -62q-46 50 -107.5 72t-126.5 22q-87 0 -152 -41t-99 -107.5t-34 -142.5q0 -80 37.5 -145
t105 -102.5t152.5 -37.5q102 0 171.5 55.5t87.5 162.5h-277v74z" />
    <glyph glyph-name="H" unicode="H" horiz-adv-x="736" 
d="M554 412v288h80v-700h-80v338h-372v-338h-80v700h80v-288h372z" />
    <glyph glyph-name="I" unicode="I" horiz-adv-x="284" 
d="M102 700h80v-700h-80v700z" />
    <glyph glyph-name="J" unicode="J" horiz-adv-x="341" 
d="M20 1v70q18 -6 42 -6q56 0 81.5 31t25.5 97v507h80v-514q0 -97 -47.5 -144t-135.5 -47q-26 0 -46 6z" />
    <glyph glyph-name="K" unicode="K" horiz-adv-x="631" 
d="M535 680l-240 -305l319 -355v-20h-88l-298 334h-46v-334h-80v700h80v-298h45l229 298h79v-20z" />
    <glyph glyph-name="L" unicode="L" horiz-adv-x="488" 
d="M182 700v-623h275v-77h-355v700h80z" />
    <glyph glyph-name="M" unicode="M" horiz-adv-x="892" 
d="M725 700l100 -700h-78l-74 507l-220 -507h-19l-224 501l-67 -501h-76l91 700h44l244 -546l237 546h42z" />
    <glyph glyph-name="N" unicode="N" horiz-adv-x="749" 
d="M567 177v523h80v-700h-42l-423 538v-538h-80v700h55z" />
    <glyph glyph-name="O" unicode="O" horiz-adv-x="808" 
d="M46 351q0 102 44.5 184t126 128.5t187.5 46.5t187.5 -47t126 -129t44.5 -185q0 -102 -44.5 -184t-126 -128.5t-187.5 -46.5t-187.5 47t-126 129t-44.5 185zM680 350q0 81 -36 147t-99 103.5t-141 37.5t-141 -37.5t-99 -103.5t-36 -147t36 -147t99 -103.5t141 -37.5
t141 37.5t99 103.5t36 147z" />
    <glyph glyph-name="P" unicode="P" horiz-adv-x="562" 
d="M297 700q67 0 118 -27t78.5 -73t27.5 -102q0 -59 -27.5 -107t-78.5 -76.5t-118 -28.5h-115v-286h-80v700h195zM287 360q71 0 111.5 38t40.5 96t-40.5 95t-111.5 37h-105v-266h105z" />
    <glyph glyph-name="Q" unicode="Q" horiz-adv-x="808" 
d="M553 18l177 -110v-88h-15l-264 173q-23 -3 -47 -3q-106 0 -187.5 47t-126 129t-44.5 185q0 102 44.5 184t126 128.5t187.5 46.5t187.5 -47t126 -129t44.5 -185q0 -115 -55.5 -203t-153.5 -128zM404 62q78 0 141 37.5t99 103.5t36 147t-36 147t-99 103.5t-141 37.5
t-141 -37.5t-99 -103.5t-36 -147t36 -147t99 -103.5t141 -37.5z" />
    <glyph glyph-name="R" unicode="R" horiz-adv-x="595" 
d="M585 21v-21h-87l-240 286h-76v-286h-80v700h195q67 0 118 -27t78.5 -74t27.5 -104q0 -75 -45.5 -131t-122.5 -72zM182 626v-266h105q71 0 111.5 38t40.5 96t-40.5 95t-111.5 37h-105z" />
    <glyph glyph-name="S" unicode="S" horiz-adv-x="556" 
d="M48 90l56 63q34 -44 76 -67.5t99 -23.5q70 0 108 35t38 92q0 44 -22 72.5t-55 45.5t-87 37q-60 23 -96 42.5t-61 54t-25 88.5q0 82 57 131t152 49q63 0 111 -22t81 -60l-50 -55q-49 65 -144 65q-60 0 -93.5 -26.5t-33.5 -72.5q0 -35 19.5 -58t48 -37.5t78.5 -32.5
q64 -24 104 -45.5t68 -61.5t28 -104q0 -66 -31 -113.5t-85 -71.5t-121 -24q-131 0 -220 100z" />
    <glyph glyph-name="T" unicode="T" horiz-adv-x="478" 
d="M279 0h-80v626h-184v74h448v-74h-184v-626z" />
    <glyph glyph-name="U" unicode="U" horiz-adv-x="700" 
d="M92 269v431h80v-425q0 -101 47 -156.5t131 -56.5q84 1 131 56.5t47 156.5v425h80v-431q0 -131 -68 -205t-190 -74t-190 75t-68 204z" />
    <glyph glyph-name="V" unicode="V" horiz-adv-x="614" 
d="M310 157l219 543h72v-20l-281 -690h-23l-284 690v20h77z" />
    <glyph glyph-name="W" unicode="W" horiz-adv-x="879" 
d="M635 192l141 508h74v-20l-194 -690h-29l-188 536l-193 -536h-29l-188 690v20h77l140 -510l181 510h27z" />
    <glyph glyph-name="X" unicode="X" horiz-adv-x="610" 
d="M538 680l-193 -299l232 -361v-20h-83l-196 318l-189 -318h-76v20l218 356l-194 304v20h81l164 -263l161 263h75v-20z" />
    <glyph glyph-name="Y" unicode="Y" horiz-adv-x="556" 
d="M461 700h78v-20l-217 -368v-312h-80v311l-225 369v20h80l185 -309z" />
    <glyph glyph-name="Z" unicode="Z" horiz-adv-x="537" 
d="M42 700h465v-50l-381 -576h374v-74h-475v59l376 567h-359v74z" />
    <glyph glyph-name="bracketleft" unicode="[" horiz-adv-x="366" 
d="M351 -240h-231v940h231v-65h-166v-810h166v-65z" />
    <glyph glyph-name="backslash" unicode="\" horiz-adv-x="291" 
d="M237 -240l-248 940h74l248 -940h-74z" />
    <glyph glyph-name="bracketright" unicode="]" horiz-adv-x="366" 
d="M246 700v-940h-231v65h166v810h-166v65h231z" />
    <glyph glyph-name="asciicircum" unicode="^" horiz-adv-x="620" 
d="M328 700l212 -349h-75l-155 255l-155 -255h-75l212 349h36z" />
    <glyph glyph-name="underscore" unicode="_" horiz-adv-x="238" 
d="M-11 -100h260v-65h-260v65z" />
    <glyph glyph-name="grave" unicode="`" horiz-adv-x="185" 
d="M10 665l60 47l105 -147l-35 -29z" />
    <glyph glyph-name="a" unicode="a" horiz-adv-x="559" 
d="M415 440h68v-440h-68v82q-19 -40 -62 -65t-98 -25q-57 0 -106 28t-78 79.5t-29 120.5q0 68 28.5 120t77 80t107.5 28q60 0 102.5 -25t57.5 -61v78zM411 217v10q0 41 -17 76t-50.5 56.5t-79.5 21.5q-65 0 -106 -42.5t-41 -117.5q0 -73 40 -117.5t105 -44.5q46 0 80 22.5
t51.5 59t17.5 76.5z" />
    <glyph glyph-name="b" unicode="b" horiz-adv-x="559" 
d="M517 220q0 -69 -29 -120.5t-78 -79.5t-106 -28q-55 0 -98 25t-62 65v-82h-68v700h72v-330q18 33 58.5 55.5t97.5 22.5q59 0 107.5 -28t77 -80t28.5 -120zM442 221q0 75 -41 117.5t-106 42.5q-46 0 -79.5 -21.5t-50.5 -56.5t-17 -76v-10q0 -40 17.5 -76.5t51.5 -59
t80 -22.5q65 0 105 44.5t40 117.5z" />
    <glyph glyph-name="c" unicode="c" horiz-adv-x="459" 
d="M42 222q0 69 30 120t82 78.5t116 27.5q50 0 94.5 -17t74.5 -48l-42 -56q-22 26 -55 41t-71 15q-67 0 -112 -43.5t-45 -116.5q0 -48 21 -86t58 -59t83 -21q39 0 71.5 15t53.5 41l45 -45q-29 -35 -74 -55.5t-102 -20.5q-68 0 -120 30t-80 82.5t-28 117.5z" />
    <glyph glyph-name="d" unicode="d" horiz-adv-x="558" 
d="M411 700h72v-700h-68v82q-19 -40 -62 -65t-98 -25q-57 0 -106 28t-78 79.5t-29 120.5q0 68 28.5 120t77 80t107.5 28q57 0 97.5 -22.5t58.5 -55.5v330zM411 217v10q0 41 -17 76t-50.5 56.5t-79.5 21.5q-65 0 -106 -42.5t-41 -117.5q0 -73 40 -117.5t105 -44.5
q46 0 80 22.5t51.5 59t17.5 76.5z" />
    <glyph glyph-name="e" unicode="e" horiz-adv-x="509" 
d="M479 206h-364q4 -68 48.5 -108.5t110.5 -40.5q42 0 78.5 16.5t58.5 45.5l47 -43q-31 -41 -81 -62.5t-107 -21.5q-65 0 -117 28t-81.5 79.5t-29.5 120.5q0 71 31 122.5t82.5 78.5t111.5 27q65 0 113 -31t73.5 -81t25.5 -105v-25zM119 267h285q-10 51 -50 83.5t-94 32.5
q-52 0 -90.5 -31t-50.5 -85z" />
    <glyph glyph-name="f" unicode="f" horiz-adv-x="285" 
d="M162 534v-94h109v-65h-109v-375h-72v375h-75v65h75v99q0 84 42 125t114 41q16 0 31 -3v-68q-7 1 -18 1q-48 0 -72.5 -22t-24.5 -79z" />
    <glyph glyph-name="g" unicode="g" horiz-adv-x="558" 
d="M415 440h68v-457q0 -74 -31 -125t-83.5 -76.5t-115.5 -25.5q-114 0 -184 84l46 53q57 -69 142 -69q73 0 113.5 46t40.5 132v72q-21 -37 -62 -59.5t-94 -22.5q-57 0 -106 28t-78 79.5t-29 120.5q0 68 28.5 120t77 80t107.5 28q60 0 102.5 -25t57.5 -61v78zM411 217v10
q0 41 -17 76t-50.5 56.5t-79.5 21.5q-65 0 -106 -42.5t-41 -117.5q0 -73 40 -117.5t105 -44.5q46 0 80 22.5t51.5 59t17.5 76.5z" />
    <glyph glyph-name="h" unicode="h" horiz-adv-x="521" 
d="M454 272v-272h-72v256q0 60 -30.5 90t-78.5 30q-57 0 -91.5 -42t-34.5 -108v-226h-72v700h72v-325q21 31 59 51t84 20q72 0 118 -47t46 -127z" />
    <glyph glyph-name="i" unicode="i" horiz-adv-x="242" 
d="M157 0h-72v440h72v-440zM73 598q0 19 14.5 32t34.5 13t33.5 -13t13.5 -32t-14 -33t-33 -14q-20 0 -34.5 14t-14.5 33z" />
    <glyph glyph-name="j" unicode="j" horiz-adv-x="238" 
d="M-2 -245v65q6 -1 18 -1q76 0 75 93v528h72v-518q0 -84 -35 -126t-114 -42q-11 0 -16 1zM79 598q0 19 14.5 32t34.5 13t33.5 -13t13.5 -32t-14 -33t-33 -14q-20 0 -34.5 14t-14.5 33z" />
    <glyph glyph-name="k" unicode="k" horiz-adv-x="440" 
d="M395 430l-158 -192l198 -228v-10h-83l-177 205h-28v-205h-72v700h72v-434h34l137 174h77v-10z" />
    <glyph glyph-name="l" unicode="l" horiz-adv-x="222" 
d="M147 0h-72v700h72v-700z" />
    <glyph glyph-name="m" unicode="m" horiz-adv-x="768" 
d="M701 279v-279h-72v253q0 62 -29 92.5t-71 30.5q-50 0 -77.5 -40t-27.5 -103v-233h-72v263q0 57 -24.5 85t-64.5 28q-52 0 -84 -43.5t-32 -106.5v-226h-72v440h68v-71q19 34 53.5 55.5t75.5 21.5q39 0 72.5 -21t52.5 -57q20 35 56.5 56.5t81.5 21.5q43 0 81 -20.5
t61.5 -58.5t23.5 -88z" />
    <glyph glyph-name="n" unicode="n" horiz-adv-x="521" 
d="M454 272v-272h-72v256q0 60 -30.5 90t-78.5 30q-57 0 -91.5 -42t-34.5 -108v-226h-72v440h68v-72q20 34 59.5 56t87.5 22q72 0 118 -47t46 -127z" />
    <glyph glyph-name="o" unicode="o" horiz-adv-x="533" 
d="M42 222q0 64 29.5 115.5t80.5 81t115 29.5t115 -29.5t80 -81t29 -115.5q0 -65 -29.5 -117.5t-80.5 -82.5t-114 -30t-114.5 30.5t-81 83t-29.5 116.5zM419 222q0 72 -42 116.5t-110 44.5t-110.5 -44.5t-42.5 -116.5q0 -73 43 -119t110 -46t109.5 46t42.5 119z" />
    <glyph glyph-name="p" unicode="p" horiz-adv-x="559" 
d="M517 220q0 -69 -29 -120.5t-78 -79.5t-106 -28q-53 0 -94 22.5t-62 59.5v-314h-72v680h68v-78q15 36 57.5 61t102.5 25q59 0 107.5 -28t77 -80t28.5 -120zM442 221q0 75 -41 117.5t-106 42.5q-46 0 -79.5 -21.5t-50.5 -56.5t-17 -76v-10q0 -40 17.5 -76.5t51.5 -59
t80 -22.5q65 0 105 44.5t40 117.5z" />
    <glyph glyph-name="q" unicode="q" horiz-adv-x="558" 
d="M415 440h68v-680h-72v314q-21 -37 -62 -59.5t-94 -22.5q-57 0 -106 28t-78 79.5t-29 120.5q0 68 28.5 120t77 80t107.5 28q60 0 102.5 -25t57.5 -61v78zM411 217v10q0 41 -17 76t-50.5 56.5t-79.5 21.5q-65 0 -106 -42.5t-41 -117.5q0 -73 40 -117.5t105 -44.5
q46 0 80 22.5t51.5 59t17.5 76.5z" />
    <glyph glyph-name="r" unicode="r" horiz-adv-x="308" 
d="M292 443v-72q-27 5 -49 5q-58 0 -77 -35.5t-19 -106.5v-234h-72v440h68v-59q33 65 110 65q23 0 39 -3z" />
    <glyph glyph-name="s" unicode="s" horiz-adv-x="440" 
d="M40 63l40 52q54 -60 136 -60q45 0 73.5 18t28.5 50q0 31 -26 46t-82 31q-47 13 -75.5 25t-48.5 36t-20 63q0 61 47 93.5t119 32.5q50 0 84.5 -15.5t61.5 -41.5l-42 -54q-20 23 -44.5 34.5t-60.5 11.5q-43 0 -68 -15.5t-25 -40.5q0 -29 24.5 -42t77.5 -26q47 -12 77 -24
t51.5 -37.5t21.5 -69.5q0 -67 -49.5 -103.5t-123.5 -36.5q-104 0 -177 73z" />
    <glyph glyph-name="t" unicode="t" horiz-adv-x="299" 
d="M279 63v-64q-25 -4 -51 -4q-72 0 -105 34.5t-33 112.5v233h-75v65h75v160h72v-160h113v-65h-113v-223q0 -45 15.5 -68.5t61.5 -23.5q19 0 40 3z" />
    <glyph glyph-name="u" unicode="u" horiz-adv-x="515" 
d="M368 440h72v-440h-68v70q-19 -34 -56 -55t-88 -21q-74 0 -117.5 49t-43.5 145v252h72v-236q0 -73 24.5 -107.5t75.5 -34.5q61 0 95 42.5t34 109.5v226z" />
    <glyph glyph-name="v" unicode="v" horiz-adv-x="436" 
d="M226 131l128 309h68v-10l-188 -436h-22l-198 436v10h75z" />
    <glyph glyph-name="w" unicode="w" horiz-adv-x="622" 
d="M441 145l91 295h65v-10l-134 -434h-35l-115 293l-116 -293h-38l-134 434v10h72l92 -296l114 296h25z" />
    <glyph glyph-name="x" unicode="x" horiz-adv-x="425" 
d="M400 430l-142 -199l154 -221v-10h-81l-119 174l-122 -174h-77v10l152 215l-141 205v10h82l109 -163l111 163h74v-10z" />
    <glyph glyph-name="y" unicode="y" horiz-adv-x="443" 
d="M232 102l127 338h70v-10l-252 -670h-70v10l89 236l-182 424v10h75z" />
    <glyph glyph-name="z" unicode="z" horiz-adv-x="423" 
d="M389 0h-354v31l251 344h-245v65h352v-31l-252 -344h248v-65z" />
    <glyph glyph-name="braceleft" unicode="{" horiz-adv-x="411" 
d="M310 -240q-82 0 -113.5 37t-31.5 123v153q0 56 -29 93t-96 55v18q67 18 96 55t29 93v153q0 86 31.5 123t113.5 37h86v-65h-87q-43 0 -61 -19t-18 -74v-156q0 -131 -120 -156q120 -25 120 -156v-156q0 -55 18 -74t61 -19h87v-65h-86z" />
    <glyph glyph-name="bar" unicode="|" horiz-adv-x="276" 
d="M102 700h72v-940h-72v940z" />
    <glyph glyph-name="braceright" unicode="}" horiz-adv-x="411" 
d="M15 -240v65h87q43 0 61 19t18 74v156q0 131 120 156q-120 25 -120 156v156q0 55 -18 74t-61 19h-87v65h86q82 0 113.5 -37t31.5 -123v-153q0 -56 29 -93t96 -55v-18q-67 -18 -96 -55t-29 -93v-153q0 -86 -31.5 -123t-113.5 -37h-86z" />
    <glyph glyph-name="asciitilde" unicode="~" horiz-adv-x="620" 
d="M108 257q0 64 29 95t77 31q29 0 50.5 -8.5t48.5 -24.5q26 -15 43.5 -22t39.5 -7q29 0 43.5 14.5t15.5 47.5h56q0 -60 -30.5 -93t-82.5 -33q-31 0 -56 9.5t-58 27.5q-24 13 -38.5 19t-28.5 6q-48 0 -53 -62h-56z" />
    <glyph glyph-name="uni00A0" unicode="&#xa0;" horiz-adv-x="260" 
 />
    <glyph glyph-name="exclamdown" unicode="&#xa1;" horiz-adv-x="247" 
d="M68 397q0 23 15.5 38t40.5 15t40 -15t15 -38q0 -24 -14.5 -39.5t-40.5 -15.5t-41 15.5t-15 39.5zM163 -240h-80v450h80v-450z" />
    <glyph glyph-name="cent" unicode="&#xa2;" horiz-adv-x="459" 
d="M446 68q-26 -31 -65 -51t-88 -24v-83h-65v85q-85 13 -135.5 76t-50.5 151q0 91 51.5 150.5t134.5 72.5v102h65v-100q44 -4 82 -20.5t64 -43.5l-42 -56q-22 26 -55 41t-71 15q-67 0 -112 -43.5t-45 -116.5q0 -48 21 -86t58 -59t83 -21q39 0 71.5 15t53.5 41z" />
    <glyph glyph-name="sterling" unicode="&#xa3;" horiz-adv-x="536" 
d="M209 70h262v-70h-411v70h77v250h-76v65h76v119q0 97 43.5 151.5t122.5 54.5q67 0 112 -40.5t45 -119.5v-23h-64q-1 53 -25.5 82t-67.5 29t-68.5 -30t-25.5 -86v-137h221v-65h-221v-250z" />
    <glyph glyph-name="currency" unicode="&#xa4;" horiz-adv-x="584" 
d="M416 256l76 -75l-46 -46l-85 84q-34 -13 -69 -13t-69 13l-85 -84l-46 46l76 75q-40 45 -40 110q0 46 21 85l-79 78l46 46l78 -77q42 28 98 28t98 -28l78 77l46 -46l-80 -79q22 -38 22 -84q0 -65 -40 -110zM292 266q45 0 72.5 27.5t27.5 72.5t-27.5 72.5t-72.5 27.5
t-72.5 -27.5t-27.5 -72.5t27.5 -72.5t72.5 -27.5z" />
    <glyph glyph-name="yen" unicode="&#xa5;" horiz-adv-x="552" 
d="M456 700h79v-20l-203 -335h154v-65h-170v-96h170v-65h-170v-119h-80v119h-170v65h170v96h-170v65h155l-204 335v20h82l182 -300z" />
    <glyph glyph-name="brokenbar" unicode="&#xa6;" horiz-adv-x="276" 
d="M174 700v-341h-72v341h72zM102 -240v386h72v-386h-72z" />
    <glyph glyph-name="section" unicode="&#xa7;" horiz-adv-x="472" 
d="M396 102q0 -60 -42.5 -100t-117.5 -40q-72 0 -116.5 39.5t-49.5 118.5v23h71q1 -57 26 -86.5t74 -29.5q42 0 62.5 19.5t20.5 49.5q0 35 -29.5 55.5t-90.5 44.5q-51 21 -81.5 37.5t-52.5 44t-22 68.5t23.5 72t64.5 51q-58 41 -58 105q0 56 39 95.5t110 39.5
q68 0 110 -40.5t48 -122.5v-23h-64q-1 57 -26 89t-69 32q-32 0 -54 -17.5t-22 -46.5q0 -26 16 -45t39.5 -31.5t64.5 -29.5q49 -20 79 -37t51 -44.5t21 -68.5t-21 -71t-59 -49q55 -40 55 -102zM242 251l44 -18q29 14 46 37.5t17 49.5q0 35 -29.5 56t-88.5 45l-41 18
q-70 -28 -70 -83q0 -27 16 -45.5t40 -30.5t66 -29z" />
    <glyph glyph-name="dieresis" unicode="&#xa8;" horiz-adv-x="329" 
d="M133 598q0 22 16 36t40 14q22 0 37.5 -14.5t15.5 -35.5q0 -22 -15.5 -37.5t-37.5 -15.5q-23 0 -39.5 15.5t-16.5 37.5zM341 598q0 22 16 36t40 14q22 0 37.5 -14.5t15.5 -35.5q0 -22 -15.5 -37.5t-37.5 -15.5q-23 0 -39.5 15.5t-16.5 37.5z" />
    <glyph glyph-name="copyright" unicode="&#xa9;" horiz-adv-x="913" 
d="M52 265q1 117 51 208.5t141.5 143t212.5 51.5q123 0 214.5 -51.5t140.5 -143t49 -208.5q-1 -117 -51 -208.5t-141 -143t-212 -51.5q-123 0 -215 51.5t-141 143t-49 208.5zM796 265q0 103 -42 181t-118.5 120t-178.5 42t-178.5 -41.5t-119 -119t-42.5 -182.5
q0 -103 42 -181t119 -120t179 -42q101 0 177.5 42t119 119.5t42.5 181.5zM263 263q0 59 27.5 103t74.5 67.5t105 23.5q46 0 86 -14.5t67 -41.5l-38 -48q-20 23 -50 35.5t-64 12.5q-61 0 -102 -37t-41 -100t42 -103t105 -40q35 0 64.5 13t49.5 35l41 -39q-27 -30 -68 -47.5
t-92 -17.5q-62 0 -109 26t-72.5 71t-25.5 101z" />
    <glyph glyph-name="ordfeminine" unicode="&#xaa;" horiz-adv-x="390" 
d="M277 700h68v-309h-65v67q-14 -32 -44 -52t-69 -20q-62 0 -102 43.5t-40 116.5t38.5 116t100.5 43q41 0 70.5 -18.5t42.5 -46.5v60zM277 544v7q0 45 -26.5 72t-74.5 27q-41 0 -64 -27t-23 -74q0 -50 22 -79t65 -29q47 0 74 29.5t27 73.5z" />
    <glyph glyph-name="guillemotleft" unicode="&#xab;" horiz-adv-x="508" 
d="M231 220l195 210v-90l-114 -120l114 -121v-89zM31 220l195 210v-90l-114 -120l114 -121v-89z" />
    <glyph glyph-name="logicalnot" unicode="&#xac;" horiz-adv-x="620" 
d="M71 320v65h420v-272h-72v207h-348z" />
    <glyph glyph-name="uni00AD" unicode="&#xad;" horiz-adv-x="384" 
d="M58 274h268v-65h-268v65z" />
    <glyph glyph-name="registered" unicode="&#xae;" horiz-adv-x="607" 
d="M546 469q0 -70 -30 -125t-85 -86t-127 -31q-74 0 -129 30.5t-84.5 85.5t-29.5 126q0 69 30 124t85 86t128 31q74 0 128.5 -31t84 -85.5t29.5 -124.5zM507 469q0 93 -55.5 149t-147.5 56q-93 0 -148.5 -55.5t-55.5 -149.5t55.5 -150t148.5 -56q92 0 147.5 55.5t55.5 150.5
zM348 450l82 -96v-5h-46l-81 98h-64v-98h-42v250h117q96 0 96 -76q0 -61 -62 -73zM239 563v-84h73q56 0 56 43q0 24 -15.5 32.5t-48.5 8.5h-65z" />
    <glyph glyph-name="macron" unicode="&#xaf;" horiz-adv-x="320" 
d="M10 661h300v-61h-300v61z" />
    <glyph glyph-name="macron" unicode="&#x2c9;" horiz-adv-x="320" 
d="M10 661h300v-61h-300v61z" />
    <glyph glyph-name="degree" unicode="&#xb0;" horiz-adv-x="481" 
d="M76 546q0 72 46 116t118 44q46 0 83.5 -20t59 -56.5t21.5 -83.5q0 -71 -46.5 -115.5t-117.5 -44.5t-117.5 44.5t-46.5 115.5zM340 546q0 45 -27.5 72.5t-72.5 27.5t-72.5 -27.5t-27.5 -72.5t27.5 -72.5t72.5 -27.5t72.5 27.5t27.5 72.5z" />
    <glyph glyph-name="plusminus" unicode="&#xb1;" horiz-adv-x="620" 
d="M343 578v-163h177v-65h-177v-108h-65v108h-178v65h178v163h65zM520 135h-420v65h420v-65z" />
    <glyph glyph-name="uni00B2" unicode="&#xb2;" horiz-adv-x="322" 
d="M157 409h123v-55h-242v5l110 138q38 47 49 66t11 38q0 26 -12.5 37t-30.5 11t-31 -11.5t-24 -34.5l-54 26q17 38 46 56.5t64 18.5q44 0 75 -26.5t31 -72.5q0 -28 -13 -55.5t-41 -63.5z" />
    <glyph glyph-name="uni00B3" unicode="&#xb3;" horiz-adv-x="301" 
d="M270 454q0 -45 -34 -75t-89 -30q-42 0 -74 18.5t-43 59.5l49 34q5 -27 23 -42t44 -15q27 0 43.5 14.5t16.5 39.5q0 26 -17 42.5t-45 16.5h-18v55h18q20 0 31.5 12t11.5 28t-10.5 26.5t-28.5 10.5q-17 0 -30 -11.5t-17 -30.5l-55 27q8 35 34 52.5t65 17.5q47 0 76 -22.5
t29 -58.5q0 -32 -18.5 -51t-48.5 -25q45 -7 66 -32t21 -61z" />
    <glyph glyph-name="acute" unicode="&#xb4;" horiz-adv-x="185" 
d="M10 565l105 147l60 -47l-130 -129z" />
    <glyph glyph-name="uni00B5" unicode="&#xb5;" horiz-adv-x="521" 
d="M148 185q0 -68 25.5 -99t83.5 -31q48 0 73.5 19.5t34.5 54t9 88.5v223h72v-440h-68v97q-13 -54 -42 -83t-94 -29q-55 0 -94 24v-189h-72v620h72v-255z" />
    <glyph glyph-name="paragraph" unicode="&#xb6;" horiz-adv-x="681" 
d="M579 -240h-72v875h-146v-875h-72v480h-8q-72 0 -126.5 28.5t-84 80.5t-29.5 121t29 121t82.5 80.5t125.5 28.5h301v-940zM289 314v321h-4q-86 0 -128 -38.5t-42 -118.5q0 -83 41 -123.5t126 -40.5h7z" />
    <glyph glyph-name="cedilla" unicode="&#xb8;" horiz-adv-x="217" 
d="M121 -56q45 -4 65.5 -26t20.5 -52q0 -39 -30 -60t-76 -21q-33 0 -57 10.5t-34 27.5l28 32q9 -11 25 -18.5t37 -7.5q47 0 47 38q0 37 -58 37h-8v106h40v-66z" />
    <glyph glyph-name="uni00B9" unicode="&#xb9;" horiz-adv-x="265" 
d="M33 585v61l163 58v-354h-61v275z" />
    <glyph glyph-name="ordmasculine" unicode="&#xba;" horiz-adv-x="378" 
d="M25 545q0 72 46 116t118 44q46 0 83.5 -20t59 -56.5t21.5 -83.5q0 -71 -46.5 -115.5t-117.5 -44.5t-117.5 44.5t-46.5 115.5zM289 545q0 47 -27.5 76t-72.5 29t-72.5 -29t-27.5 -76t27.5 -76t72.5 -29t72.5 29t27.5 76z" />
    <glyph glyph-name="guillemotright" unicode="&#xbb;" horiz-adv-x="508" 
d="M196 220l-114 121v89l195 -210l-195 -210v90zM282 341v89l195 -210l-195 -210v90l114 120z" />
    <glyph glyph-name="onequarter" unicode="&#xbc;" horiz-adv-x="711" 
d="M31 585v61l163 58v-354h-61v275zM558 700h79l-504 -700h-82zM632 146h49v-55h-49v-91h-61v91h-178v5l175 249h64v-199zM571 268l-86 -122h86v122z" />
    <glyph glyph-name="onehalf" unicode="&#xbd;" horiz-adv-x="687" 
d="M31 585v61l163 58v-354h-61v275zM558 700h79l-504 -700h-82zM534 55h123v-55h-242v5l110 138q38 47 49 66t11 38q0 26 -12.5 37t-30.5 11t-31 -11.5t-24 -34.5l-54 26q17 38 46 56.5t64 18.5q44 0 75 -26.5t31 -72.5q0 -28 -13 -55.5t-41 -63.5z" />
    <glyph glyph-name="threequarters" unicode="&#xbe;" horiz-adv-x="752" 
d="M614 700h79l-504 -700h-82zM274 450q0 -45 -34 -75t-89 -30q-42 0 -74 18.5t-43 59.5l49 34q5 -27 23 -42t44 -15q27 0 43.5 14.5t16.5 39.5q0 26 -17 42.5t-45 16.5h-18v55h18q20 0 31.5 12t11.5 28t-10.5 26.5t-28.5 10.5q-17 0 -30 -11.5t-17 -30.5l-55 27
q8 35 34 52.5t65 17.5q47 0 76 -22.5t29 -58.5q0 -32 -18.5 -51t-48.5 -25q45 -7 66 -32t21 -61zM673 146h49v-55h-49v-91h-61v91h-178v5l175 249h64v-199zM612 268l-86 -122h86v122z" />
    <glyph glyph-name="questiondown" unicode="&#xbf;" horiz-adv-x="513" 
d="M207 397q0 23 15.5 38t40.5 15t40 -15t15 -38q0 -24 -14.5 -39.5t-40.5 -15.5t-41 15.5t-15 39.5zM60 -77q0 42 12.5 74.5t31 54.5t48.5 52q39 38 59 68.5t20 74.5h65q0 -45 -12 -77.5t-28.5 -54t-44.5 -48.5q-36 -34 -53.5 -62t-17.5 -73q0 -52 29.5 -84.5t84.5 -32.5
q58 0 90 37t33 103h66v-23q-6 -91 -58.5 -136.5t-132.5 -45.5q-84 0 -138 46.5t-54 126.5z" />
    <glyph glyph-name="Agrave" unicode="&#xc0;" horiz-adv-x="634" 
d="M624 0h-83l-79 195h-293l-79 -195h-80l289 710h33zM315 557l-117 -290h235zM172 824l65 65l115 -116l-40 -38z" />
    <glyph glyph-name="Aacute" unicode="&#xc1;" horiz-adv-x="634" 
d="M624 0h-83l-79 195h-293l-79 -195h-80l289 710h33zM315 557l-117 -290h235zM234 775l115 116l65 -65l-140 -89z" />
    <glyph glyph-name="Acircumflex" unicode="&#xc2;" horiz-adv-x="634" 
d="M624 0h-83l-79 195h-293l-79 -195h-80l289 710h33zM315 557l-117 -290h235zM365 870l98 -104l-26 -30l-121 69l-117 -69l-29 30l99 104h96z" />
    <glyph glyph-name="Atilde" unicode="&#xc3;" horiz-adv-x="634" 
d="M624 0h-83l-79 195h-293l-79 -195h-80l289 710h33zM315 557l-117 -290h235zM298 774q-13 6 -26.5 11t-25.5 5q-18 0 -25.5 -9.5t-7.5 -27.5h-56q0 106 87 106q20 0 34.5 -5t31.5 -14t30.5 -13.5t31.5 -4.5q22 0 31 9t9 28h56q0 -51 -24 -78.5t-69 -27.5q-21 0 -37.5 5
t-39.5 16z" />
    <glyph glyph-name="Adieresis" unicode="&#xc4;" horiz-adv-x="634" 
d="M624 0h-83l-79 195h-293l-79 -195h-80l289 710h33zM315 557l-117 -290h235zM160 806q0 22 15.5 36t38.5 14q22 0 37 -14t15 -36q0 -21 -15 -36t-37 -15t-38 15t-16 36zM365 806q0 22 15.5 36t38.5 14q22 0 37 -14t15 -36q0 -21 -15 -36t-37 -15t-38 15t-16 36z" />
    <glyph glyph-name="Aring" unicode="&#xc5;" horiz-adv-x="634" 
d="M624 0h-83l-79 195h-293l-79 -195h-80l289 710h33zM315 557l-117 -290h235zM200 819q0 39 31 59.5t85 20.5t84.5 -20.5t30.5 -59.5t-30.5 -59.5t-84.5 -20.5t-85 20.5t-31 59.5zM366 819q0 35 -50 35q-51 0 -51 -35t51 -35q50 0 50 35z" />
    <glyph glyph-name="AE" unicode="&#xc6;" horiz-adv-x="922" 
d="M798 340h-228v-270h287v-70h-367v207h-253l-142 -207h-85l480 700h357v-70h-277v-220h228v-70zM490 277v299l-205 -299h205z" />
    <glyph glyph-name="Ccedilla" unicode="&#xc7;" horiz-adv-x="673" 
d="M421 -56q46 -4 67.5 -27t21.5 -56q0 -42 -32 -65t-81 -23q-33 0 -57 10.5t-34 27.5l28 32q32 -23 62 -23q23 0 37 12t14 32q0 40 -58 40h-19v89q-96 11 -169.5 59.5t-114 125.5t-40.5 171q0 103 47.5 185.5t133 129t195.5 46.5q127 0 222 -63l-36 -65q-78 56 -178 56
q-85 0 -154 -37.5t-108.5 -103.5t-39.5 -148q0 -81 39.5 -146.5t108.5 -103t156 -37.5q110 0 187 64l37 -59q-37 -34 -95 -55.5t-134 -21.5h-6v-46z" />
    <glyph glyph-name="Egrave" unicode="&#xc8;" horiz-adv-x="542" 
d="M477 0h-375v700h365v-74h-285v-214h236v-74h-236v-264h295v-74zM144 824l65 65l115 -116l-40 -38z" />
    <glyph glyph-name="Eacute" unicode="&#xc9;" horiz-adv-x="542" 
d="M477 0h-375v700h365v-74h-285v-214h236v-74h-236v-264h295v-74zM206 775l115 116l65 -65l-140 -89z" />
    <glyph glyph-name="Ecircumflex" unicode="&#xca;" horiz-adv-x="542" 
d="M477 0h-375v700h365v-74h-285v-214h236v-74h-236v-264h295v-74zM337 870l98 -104l-26 -30l-121 69l-117 -69l-29 30l99 104h96z" />
    <glyph glyph-name="Edieresis" unicode="&#xcb;" horiz-adv-x="542" 
d="M477 0h-375v700h365v-74h-285v-214h236v-74h-236v-264h295v-74zM132 806q0 22 15.5 36t38.5 14q22 0 37 -14t15 -36q0 -21 -15 -36t-37 -15t-38 15t-16 36zM337 806q0 22 15.5 36t38.5 14q22 0 37 -14t15 -36q0 -21 -15 -36t-37 -15t-38 15t-16 36z" />
    <glyph glyph-name="Igrave" unicode="&#xcc;" horiz-adv-x="284" 
d="M102 700h80v-700h-80v700zM-2 824l65 65l115 -116l-40 -38z" />
    <glyph glyph-name="Iacute" unicode="&#xcd;" horiz-adv-x="284" 
d="M102 700h80v-700h-80v700zM60 775l115 116l65 -65l-140 -89z" />
    <glyph glyph-name="Icircumflex" unicode="&#xce;" horiz-adv-x="284" 
d="M102 700h80v-700h-80v700zM191 870l98 -104l-26 -30l-121 69l-117 -69l-29 30l99 104h96z" />
    <glyph glyph-name="Idieresis" unicode="&#xcf;" horiz-adv-x="284" 
d="M33 798q0 18 13 30t32 12q18 0 31 -12t13 -30t-13 -30.5t-31 -12.5q-19 0 -32 12.5t-13 30.5zM161 798q0 18 13 30t32 12q18 0 31 -12t13 -30t-13 -30.5t-31 -12.5q-19 0 -32 12.5t-13 30.5zM102 700h80v-700h-80v700z" />
    <glyph glyph-name="Eth" unicode="&#xd0;" horiz-adv-x="736" 
d="M691 357q0 -117 -51 -197.5t-135.5 -120t-186.5 -39.5h-187v340h-122v70h122v290h187q119 0 203 -42t127 -119t43 -182zM310 74q142 0 220.5 73.5t78.5 201.5q0 130 -80 203.5t-219 73.5h-99v-216h165v-70h-165v-266h99z" />
    <glyph glyph-name="Ntilde" unicode="&#xd1;" horiz-adv-x="749" 
d="M567 177v523h80v-700h-42l-423 538v-538h-80v700h55zM357 774q-13 6 -26.5 11t-25.5 5q-18 0 -25.5 -9.5t-7.5 -27.5h-56q0 106 87 106q20 0 34.5 -5t31.5 -14t30.5 -13.5t31.5 -4.5q22 0 31 9t9 28h56q0 -51 -24 -78.5t-69 -27.5q-21 0 -37.5 5t-39.5 16z" />
    <glyph glyph-name="Ograve" unicode="&#xd2;" horiz-adv-x="808" 
d="M46 351q0 102 44.5 184t126 128.5t187.5 46.5t187.5 -47t126 -129t44.5 -185q0 -102 -44.5 -184t-126 -128.5t-187.5 -46.5t-187.5 47t-126 129t-44.5 185zM680 350q0 81 -36 147t-99 103.5t-141 37.5t-141 -37.5t-99 -103.5t-36 -147t36 -147t99 -103.5t141 -37.5
t141 37.5t99 103.5t36 147zM260 824l65 65l115 -116l-40 -38z" />
    <glyph glyph-name="Oacute" unicode="&#xd3;" horiz-adv-x="808" 
d="M46 351q0 102 44.5 184t126 128.5t187.5 46.5t187.5 -47t126 -129t44.5 -185q0 -102 -44.5 -184t-126 -128.5t-187.5 -46.5t-187.5 47t-126 129t-44.5 185zM680 350q0 81 -36 147t-99 103.5t-141 37.5t-141 -37.5t-99 -103.5t-36 -147t36 -147t99 -103.5t141 -37.5
t141 37.5t99 103.5t36 147zM322 775l115 116l65 -65l-140 -89z" />
    <glyph glyph-name="Ocircumflex" unicode="&#xd4;" horiz-adv-x="808" 
d="M46 351q0 102 44.5 184t126 128.5t187.5 46.5t187.5 -47t126 -129t44.5 -185q0 -102 -44.5 -184t-126 -128.5t-187.5 -46.5t-187.5 47t-126 129t-44.5 185zM680 350q0 81 -36 147t-99 103.5t-141 37.5t-141 -37.5t-99 -103.5t-36 -147t36 -147t99 -103.5t141 -37.5
t141 37.5t99 103.5t36 147zM453 870l98 -104l-26 -30l-121 69l-117 -69l-29 30l99 104h96z" />
    <glyph glyph-name="Otilde" unicode="&#xd5;" horiz-adv-x="808" 
d="M46 351q0 102 44.5 184t126 128.5t187.5 46.5t187.5 -47t126 -129t44.5 -185q0 -102 -44.5 -184t-126 -128.5t-187.5 -46.5t-187.5 47t-126 129t-44.5 185zM680 350q0 81 -36 147t-99 103.5t-141 37.5t-141 -37.5t-99 -103.5t-36 -147t36 -147t99 -103.5t141 -37.5
t141 37.5t99 103.5t36 147zM386 774q-13 6 -26.5 11t-25.5 5q-18 0 -25.5 -9.5t-7.5 -27.5h-56q0 106 87 106q20 0 34.5 -5t31.5 -14t30.5 -13.5t31.5 -4.5q22 0 31 9t9 28h56q0 -51 -24 -78.5t-69 -27.5q-21 0 -37.5 5t-39.5 16z" />
    <glyph glyph-name="Odieresis" unicode="&#xd6;" horiz-adv-x="808" 
d="M46 351q0 102 44.5 184t126 128.5t187.5 46.5t187.5 -47t126 -129t44.5 -185q0 -102 -44.5 -184t-126 -128.5t-187.5 -46.5t-187.5 47t-126 129t-44.5 185zM680 350q0 81 -36 147t-99 103.5t-141 37.5t-141 -37.5t-99 -103.5t-36 -147t36 -147t99 -103.5t141 -37.5
t141 37.5t99 103.5t36 147zM248 806q0 22 15.5 36t38.5 14q22 0 37 -14t15 -36q0 -21 -15 -36t-37 -15t-38 15t-16 36zM453 806q0 22 15.5 36t38.5 14q22 0 37 -14t15 -36q0 -21 -15 -36t-37 -15t-38 15t-16 36z" />
    <glyph glyph-name="multiply" unicode="&#xd7;" horiz-adv-x="620" 
d="M436 522l46 -46l-125 -125l125 -125l-46 -46l-125 125l-126 -126l-46 46l126 126l-126 126l46 46l126 -126z" />
    <glyph glyph-name="Oslash" unicode="&#xd8;" horiz-adv-x="808" 
d="M763 654l-76 -75q36 -46 55 -105t19 -125q0 -102 -44.5 -184t-126 -128.5t-187.5 -46.5q-69 0 -128.5 20.5t-105.5 58.5l-76 -74l-51 51l77 75q-74 96 -74 230q0 102 44.5 184t126 128.5t187.5 46.5q69 0 128.5 -20.5t105.5 -58.5l76 74zM177 179l403 396
q-36 30 -81 46.5t-96 16.5q-78 0 -141 -37.5t-99 -103.5t-36 -147q0 -98 50 -171zM628 521l-402 -396q36 -30 81 -46.5t96 -16.5q78 0 141 37.5t99 103.5t36 147q0 96 -51 171z" />
    <glyph glyph-name="Ugrave" unicode="&#xd9;" horiz-adv-x="700" 
d="M92 269v431h80v-425q0 -101 47 -156.5t131 -56.5q84 1 131 56.5t47 156.5v425h80v-431q0 -131 -68 -205t-190 -74t-190 75t-68 204zM206 824l65 65l115 -116l-40 -38z" />
    <glyph glyph-name="Uacute" unicode="&#xda;" horiz-adv-x="700" 
d="M92 269v431h80v-425q0 -101 47 -156.5t131 -56.5q84 1 131 56.5t47 156.5v425h80v-431q0 -131 -68 -205t-190 -74t-190 75t-68 204zM268 775l115 116l65 -65l-140 -89z" />
    <glyph glyph-name="Ucircumflex" unicode="&#xdb;" horiz-adv-x="700" 
d="M92 269v431h80v-425q0 -101 47 -156.5t131 -56.5q84 1 131 56.5t47 156.5v425h80v-431q0 -131 -68 -205t-190 -74t-190 75t-68 204zM399 870l98 -104l-26 -30l-121 69l-117 -69l-29 30l99 104h96z" />
    <glyph glyph-name="Udieresis" unicode="&#xdc;" horiz-adv-x="700" 
d="M92 269v431h80v-425q0 -101 47 -156.5t131 -56.5q84 1 131 56.5t47 156.5v425h80v-431q0 -131 -68 -205t-190 -74t-190 75t-68 204zM194 806q0 22 15.5 36t38.5 14q22 0 37 -14t15 -36q0 -21 -15 -36t-37 -15t-38 15t-16 36zM399 806q0 22 15.5 36t38.5 14q22 0 37 -14
t15 -36q0 -21 -15 -36t-37 -15t-38 15t-16 36z" />
    <glyph glyph-name="Yacute" unicode="&#xdd;" horiz-adv-x="556" 
d="M461 700h78v-20l-217 -368v-312h-80v311l-225 369v20h80l185 -309zM199 775l115 116l65 -65l-140 -89z" />
    <glyph glyph-name="Thorn" unicode="&#xde;" horiz-adv-x="556" 
d="M287 560q67 0 118 -27t78.5 -74t27.5 -104t-27.5 -105t-78.5 -76t-118 -28h-105v-146h-80v700h80v-140h105zM277 220q71 0 111.5 38t40.5 96t-40.5 95t-111.5 37h-95v-266h95z" />
    <glyph glyph-name="germandbls" unicode="&#xdf;" horiz-adv-x="602" 
d="M250 51l34 45q46 -41 102 -41q43 0 68.5 18t25.5 45q0 25 -21.5 43.5t-69.5 46.5q-42 24 -67.5 42.5t-44 45.5t-18.5 63q0 34 15 54.5t46 47.5q30 24 45 45t15 54q0 41 -27 63t-79 22q-53 0 -80 -24.5t-37 -76t-10 -143.5v-401h-72v421q0 95 16.5 158t59 97t118.5 34
q88 0 135.5 -43.5t47.5 -108.5q0 -45 -19 -71.5t-55 -56.5q-24 -19 -35.5 -33t-11.5 -33q0 -26 22.5 -45.5t69.5 -45.5q41 -23 67 -41t44 -45t18 -62q0 -38 -21 -69t-58 -48.5t-82 -17.5q-46 0 -82 17.5t-59 43.5z" />
    <glyph glyph-name="agrave" unicode="&#xe0;" horiz-adv-x="559" 
d="M415 440h68v-440h-68v82q-19 -40 -62 -65t-98 -25q-57 0 -106 28t-78 79.5t-29 120.5q0 68 28.5 120t77 80t107.5 28q60 0 102.5 -25t57.5 -61v78zM411 217v10q0 41 -17 76t-50.5 56.5t-79.5 21.5q-65 0 -106 -42.5t-41 -117.5q0 -73 40 -117.5t105 -44.5q46 0 80 22.5
t51.5 59t17.5 76.5zM129 665l60 47l105 -147l-35 -29z" />
    <glyph glyph-name="aacute" unicode="&#xe1;" horiz-adv-x="559" 
d="M415 440h68v-440h-68v82q-19 -40 -62 -65t-98 -25q-57 0 -106 28t-78 79.5t-29 120.5q0 68 28.5 120t77 80t107.5 28q60 0 102.5 -25t57.5 -61v78zM411 217v10q0 41 -17 76t-50.5 56.5t-79.5 21.5q-65 0 -106 -42.5t-41 -117.5q0 -73 40 -117.5t105 -44.5q46 0 80 22.5
t51.5 59t17.5 76.5zM220 565l105 147l60 -47l-130 -129z" />
    <glyph glyph-name="acircumflex" unicode="&#xe2;" horiz-adv-x="559" 
d="M415 440h68v-440h-68v82q-19 -40 -62 -65t-98 -25q-57 0 -106 28t-78 79.5t-29 120.5q0 68 28.5 120t77 80t107.5 28q60 0 102.5 -25t57.5 -61v78zM411 217v10q0 41 -17 76t-50.5 56.5t-79.5 21.5q-65 0 -106 -42.5t-41 -117.5q0 -73 40 -117.5t105 -44.5q46 0 80 22.5
t51.5 59t17.5 76.5zM312 673l96 -104l-25 -29l-116 76l-117 -76l-25 29l96 104h91z" />
    <glyph glyph-name="atilde" unicode="&#xe3;" horiz-adv-x="559" 
d="M415 440h68v-440h-68v82q-19 -40 -62 -65t-98 -25q-57 0 -106 28t-78 79.5t-29 120.5q0 68 28.5 120t77 80t107.5 28q60 0 102.5 -25t57.5 -61v78zM411 217v10q0 41 -17 76t-50.5 56.5t-79.5 21.5q-65 0 -106 -42.5t-41 -117.5q0 -73 40 -117.5t105 -44.5q46 0 80 22.5
t51.5 59t17.5 76.5zM252 599q-18 10 -29 14.5t-23 4.5q-19 0 -29 -12.5t-10 -33.5h-50q0 54 22.5 80t61.5 26q21 0 35.5 -6t33.5 -18q19 -11 31.5 -16.5t30.5 -5.5q46 0 46 46h50q0 -51 -23.5 -78.5t-65.5 -27.5q-23 0 -41 7t-40 20z" />
    <glyph glyph-name="adieresis" unicode="&#xe4;" horiz-adv-x="559" 
d="M415 440h68v-440h-68v82q-19 -40 -62 -65t-98 -25q-57 0 -106 28t-78 79.5t-29 120.5q0 68 28.5 120t77 80t107.5 28q60 0 102.5 -25t57.5 -61v78zM411 217v10q0 41 -17 76t-50.5 56.5t-79.5 21.5q-65 0 -106 -42.5t-41 -117.5q0 -73 40 -117.5t105 -44.5q46 0 80 22.5
t51.5 59t17.5 76.5zM115 597q0 19 14 31.5t34 12.5t33 -12.5t13 -31.5t-13.5 -32.5t-32.5 -13.5q-20 0 -34 13.5t-14 32.5zM323 597q0 19 14 31.5t34 12.5t33 -12.5t13 -31.5t-13.5 -32.5t-32.5 -13.5q-20 0 -34 13.5t-14 32.5z" />
    <glyph glyph-name="aring" unicode="&#xe5;" horiz-adv-x="559" 
d="M415 440h68v-440h-68v82q-19 -40 -62 -65t-98 -25q-57 0 -106 28t-78 79.5t-29 120.5q0 68 28.5 120t77 80t107.5 28q60 0 102.5 -25t57.5 -61v78zM411 217v10q0 41 -17 76t-50.5 56.5t-79.5 21.5q-65 0 -106 -42.5t-41 -117.5q0 -73 40 -117.5t105 -44.5q46 0 80 22.5
t51.5 59t17.5 76.5zM168 635q0 41 28 68t71 27t71 -27t28 -68t-28 -68.5t-71 -27.5t-71 27.5t-28 68.5zM317 635q0 24 -13.5 38t-36.5 14t-36.5 -14t-13.5 -38t13.5 -38t36.5 -14t36.5 14t13.5 38z" />
    <glyph glyph-name="ae" unicode="&#xe6;" horiz-adv-x="739" 
d="M709 206h-315q4 -69 38 -109t89 -40q36 0 68 16.5t52 45.5l47 -43q-25 -41 -68.5 -62.5t-94.5 -21.5q-54 0 -97 26.5t-68 74.5q-24 -51 -67 -76t-97 -25q-72 0 -117.5 37.5t-45.5 100.5q0 58 40 97.5t119 39.5h133q-4 53 -38 81t-84 28q-38 0 -66 -17.5t-49 -50.5l-37 57
q66 81 161 81q49 0 90.5 -21.5t62.5 -69.5q27 45 69.5 69t92.5 24q55 0 96.5 -29t63.5 -75.5t22 -96.5v-41zM399 267h241q-4 50 -35.5 83t-78.5 33q-46 0 -81 -31.5t-46 -84.5zM325 206h-127q-48 0 -70.5 -21t-22.5 -52q0 -35 27 -55.5t68 -20.5q58 0 90.5 40t34.5 109z" />
    <glyph glyph-name="ccedilla" unicode="&#xe7;" horiz-adv-x="459" 
d="M446 68q-26 -31 -65 -51t-88 -24v-49q45 -4 65.5 -26t20.5 -52q0 -39 -30 -60t-76 -21q-33 0 -57 10.5t-34 27.5l28 32q9 -11 25 -18.5t37 -7.5q47 0 47 38q0 37 -58 37h-8v89q-64 3 -111.5 34t-73.5 82t-26 113q0 69 30 120t82 78.5t116 27.5q50 0 94.5 -17t74.5 -48
l-42 -56q-22 26 -55 41t-71 15q-67 0 -112 -43.5t-45 -116.5q0 -48 21 -86t58 -59t83 -21q39 0 71.5 15t53.5 41z" />
    <glyph glyph-name="egrave" unicode="&#xe8;" horiz-adv-x="509" 
d="M479 206h-364q4 -68 48.5 -108.5t110.5 -40.5q42 0 78.5 16.5t58.5 45.5l47 -43q-31 -41 -81 -62.5t-107 -21.5q-65 0 -117 28t-81.5 79.5t-29.5 120.5q0 71 31 122.5t82.5 78.5t111.5 27q65 0 113 -31t73.5 -81t25.5 -105v-25zM119 267h285q-10 51 -50 83.5t-94 32.5
q-52 0 -90.5 -31t-50.5 -85zM123 665l60 47l105 -147l-35 -29z" />
    <glyph glyph-name="eacute" unicode="&#xe9;" horiz-adv-x="509" 
d="M479 206h-364q4 -68 48.5 -108.5t110.5 -40.5q42 0 78.5 16.5t58.5 45.5l47 -43q-31 -41 -81 -62.5t-107 -21.5q-65 0 -117 28t-81.5 79.5t-29.5 120.5q0 71 31 122.5t82.5 78.5t111.5 27q65 0 113 -31t73.5 -81t25.5 -105v-25zM119 267h285q-10 51 -50 83.5t-94 32.5
q-52 0 -90.5 -31t-50.5 -85zM214 565l105 147l60 -47l-130 -129z" />
    <glyph glyph-name="ecircumflex" unicode="&#xea;" horiz-adv-x="509" 
d="M479 206h-364q4 -68 48.5 -108.5t110.5 -40.5q42 0 78.5 16.5t58.5 45.5l47 -43q-31 -41 -81 -62.5t-107 -21.5q-65 0 -117 28t-81.5 79.5t-29.5 120.5q0 71 31 122.5t82.5 78.5t111.5 27q65 0 113 -31t73.5 -81t25.5 -105v-25zM119 267h285q-10 51 -50 83.5t-94 32.5
q-52 0 -90.5 -31t-50.5 -85zM306 673l96 -104l-25 -29l-116 76l-117 -76l-25 29l96 104h91z" />
    <glyph glyph-name="edieresis" unicode="&#xeb;" horiz-adv-x="509" 
d="M479 206h-364q4 -68 48.5 -108.5t110.5 -40.5q42 0 78.5 16.5t58.5 45.5l47 -43q-31 -41 -81 -62.5t-107 -21.5q-65 0 -117 28t-81.5 79.5t-29.5 120.5q0 71 31 122.5t82.5 78.5t111.5 27q65 0 113 -31t73.5 -81t25.5 -105v-25zM119 267h285q-10 51 -50 83.5t-94 32.5
q-52 0 -90.5 -31t-50.5 -85zM109 597q0 19 14 31.5t34 12.5t33 -12.5t13 -31.5t-13.5 -32.5t-32.5 -13.5q-20 0 -34 13.5t-14 32.5zM317 597q0 19 14 31.5t34 12.5t33 -12.5t13 -31.5t-13.5 -32.5t-32.5 -13.5q-20 0 -34 13.5t-14 32.5z" />
    <glyph glyph-name="igrave" unicode="&#xec;" horiz-adv-x="242" 
d="M157 0h-72v440h72v-440zM-17 665l60 47l105 -147l-35 -29z" />
    <glyph glyph-name="iacute" unicode="&#xed;" horiz-adv-x="242" 
d="M157 0h-72v440h72v-440zM74 565l105 147l60 -47l-130 -129z" />
    <glyph glyph-name="icircumflex" unicode="&#xee;" horiz-adv-x="242" 
d="M157 0h-72v440h72v-440zM166 673l96 -104l-25 -29l-116 76l-117 -76l-25 29l96 104h91z" />
    <glyph glyph-name="idieresis" unicode="&#xef;" horiz-adv-x="242" 
d="M16 601q0 18 13 30t32 12q18 0 31 -12t13 -30t-13 -30.5t-31 -12.5q-19 0 -32 12.5t-13 30.5zM144 601q0 18 13 30t32 12q18 0 31 -12t13 -30t-13 -30.5t-31 -12.5q-19 0 -32 12.5t-13 30.5zM157 0h-72v440h72v-440z" />
    <glyph glyph-name="eth" unicode="&#xf0;" horiz-adv-x="523" 
d="M367 576q53 -66 83.5 -149.5t30.5 -177.5q0 -135 -61.5 -196t-154.5 -61q-65 0 -115.5 28t-79 80t-28.5 122t29.5 121t78.5 78t108 27q77 0 132 -52q-25 82 -82 150l-152 -78l-25 49l138 70q-51 48 -117 82l33 41q76 -28 144 -92l94 48l25 -49zM409 218q0 75 -41 120
t-105 45q-44 0 -78 -21.5t-52.5 -58.5t-18.5 -81q0 -46 19.5 -83.5t54.5 -59.5t79 -22q63 0 102.5 44t39.5 117z" />
    <glyph glyph-name="ntilde" unicode="&#xf1;" horiz-adv-x="521" 
d="M454 272v-272h-72v256q0 60 -30.5 90t-78.5 30q-57 0 -91.5 -42t-34.5 -108v-226h-72v440h68v-72q20 34 59.5 56t87.5 22q72 0 118 -47t46 -127zM261 599q-18 10 -29 14.5t-23 4.5q-19 0 -29 -12.5t-10 -33.5h-50q0 54 22.5 80t61.5 26q21 0 35.5 -6t33.5 -18
q19 -11 31.5 -16.5t30.5 -5.5q46 0 46 46h50q0 -51 -23.5 -78.5t-65.5 -27.5q-23 0 -41 7t-40 20z" />
    <glyph glyph-name="ograve" unicode="&#xf2;" horiz-adv-x="533" 
d="M42 222q0 64 29.5 115.5t80.5 81t115 29.5t115 -29.5t80 -81t29 -115.5q0 -65 -29.5 -117.5t-80.5 -82.5t-114 -30t-114.5 30.5t-81 83t-29.5 116.5zM419 222q0 72 -42 116.5t-110 44.5t-110.5 -44.5t-42.5 -116.5q0 -73 43 -119t110 -46t109.5 46t42.5 119zM127 665
l60 47l105 -147l-35 -29z" />
    <glyph glyph-name="oacute" unicode="&#xf3;" horiz-adv-x="533" 
d="M42 222q0 64 29.5 115.5t80.5 81t115 29.5t115 -29.5t80 -81t29 -115.5q0 -65 -29.5 -117.5t-80.5 -82.5t-114 -30t-114.5 30.5t-81 83t-29.5 116.5zM419 222q0 72 -42 116.5t-110 44.5t-110.5 -44.5t-42.5 -116.5q0 -73 43 -119t110 -46t109.5 46t42.5 119zM218 565
l105 147l60 -47l-130 -129z" />
    <glyph glyph-name="ocircumflex" unicode="&#xf4;" horiz-adv-x="533" 
d="M42 222q0 64 29.5 115.5t80.5 81t115 29.5t115 -29.5t80 -81t29 -115.5q0 -65 -29.5 -117.5t-80.5 -82.5t-114 -30t-114.5 30.5t-81 83t-29.5 116.5zM419 222q0 72 -42 116.5t-110 44.5t-110.5 -44.5t-42.5 -116.5q0 -73 43 -119t110 -46t109.5 46t42.5 119zM310 673
l96 -104l-25 -29l-116 76l-117 -76l-25 29l96 104h91z" />
    <glyph glyph-name="otilde" unicode="&#xf5;" horiz-adv-x="533" 
d="M42 222q0 64 29.5 115.5t80.5 81t115 29.5t115 -29.5t80 -81t29 -115.5q0 -65 -29.5 -117.5t-80.5 -82.5t-114 -30t-114.5 30.5t-81 83t-29.5 116.5zM419 222q0 72 -42 116.5t-110 44.5t-110.5 -44.5t-42.5 -116.5q0 -73 43 -119t110 -46t109.5 46t42.5 119zM250 599
q-18 10 -29 14.5t-23 4.5q-19 0 -29 -12.5t-10 -33.5h-50q0 54 22.5 80t61.5 26q21 0 35.5 -6t33.5 -18q19 -11 31.5 -16.5t30.5 -5.5q46 0 46 46h50q0 -51 -23.5 -78.5t-65.5 -27.5q-23 0 -41 7t-40 20z" />
    <glyph glyph-name="odieresis" unicode="&#xf6;" horiz-adv-x="533" 
d="M42 222q0 64 29.5 115.5t80.5 81t115 29.5t115 -29.5t80 -81t29 -115.5q0 -65 -29.5 -117.5t-80.5 -82.5t-114 -30t-114.5 30.5t-81 83t-29.5 116.5zM419 222q0 72 -42 116.5t-110 44.5t-110.5 -44.5t-42.5 -116.5q0 -73 43 -119t110 -46t109.5 46t42.5 119zM113 597
q0 19 14 31.5t34 12.5t33 -12.5t13 -31.5t-13.5 -32.5t-32.5 -13.5q-20 0 -34 13.5t-14 32.5zM321 597q0 19 14 31.5t34 12.5t33 -12.5t13 -31.5t-13.5 -32.5t-32.5 -13.5q-20 0 -34 13.5t-14 32.5z" />
    <glyph glyph-name="divide" unicode="&#xf7;" horiz-adv-x="620" 
d="M262 519q0 19 14.5 32t34.5 13t33.5 -13t13.5 -32t-13.5 -33t-33.5 -14t-34.5 14t-14.5 33zM262 174q0 19 14.5 32t34.5 13t33.5 -13t13.5 -32t-13.5 -33t-33.5 -14t-34.5 14t-14.5 33zM100 383h420v-65h-420v65z" />
    <glyph glyph-name="oslash" unicode="&#xf8;" horiz-adv-x="528" 
d="M445 365q47 -61 47 -143q0 -65 -29.5 -117.5t-80.5 -82.5t-114 -30q-82 0 -144 51l-48 -48l-36 36l49 49q-46 62 -46 142q0 64 29.5 115.5t80.5 81t115 29.5q81 0 141 -47l43 43l36 -36zM115 222q0 -53 23 -93l224 224q-39 30 -94 30q-68 0 -110.5 -44.5t-42.5 -116.5z
M420 222q0 53 -24 93l-225 -225q41 -33 97 -33q67 0 109.5 46t42.5 119z" />
    <glyph glyph-name="ugrave" unicode="&#xf9;" horiz-adv-x="515" 
d="M368 440h72v-440h-68v70q-19 -34 -56 -55t-88 -21q-74 0 -117.5 49t-43.5 145v252h72v-236q0 -73 24.5 -107.5t75.5 -34.5q61 0 95 42.5t34 109.5v226zM114 665l60 47l105 -147l-35 -29z" />
    <glyph glyph-name="uacute" unicode="&#xfa;" horiz-adv-x="515" 
d="M368 440h72v-440h-68v70q-19 -34 -56 -55t-88 -21q-74 0 -117.5 49t-43.5 145v252h72v-236q0 -73 24.5 -107.5t75.5 -34.5q61 0 95 42.5t34 109.5v226zM205 565l105 147l60 -47l-130 -129z" />
    <glyph glyph-name="ucircumflex" unicode="&#xfb;" horiz-adv-x="515" 
d="M368 440h72v-440h-68v70q-19 -34 -56 -55t-88 -21q-74 0 -117.5 49t-43.5 145v252h72v-236q0 -73 24.5 -107.5t75.5 -34.5q61 0 95 42.5t34 109.5v226zM297 673l96 -104l-25 -29l-116 76l-117 -76l-25 29l96 104h91z" />
    <glyph glyph-name="udieresis" unicode="&#xfc;" horiz-adv-x="515" 
d="M368 440h72v-440h-68v70q-19 -34 -56 -55t-88 -21q-74 0 -117.5 49t-43.5 145v252h72v-236q0 -73 24.5 -107.5t75.5 -34.5q61 0 95 42.5t34 109.5v226zM100 597q0 19 14 31.5t34 12.5t33 -12.5t13 -31.5t-13.5 -32.5t-32.5 -13.5q-20 0 -34 13.5t-14 32.5zM308 597
q0 19 14 31.5t34 12.5t33 -12.5t13 -31.5t-13.5 -32.5t-32.5 -13.5q-20 0 -34 13.5t-14 32.5z" />
    <glyph glyph-name="yacute" unicode="&#xfd;" horiz-adv-x="443" 
d="M232 102l127 338h70v-10l-252 -670h-70v10l89 236l-182 424v10h75zM176 565l105 147l60 -47l-130 -129z" />
    <glyph glyph-name="thorn" unicode="&#xfe;" horiz-adv-x="559" 
d="M517 220q0 -69 -29 -120.5t-78 -79.5t-106 -28q-53 0 -94 22.5t-62 59.5v-314h-72v940h72v-330q18 33 58.5 55.5t97.5 22.5q59 0 107.5 -28t77 -80t28.5 -120zM442 221q0 75 -41 117.5t-106 42.5q-46 0 -79.5 -21.5t-50.5 -56.5t-17 -76v-10q0 -40 17.5 -76.5t51.5 -59
t80 -22.5q65 0 105 44.5t40 117.5z" />
    <glyph glyph-name="ydieresis" unicode="&#xff;" horiz-adv-x="443" 
d="M232 102l127 338h70v-10l-252 -670h-70v10l89 236l-182 424v10h75zM71 597q0 19 14 31.5t34 12.5t33 -12.5t13 -31.5t-13.5 -32.5t-32.5 -13.5q-20 0 -34 13.5t-14 32.5zM279 597q0 19 14 31.5t34 12.5t33 -12.5t13 -31.5t-13.5 -32.5t-32.5 -13.5q-20 0 -34 13.5
t-14 32.5z" />
    <glyph glyph-name="Amacron" unicode="&#x100;" horiz-adv-x="634" 
d="M624 0h-83l-79 195h-293l-79 -195h-80l289 710h33zM315 557l-117 -290h235zM166 824h300v-61h-300v61z" />
    <glyph glyph-name="amacron" unicode="&#x101;" horiz-adv-x="559" 
d="M415 440h68v-440h-68v82q-19 -40 -62 -65t-98 -25q-57 0 -106 28t-78 79.5t-29 120.5q0 68 28.5 120t77 80t107.5 28q60 0 102.5 -25t57.5 -61v78zM411 217v10q0 41 -17 76t-50.5 56.5t-79.5 21.5q-65 0 -106 -42.5t-41 -117.5q0 -73 40 -117.5t105 -44.5q46 0 80 22.5
t51.5 59t17.5 76.5zM118 641h300v-61h-300v61z" />
    <glyph glyph-name="Abreve" unicode="&#x102;" horiz-adv-x="634" 
d="M624 0h-83l-79 195h-293l-79 -195h-80l289 710h33zM315 557l-117 -290h235zM163 859l47 25q42 -69 107 -69q35 0 63 18.5t41 50.5l47 -25q-16 -53 -55 -81t-96 -28q-58 0 -98 28.5t-56 80.5z" />
    <glyph glyph-name="abreve" unicode="&#x103;" horiz-adv-x="559" 
d="M415 440h68v-440h-68v82q-19 -40 -62 -65t-98 -25q-57 0 -106 28t-78 79.5t-29 120.5q0 68 28.5 120t77 80t107.5 28q60 0 102.5 -25t57.5 -61v78zM411 217v10q0 41 -17 76t-50.5 56.5t-79.5 21.5q-65 0 -106 -42.5t-41 -117.5q0 -73 40 -117.5t105 -44.5q46 0 80 22.5
t51.5 59t17.5 76.5zM119 648l43 27q18 -29 45.5 -47t59.5 -18t60 18t45 47l43 -27q-21 -46 -59 -72t-89 -26t-89 26t-59 72z" />
    <glyph glyph-name="Aogonek" unicode="&#x104;" horiz-adv-x="634" 
d="M629 -181v-49q-26 -13 -58 -13q-56 0 -85.5 30t-29.5 75q0 39 22.5 75.5t62.5 62.5l-79 195h-293l-79 -195h-80l289 710h33l292 -710q-40 -12 -70 -47.5t-30 -74.5q0 -29 18 -47t50 -18q18 0 37 6zM315 557l-117 -290h235z" />
    <glyph glyph-name="aogonek" unicode="&#x105;" horiz-adv-x="559" 
d="M484 -191v-39q-26 -13 -58 -13q-51 0 -78 28.5t-27 69.5q0 38 24.5 76t69.5 71v80q-19 -40 -62 -65t-98 -25q-57 0 -106 28t-78 79.5t-29 120.5q0 68 28.5 120t77 80t107.5 28q60 0 102.5 -25t57.5 -61v78h68v-440q-104 -67 -104 -130q0 -28 18 -47.5t50 -19.5q17 0 37 6
zM411 217v10q0 41 -17 76t-50.5 56.5t-79.5 21.5q-65 0 -106 -42.5t-41 -117.5q0 -73 40 -117.5t105 -44.5q46 0 80 22.5t51.5 59t17.5 76.5z" />
    <glyph glyph-name="Cacute" unicode="&#x106;" horiz-adv-x="673" 
d="M46 349q0 103 47.5 185.5t133 129t195.5 46.5q127 0 222 -63l-36 -65q-78 56 -178 56q-85 0 -154 -37.5t-108.5 -103.5t-39.5 -148q0 -81 39.5 -146.5t108.5 -103t156 -37.5q110 0 187 64l37 -59q-37 -34 -95 -55.5t-134 -21.5q-111 0 -197.5 46t-135 128t-48.5 185z
M322 775l115 116l65 -65l-140 -89z" />
    <glyph glyph-name="cacute" unicode="&#x107;" horiz-adv-x="459" 
d="M42 222q0 69 30 120t82 78.5t116 27.5q50 0 94.5 -17t74.5 -48l-42 -56q-22 26 -55 41t-71 15q-67 0 -112 -43.5t-45 -116.5q0 -48 21 -86t58 -59t83 -21q39 0 71.5 15t53.5 41l45 -45q-29 -35 -74 -55.5t-102 -20.5q-68 0 -120 30t-80 82.5t-28 117.5zM225 565l105 147
l60 -47l-130 -129z" />
    <glyph glyph-name="Ccircumflex" unicode="&#x108;" horiz-adv-x="673" 
d="M46 349q0 103 47.5 185.5t133 129t195.5 46.5q127 0 222 -63l-36 -65q-78 56 -178 56q-85 0 -154 -37.5t-108.5 -103.5t-39.5 -148q0 -81 39.5 -146.5t108.5 -103t156 -37.5q110 0 187 64l37 -59q-37 -34 -95 -55.5t-134 -21.5q-111 0 -197.5 46t-135 128t-48.5 185z
M453 870l98 -104l-26 -30l-121 69l-117 -69l-29 30l99 104h96z" />
    <glyph glyph-name="ccircumflex" unicode="&#x109;" horiz-adv-x="459" 
d="M42 222q0 69 30 120t82 78.5t116 27.5q50 0 94.5 -17t74.5 -48l-42 -56q-22 26 -55 41t-71 15q-67 0 -112 -43.5t-45 -116.5q0 -48 21 -86t58 -59t83 -21q39 0 71.5 15t53.5 41l45 -45q-29 -35 -74 -55.5t-102 -20.5q-68 0 -120 30t-80 82.5t-28 117.5zM317 673l96 -104
l-25 -29l-116 76l-117 -76l-25 29l96 104h91z" />
    <glyph glyph-name="Cdotaccent" unicode="&#x10a;" horiz-adv-x="673" 
d="M46 349q0 103 47.5 185.5t133 129t195.5 46.5q127 0 222 -63l-36 -65q-78 56 -178 56q-85 0 -154 -37.5t-108.5 -103.5t-39.5 -148q0 -81 39.5 -146.5t108.5 -103t156 -37.5q110 0 187 64l37 -59q-37 -34 -95 -55.5t-134 -21.5q-111 0 -197.5 46t-135 128t-48.5 185z
M350 806q0 22 15.5 36t38.5 14q22 0 37 -14t15 -36q0 -21 -15 -36t-37 -15t-38 15t-16 36z" />
    <glyph glyph-name="cdotaccent" unicode="&#x10b;" horiz-adv-x="459" 
d="M42 222q0 69 30 120t82 78.5t116 27.5q50 0 94.5 -17t74.5 -48l-42 -56q-22 26 -55 41t-71 15q-67 0 -112 -43.5t-45 -116.5q0 -48 21 -86t58 -59t83 -21q39 0 71.5 15t53.5 41l45 -45q-29 -35 -74 -55.5t-102 -20.5q-68 0 -120 30t-80 82.5t-28 117.5zM224 598
q0 19 14.5 32t34.5 13t33.5 -13t13.5 -32t-14 -33t-33 -14q-20 0 -34.5 14t-14.5 33z" />
    <glyph glyph-name="Ccaron" unicode="&#x10c;" horiz-adv-x="673" 
d="M46 349q0 103 47.5 185.5t133 129t195.5 46.5q127 0 222 -63l-36 -65q-78 56 -178 56q-85 0 -154 -37.5t-108.5 -103.5t-39.5 -148q0 -81 39.5 -146.5t108.5 -103t156 -37.5q110 0 187 64l37 -59q-37 -34 -95 -55.5t-134 -21.5q-111 0 -197.5 46t-135 128t-48.5 185z
M404 801l121 76l26 -30l-98 -104h-96l-99 104l29 30z" />
    <glyph glyph-name="ccaron" unicode="&#x10d;" horiz-adv-x="459" 
d="M42 222q0 69 30 120t82 78.5t116 27.5q50 0 94.5 -17t74.5 -48l-42 -56q-22 26 -55 41t-71 15q-67 0 -112 -43.5t-45 -116.5q0 -48 21 -86t58 -59t83 -21q39 0 71.5 15t53.5 41l45 -45q-29 -35 -74 -55.5t-102 -20.5q-68 0 -120 30t-80 82.5t-28 117.5zM271 608l116 76
l25 -29l-96 -104h-91l-96 104l25 29z" />
    <glyph glyph-name="Dcaron" unicode="&#x10e;" horiz-adv-x="708" 
d="M662 357q0 -117 -51 -197.5t-135.5 -120t-186.5 -39.5h-187v700h187q119 0 203 -42t127 -119t43 -182zM281 74q142 0 220.5 73.5t78.5 201.5q0 130 -80 203.5t-219 73.5h-99v-552h99zM350 801l121 76l26 -30l-98 -104h-96l-99 104l29 30z" />
    <glyph glyph-name="dcaron" unicode="&#x10f;" horiz-adv-x="558" 
d="M411 700h72v-700h-68v82q-19 -40 -62 -65t-98 -25q-57 0 -106 28t-78 79.5t-29 120.5q0 68 28.5 120t77 80t107.5 28q57 0 97.5 -22.5t58.5 -55.5v330zM411 217v10q0 41 -17 76t-50.5 56.5t-79.5 21.5q-65 0 -106 -42.5t-41 -117.5q0 -73 40 -117.5t105 -44.5
q46 0 80 22.5t51.5 59t17.5 76.5zM592 514l-46 -1v197l76 -10z" />
    <glyph glyph-name="Dcroat" unicode="&#x110;" horiz-adv-x="736" 
d="M691 357q0 -117 -51 -197.5t-135.5 -120t-186.5 -39.5h-187v340h-122v70h122v290h187q119 0 203 -42t127 -119t43 -182zM310 74q142 0 220.5 73.5t78.5 201.5q0 130 -80 203.5t-219 73.5h-99v-216h165v-70h-165v-266h99z" />
    <glyph glyph-name="dcroat" unicode="&#x111;" horiz-adv-x="573" 
d="M558 591v-65h-75v-526h-68v82q-19 -40 -62 -65t-98 -25q-57 0 -106 28t-78 79.5t-29 120.5q0 68 28.5 120t77 80t107.5 28q57 0 97.5 -22.5t58.5 -55.5v156h-180v65h180v109h72v-109h75zM411 217v10q0 41 -17 76t-50.5 56.5t-79.5 21.5q-65 0 -106 -42.5t-41 -117.5
q0 -73 40 -117.5t105 -44.5q46 0 80 22.5t51.5 59t17.5 76.5z" />
    <glyph glyph-name="Emacron" unicode="&#x112;" horiz-adv-x="542" 
d="M477 0h-375v700h365v-74h-285v-214h236v-74h-236v-264h295v-74zM138 824h300v-61h-300v61z" />
    <glyph glyph-name="emacron" unicode="&#x113;" horiz-adv-x="509" 
d="M479 206h-364q4 -68 48.5 -108.5t110.5 -40.5q42 0 78.5 16.5t58.5 45.5l47 -43q-31 -41 -81 -62.5t-107 -21.5q-65 0 -117 28t-81.5 79.5t-29.5 120.5q0 71 31 122.5t82.5 78.5t111.5 27q65 0 113 -31t73.5 -81t25.5 -105v-25zM119 267h285q-10 51 -50 83.5t-94 32.5
q-52 0 -90.5 -31t-50.5 -85zM112 641h300v-61h-300v61z" />
    <glyph glyph-name="Ebreve" unicode="&#x114;" horiz-adv-x="542" 
d="M477 0h-375v700h365v-74h-285v-214h236v-74h-236v-264h295v-74zM135 859l47 25q42 -69 107 -69q35 0 63 18.5t41 50.5l47 -25q-16 -53 -55 -81t-96 -28q-58 0 -98 28.5t-56 80.5z" />
    <glyph glyph-name="ebreve" unicode="&#x115;" horiz-adv-x="509" 
d="M479 206h-364q4 -68 48.5 -108.5t110.5 -40.5q42 0 78.5 16.5t58.5 45.5l47 -43q-31 -41 -81 -62.5t-107 -21.5q-65 0 -117 28t-81.5 79.5t-29.5 120.5q0 71 31 122.5t82.5 78.5t111.5 27q65 0 113 -31t73.5 -81t25.5 -105v-25zM119 267h285q-10 51 -50 83.5t-94 32.5
q-52 0 -90.5 -31t-50.5 -85zM113 648l43 27q18 -29 45.5 -47t59.5 -18t60 18t45 47l43 -27q-21 -46 -59 -72t-89 -26t-89 26t-59 72z" />
    <glyph glyph-name="Edotaccent" unicode="&#x116;" horiz-adv-x="542" 
d="M477 0h-375v700h365v-74h-285v-214h236v-74h-236v-264h295v-74zM234 806q0 22 15.5 36t38.5 14q22 0 37 -14t15 -36q0 -21 -15 -36t-37 -15t-38 15t-16 36z" />
    <glyph glyph-name="edotaccent" unicode="&#x117;" horiz-adv-x="509" 
d="M479 206h-364q4 -68 48.5 -108.5t110.5 -40.5q42 0 78.5 16.5t58.5 45.5l47 -43q-31 -41 -81 -62.5t-107 -21.5q-65 0 -117 28t-81.5 79.5t-29.5 120.5q0 71 31 122.5t82.5 78.5t111.5 27q65 0 113 -31t73.5 -81t25.5 -105v-25zM119 267h285q-10 51 -50 83.5t-94 32.5
q-52 0 -90.5 -31t-50.5 -85zM213 598q0 19 14.5 32t34.5 13t33.5 -13t13.5 -32t-14 -33t-33 -14q-20 0 -34.5 14t-14.5 33z" />
    <glyph glyph-name="Eogonek" unicode="&#x118;" horiz-adv-x="542" 
d="M482 -181v-49q-26 -13 -58 -13q-56 0 -85.5 30t-29.5 75q0 39 22 75.5t62 62.5h-291v700h365v-74h-285v-214h236v-74h-236v-264h295v-74q-40 -12 -70 -47.5t-30 -74.5q0 -29 18 -47t50 -18q18 0 37 6z" />
    <glyph glyph-name="eogonek" unicode="&#x119;" horiz-adv-x="509" 
d="M479 206h-364q4 -68 48.5 -108.5t110.5 -40.5q42 0 78.5 16.5t58.5 45.5l47 -43l-1 -1h1l-4 -4q-7 -9 -17 -18q-83 -94 -83 -171q0 -36 18 -57.5t50 -21.5q17 0 37 6v-39q-26 -13 -58 -13q-52 0 -78.5 29.5t-26.5 76.5q0 71 55 141q-39 -12 -81 -12q-65 0 -117 28
t-81.5 79.5t-29.5 120.5q0 71 31 122.5t82.5 78.5t111.5 27q65 0 113 -31t73.5 -81t25.5 -105v-25zM119 267h285q-10 51 -50 83.5t-94 32.5q-52 0 -90.5 -31t-50.5 -85z" />
    <glyph glyph-name="Ecaron" unicode="&#x11a;" horiz-adv-x="542" 
d="M477 0h-375v700h365v-74h-285v-214h236v-74h-236v-264h295v-74zM288 801l121 76l26 -30l-98 -104h-96l-99 104l29 30z" />
    <glyph glyph-name="ecaron" unicode="&#x11b;" horiz-adv-x="509" 
d="M479 206h-364q4 -68 48.5 -108.5t110.5 -40.5q42 0 78.5 16.5t58.5 45.5l47 -43q-31 -41 -81 -62.5t-107 -21.5q-65 0 -117 28t-81.5 79.5t-29.5 120.5q0 71 31 122.5t82.5 78.5t111.5 27q65 0 113 -31t73.5 -81t25.5 -105v-25zM119 267h285q-10 51 -50 83.5t-94 32.5
q-52 0 -90.5 -31t-50.5 -85zM260 608l116 76l25 -29l-96 -104h-91l-96 104l25 29z" />
    <glyph glyph-name="Gcircumflex" unicode="&#x11c;" horiz-adv-x="801" 
d="M405 354h352q0 -117 -42 -198.5t-118.5 -123.5t-178.5 -42q-111 0 -195.5 47t-130.5 128.5t-46 182.5q0 97 43 179.5t127 132.5t202 50q80 0 152.5 -24.5t128.5 -79.5l-52 -62q-46 50 -107.5 72t-126.5 22q-87 0 -152 -41t-99 -107.5t-34 -142.5q0 -80 37.5 -145
t105 -102.5t152.5 -37.5q102 0 171.5 55.5t87.5 162.5h-277v74zM452 870l98 -104l-26 -30l-121 69l-117 -69l-29 30l99 104h96z" />
    <glyph glyph-name="gcircumflex" unicode="&#x11d;" horiz-adv-x="558" 
d="M415 440h68v-457q0 -74 -31 -125t-83.5 -76.5t-115.5 -25.5q-114 0 -184 84l46 53q57 -69 142 -69q73 0 113.5 46t40.5 132v72q-21 -37 -62 -59.5t-94 -22.5q-57 0 -106 28t-78 79.5t-29 120.5q0 68 28.5 120t77 80t107.5 28q60 0 102.5 -25t57.5 -61v78zM411 217v10
q0 41 -17 76t-50.5 56.5t-79.5 21.5q-65 0 -106 -42.5t-41 -117.5q0 -73 40 -117.5t105 -44.5q46 0 80 22.5t51.5 59t17.5 76.5zM324 673l96 -104l-25 -29l-116 76l-117 -76l-25 29l96 104h91z" />
    <glyph glyph-name="Gbreve" unicode="&#x11e;" horiz-adv-x="801" 
d="M405 354h352q0 -117 -42 -198.5t-118.5 -123.5t-178.5 -42q-111 0 -195.5 47t-130.5 128.5t-46 182.5q0 97 43 179.5t127 132.5t202 50q80 0 152.5 -24.5t128.5 -79.5l-52 -62q-46 50 -107.5 72t-126.5 22q-87 0 -152 -41t-99 -107.5t-34 -142.5q0 -80 37.5 -145
t105 -102.5t152.5 -37.5q102 0 171.5 55.5t87.5 162.5h-277v74zM250 859l47 25q42 -69 107 -69q35 0 63 18.5t41 50.5l47 -25q-16 -53 -55 -81t-96 -28q-58 0 -98 28.5t-56 80.5z" />
    <glyph glyph-name="gbreve" unicode="&#x11f;" horiz-adv-x="558" 
d="M415 440h68v-457q0 -74 -31 -125t-83.5 -76.5t-115.5 -25.5q-114 0 -184 84l46 53q57 -69 142 -69q73 0 113.5 46t40.5 132v72q-21 -37 -62 -59.5t-94 -22.5q-57 0 -106 28t-78 79.5t-29 120.5q0 68 28.5 120t77 80t107.5 28q60 0 102.5 -25t57.5 -61v78zM411 217v10
q0 41 -17 76t-50.5 56.5t-79.5 21.5q-65 0 -106 -42.5t-41 -117.5q0 -73 40 -117.5t105 -44.5q46 0 80 22.5t51.5 59t17.5 76.5zM131 648l43 27q18 -29 45.5 -47t59.5 -18t60 18t45 47l43 -27q-21 -46 -59 -72t-89 -26t-89 26t-59 72z" />
    <glyph glyph-name="Gdotaccent" unicode="&#x120;" horiz-adv-x="801" 
d="M405 354h352q0 -117 -42 -198.5t-118.5 -123.5t-178.5 -42q-111 0 -195.5 47t-130.5 128.5t-46 182.5q0 97 43 179.5t127 132.5t202 50q80 0 152.5 -24.5t128.5 -79.5l-52 -62q-46 50 -107.5 72t-126.5 22q-87 0 -152 -41t-99 -107.5t-34 -142.5q0 -80 37.5 -145
t105 -102.5t152.5 -37.5q102 0 171.5 55.5t87.5 162.5h-277v74zM349 806q0 22 15.5 36t38.5 14q22 0 37 -14t15 -36q0 -21 -15 -36t-37 -15t-38 15t-16 36z" />
    <glyph glyph-name="gdotaccent" unicode="&#x121;" horiz-adv-x="558" 
d="M415 440h68v-457q0 -74 -31 -125t-83.5 -76.5t-115.5 -25.5q-114 0 -184 84l46 53q57 -69 142 -69q73 0 113.5 46t40.5 132v72q-21 -37 -62 -59.5t-94 -22.5q-57 0 -106 28t-78 79.5t-29 120.5q0 68 28.5 120t77 80t107.5 28q60 0 102.5 -25t57.5 -61v78zM411 217v10
q0 41 -17 76t-50.5 56.5t-79.5 21.5q-65 0 -106 -42.5t-41 -117.5q0 -73 40 -117.5t105 -44.5q46 0 80 22.5t51.5 59t17.5 76.5zM231 598q0 19 14.5 32t34.5 13t33.5 -13t13.5 -32t-14 -33t-33 -14q-20 0 -34.5 14t-14.5 33z" />
    <glyph glyph-name="uni0122" unicode="&#x122;" horiz-adv-x="801" 
d="M405 354h352q0 -117 -42 -198.5t-118.5 -123.5t-178.5 -42q-111 0 -195.5 47t-130.5 128.5t-46 182.5q0 97 43 179.5t127 132.5t202 50q80 0 152.5 -24.5t128.5 -79.5l-52 -62q-46 50 -107.5 72t-126.5 22q-87 0 -152 -41t-99 -107.5t-34 -142.5q0 -80 37.5 -145
t105 -102.5t152.5 -37.5q102 0 171.5 55.5t87.5 162.5h-277v74zM414 -123q-21 3 -32 14t-11 27q0 19 15 30.5t35 11.5q24 0 38.5 -14t14.5 -39q0 -15 -11 -36t-36 -61l-37 -57h-55z" />
    <glyph glyph-name="uni0123" unicode="&#x123;" horiz-adv-x="558" 
d="M415 440h68v-457q0 -74 -31 -125t-83.5 -76.5t-115.5 -25.5q-114 0 -184 84l46 53q57 -69 142 -69q73 0 113.5 46t40.5 132v72q-21 -37 -62 -59.5t-94 -22.5q-57 0 -106 28t-78 79.5t-29 120.5q0 68 28.5 120t77 80t107.5 28q60 0 102.5 -25t57.5 -61v78zM411 217v10
q0 41 -17 76t-50.5 56.5t-79.5 21.5q-65 0 -106 -42.5t-41 -117.5q0 -73 40 -117.5t105 -44.5q46 0 80 22.5t51.5 59t17.5 76.5zM281 630q22 -3 34 -16t12 -31q0 -22 -16 -36t-38 -14q-26 0 -41.5 16.5t-15.5 45.5q0 18 11.5 43t38.5 70l40 67h60z" />
    <glyph glyph-name="Hcircumflex" unicode="&#x124;" horiz-adv-x="736" 
d="M554 412v288h80v-700h-80v338h-372v-338h-80v700h80v-288h372zM417 870l98 -104l-26 -30l-121 69l-117 -69l-29 30l99 104h96z" />
    <glyph glyph-name="hcircumflex" unicode="&#x125;" horiz-adv-x="521" 
d="M454 272v-272h-72v256q0 60 -30.5 90t-78.5 30q-57 0 -91.5 -42t-34.5 -108v-226h-72v700h72v-325q21 31 59 51t84 20q72 0 118 -47t46 -127zM159 870l98 -104l-26 -30l-121 69l-117 -69l-29 30l99 104h96z" />
    <glyph glyph-name="Hbar" unicode="&#x126;" horiz-adv-x="736" 
d="M634 580h78v-70h-78v-510h-80v338h-372v-338h-80v510h-78v70h78v120h80v-120h372v120h80v-120zM182 412h372v98h-372v-98z" />
    <glyph glyph-name="hbar" unicode="&#x127;" horiz-adv-x="536" 
d="M469 272v-272h-72v256q0 60 -30.5 90t-78.5 30q-57 0 -91.5 -42t-34.5 -108v-226h-72v526h-75v65h75v109h72v-109h180v-65h-180v-151q21 31 59 51t84 20q72 0 118 -47t46 -127z" />
    <glyph glyph-name="Itilde" unicode="&#x128;" horiz-adv-x="284" 
d="M6 753q0 57 17 81.5t52 24.5q18 0 30.5 -5t29.5 -14q16 -9 26 -13.5t25 -4.5q19 0 27 9t8 28h56q0 -54 -19.5 -80t-63.5 -26q-23 0 -39 6t-32 17q-8 5 -17 9.5t-18 4.5q-26 0 -26 -37h-56zM102 700h80v-700h-80v700z" />
    <glyph glyph-name="itilde" unicode="&#x129;" horiz-adv-x="242" 
d="M106 599q-18 10 -29 14.5t-23 4.5q-19 0 -29 -12.5t-10 -33.5h-50q0 54 22.5 80t61.5 26q21 0 35.5 -6t33.5 -18q19 -11 31.5 -16.5t30.5 -5.5q46 0 46 46h50q0 -51 -23.5 -78.5t-65.5 -27.5q-23 0 -41 7t-40 20zM157 0h-72v440h72v-440z" />
    <glyph glyph-name="Imacron" unicode="&#x12a;" horiz-adv-x="284" 
d="M35 801h214v-61h-214v61zM102 700h80v-700h-80v700z" />
    <glyph glyph-name="imacron" unicode="&#x12b;" horiz-adv-x="242" 
d="M157 0h-72v440h72v-440zM-28 641h300v-61h-300v61z" />
    <glyph glyph-name="Ibreve" unicode="&#x12c;" horiz-adv-x="284" 
d="M102 700h80v-700h-80v700zM-11 859l47 25q42 -69 107 -69q35 0 63 18.5t41 50.5l47 -25q-16 -53 -55 -81t-96 -28q-58 0 -98 28.5t-56 80.5z" />
    <glyph glyph-name="ibreve" unicode="&#x12d;" horiz-adv-x="242" 
d="M157 0h-72v440h72v-440zM-27 648l43 27q18 -29 45.5 -47t59.5 -18t60 18t45 47l43 -27q-21 -46 -59 -72t-89 -26t-89 26t-59 72z" />
    <glyph glyph-name="Iogonek" unicode="&#x12e;" horiz-adv-x="284" 
d="M187 -181v-49q-26 -13 -58 -13q-56 0 -85.5 30t-29.5 75q0 40 23 77t65 63v698h80v-700q-40 -12 -70 -47.5t-30 -74.5q0 -29 18 -47t50 -18q18 0 37 6z" />
    <glyph glyph-name="iogonek" unicode="&#x12f;" horiz-adv-x="242" 
d="M73 598q0 19 14.5 32t34.5 13t33.5 -13t13.5 -32t-13.5 -33t-33.5 -14t-34.5 14t-14.5 33zM121 -197q17 0 37 6v-39q-26 -13 -58 -13q-51 0 -78 28.5t-27 69.5q0 37 23.5 74.5t67.5 70.5h-1v440h72v-440q-104 -67 -104 -130q0 -28 18 -47.5t50 -19.5z" />
    <glyph glyph-name="Idotaccent" unicode="&#x130;" horiz-adv-x="284" 
d="M102 700h80v-700h-80v700zM88 806q0 22 15.5 36t38.5 14q22 0 37 -14t15 -36q0 -21 -15 -36t-37 -15t-38 15t-16 36z" />
    <glyph glyph-name="dotlessi" unicode="&#x131;" horiz-adv-x="242" 
d="M157 0h-72v440h72v-440z" />
    <glyph glyph-name="Jcircumflex" unicode="&#x134;" horiz-adv-x="341" 
d="M20 1v70q18 -6 42 -6q56 0 81.5 31t25.5 97v507h80v-514q0 -97 -47.5 -144t-135.5 -47q-26 0 -46 6zM258 870l98 -104l-26 -30l-121 69l-117 -69l-29 30l99 104h96z" />
    <glyph glyph-name="jcircumflex" unicode="&#x135;" horiz-adv-x="238" 
d="M-2 -245v65q6 -1 18 -1q76 0 75 93v528h72v-518q0 -84 -35 -126t-114 -42q-11 0 -16 1zM172 673l96 -104l-25 -29l-116 76l-117 -76l-25 29l96 104h91z" />
    <glyph glyph-name="uni0136" unicode="&#x136;" horiz-adv-x="631" 
d="M535 680l-240 -305l319 -355v-20h-88l-298 334h-46v-334h-80v700h80v-298h45l229 298h79v-20zM336 -123q-21 3 -32 14t-11 27q0 19 15 30.5t35 11.5q24 0 38.5 -14t14.5 -39q0 -15 -11 -36t-36 -61l-37 -57h-55z" />
    <glyph glyph-name="uni0137" unicode="&#x137;" horiz-adv-x="440" 
d="M395 430l-158 -192l198 -228v-10h-83l-177 205h-28v-205h-72v700h72v-434h34l137 174h77v-10zM293 -93q0 -15 -11 -37t-35 -60l-37 -57h-56l80 125q-21 1 -32.5 12.5t-11.5 27.5q0 19 15 30.5t35 11.5q24 0 38.5 -14t14.5 -39z" />
    <glyph glyph-name="Lacute" unicode="&#x139;" horiz-adv-x="488" 
d="M182 700v-623h275v-77h-355v700h80zM61 775l115 116l65 -65l-140 -89z" />
    <glyph glyph-name="lacute" unicode="&#x13a;" horiz-adv-x="222" 
d="M147 0h-72v700h72v-700zM30 775l115 116l65 -65l-140 -89z" />
    <glyph glyph-name="uni013B" unicode="&#x13b;" horiz-adv-x="488" 
d="M182 700v-623h275v-77h-355v700h80zM273 -123q-21 3 -32 14t-11 27q0 19 15 30.5t35 11.5q24 0 38.5 -14t14.5 -39q0 -15 -11 -36t-36 -61l-37 -57h-55z" />
    <glyph glyph-name="uni013C" unicode="&#x13c;" horiz-adv-x="222" 
d="M147 0h-72v700h72v-700zM163 -93q0 -15 -11 -37t-35 -60l-37 -57h-56l80 125q-21 1 -32.5 12.5t-11.5 27.5q0 19 15 30.5t35 11.5q24 0 38.5 -14t14.5 -39z" />
    <glyph glyph-name="Lcaron" unicode="&#x13d;" horiz-adv-x="488" 
d="M182 700v-623h275v-77h-355v700h80zM299 514l-46 -1v197l76 -10z" />
    <glyph glyph-name="lcaron" unicode="&#x13e;" horiz-adv-x="222" 
d="M147 0h-72v700h72v-700zM256 514l-46 -1v197l76 -10z" />
    <glyph glyph-name="Ldot" unicode="&#x13f;" horiz-adv-x="488" 
d="M182 700v-623h275v-77h-355v700h80zM280 387q0 19 10.5 30.5t30.5 11.5t31 -11.5t11 -30.5q0 -17 -11 -28.5t-31 -11.5q-19 0 -30 11.5t-11 28.5z" />
    <glyph glyph-name="ldot" unicode="&#x140;" horiz-adv-x="284" 
d="M147 0h-72v700h72v-700zM210 262q0 19 10.5 30.5t30.5 11.5t31 -11.5t11 -30.5q0 -17 -11 -28.5t-31 -11.5q-19 0 -30 11.5t-11 28.5z" />
    <glyph glyph-name="Lslash" unicode="&#x141;" horiz-adv-x="504" 
d="M198 296v-219h275v-77h-355v226l-77 -68v76l77 68v398h80v-328l192 168v-75z" />
    <glyph glyph-name="lslash" unicode="&#x142;" horiz-adv-x="264" 
d="M164 424l80 69v-75l-80 -70v-348h-72v285l-75 -65v76l75 65v339h72v-276z" />
    <glyph glyph-name="Nacute" unicode="&#x143;" horiz-adv-x="749" 
d="M567 177v523h80v-700h-42l-423 538v-538h-80v700h55zM293 775l115 116l65 -65l-140 -89z" />
    <glyph glyph-name="nacute" unicode="&#x144;" horiz-adv-x="521" 
d="M454 272v-272h-72v256q0 60 -30.5 90t-78.5 30q-57 0 -91.5 -42t-34.5 -108v-226h-72v440h68v-72q20 34 59.5 56t87.5 22q72 0 118 -47t46 -127zM229 565l105 147l60 -47l-130 -129z" />
    <glyph glyph-name="uni0145" unicode="&#x145;" horiz-adv-x="749" 
d="M567 177v523h80v-700h-42l-423 538v-538h-80v700h55zM375 -123q-21 3 -32 14t-11 27q0 19 15 30.5t35 11.5q24 0 38.5 -14t14.5 -39q0 -15 -11 -36t-36 -61l-37 -57h-55z" />
    <glyph glyph-name="uni0146" unicode="&#x146;" horiz-adv-x="521" 
d="M454 272v-272h-72v256q0 60 -30.5 90t-78.5 30q-57 0 -91.5 -42t-34.5 -108v-226h-72v440h68v-72q20 34 59.5 56t87.5 22q72 0 118 -47t46 -127zM322 -93q0 -15 -11 -37t-35 -60l-37 -57h-56l80 125q-21 1 -32.5 12.5t-11.5 27.5q0 19 15 30.5t35 11.5q24 0 38.5 -14
t14.5 -39z" />
    <glyph glyph-name="Ncaron" unicode="&#x147;" horiz-adv-x="749" 
d="M567 177v523h80v-700h-42l-423 538v-538h-80v700h55zM375 801l121 76l26 -30l-98 -104h-96l-99 104l29 30z" />
    <glyph glyph-name="ncaron" unicode="&#x148;" horiz-adv-x="521" 
d="M454 272v-272h-72v256q0 60 -30.5 90t-78.5 30q-57 0 -91.5 -42t-34.5 -108v-226h-72v440h68v-72q20 34 59.5 56t87.5 22q72 0 118 -47t46 -127zM275 608l116 76l25 -29l-96 -104h-91l-96 104l25 29z" />
    <glyph glyph-name="Eng" unicode="&#x14a;" horiz-adv-x="749" 
d="M567 700h80v-719q0 -97 -47.5 -144t-135.5 -47q-26 0 -46 6v70q18 -6 42 -6q56 0 81.5 31t25.5 97v61l-385 488v-537h-80v700h55l410 -522v522z" />
    <glyph glyph-name="eng" unicode="&#x14b;" horiz-adv-x="521" 
d="M289 -245v65q6 -1 18 -1q75 0 75 93v344q0 60 -30.5 90t-78.5 30q-57 0 -91.5 -42t-34.5 -108v-226h-72v440h68v-72q20 34 59.5 56t87.5 22q72 0 118 -47t46 -127v-350q0 -84 -35 -126t-114 -42q-11 0 -16 1z" />
    <glyph glyph-name="Omacron" unicode="&#x14c;" horiz-adv-x="808" 
d="M46 351q0 102 44.5 184t126 128.5t187.5 46.5t187.5 -47t126 -129t44.5 -185q0 -102 -44.5 -184t-126 -128.5t-187.5 -46.5t-187.5 47t-126 129t-44.5 185zM680 350q0 81 -36 147t-99 103.5t-141 37.5t-141 -37.5t-99 -103.5t-36 -147t36 -147t99 -103.5t141 -37.5
t141 37.5t99 103.5t36 147zM254 824h300v-61h-300v61z" />
    <glyph glyph-name="omacron" unicode="&#x14d;" horiz-adv-x="533" 
d="M42 222q0 64 29.5 115.5t80.5 81t115 29.5t115 -29.5t80 -81t29 -115.5q0 -65 -29.5 -117.5t-80.5 -82.5t-114 -30t-114.5 30.5t-81 83t-29.5 116.5zM419 222q0 72 -42 116.5t-110 44.5t-110.5 -44.5t-42.5 -116.5q0 -73 43 -119t110 -46t109.5 46t42.5 119zM116 641h300
v-61h-300v61z" />
    <glyph glyph-name="Obreve" unicode="&#x14e;" horiz-adv-x="808" 
d="M46 351q0 102 44.5 184t126 128.5t187.5 46.5t187.5 -47t126 -129t44.5 -185q0 -102 -44.5 -184t-126 -128.5t-187.5 -46.5t-187.5 47t-126 129t-44.5 185zM680 350q0 81 -36 147t-99 103.5t-141 37.5t-141 -37.5t-99 -103.5t-36 -147t36 -147t99 -103.5t141 -37.5
t141 37.5t99 103.5t36 147zM251 859l47 25q42 -69 107 -69q35 0 63 18.5t41 50.5l47 -25q-16 -53 -55 -81t-96 -28q-58 0 -98 28.5t-56 80.5z" />
    <glyph glyph-name="obreve" unicode="&#x14f;" horiz-adv-x="533" 
d="M42 222q0 64 29.5 115.5t80.5 81t115 29.5t115 -29.5t80 -81t29 -115.5q0 -65 -29.5 -117.5t-80.5 -82.5t-114 -30t-114.5 30.5t-81 83t-29.5 116.5zM419 222q0 72 -42 116.5t-110 44.5t-110.5 -44.5t-42.5 -116.5q0 -73 43 -119t110 -46t109.5 46t42.5 119zM117 648
l43 27q18 -29 45.5 -47t59.5 -18t60 18t45 47l43 -27q-21 -46 -59 -72t-89 -26t-89 26t-59 72z" />
    <glyph glyph-name="Ohungarumlaut" unicode="&#x150;" horiz-adv-x="808" 
d="M46 351q0 102 44.5 184t126 128.5t187.5 46.5t187.5 -47t126 -129t44.5 -185q0 -102 -44.5 -184t-126 -128.5t-187.5 -46.5t-187.5 47t-126 129t-44.5 185zM680 350q0 81 -36 147t-99 103.5t-141 37.5t-141 -37.5t-99 -103.5t-36 -147t36 -147t99 -103.5t141 -37.5
t141 37.5t99 103.5t36 147zM283 758l61 121l80 -54l-91 -90zM446 765l91 104l62 -62l-112 -72z" />
    <glyph glyph-name="ohungarumlaut" unicode="&#x151;" horiz-adv-x="533" 
d="M42 222q0 64 29.5 115.5t80.5 81t115 29.5t115 -29.5t80 -81t29 -115.5q0 -65 -29.5 -117.5t-80.5 -82.5t-114 -30t-114.5 30.5t-81 83t-29.5 116.5zM419 222q0 72 -42 116.5t-110 44.5t-110.5 -44.5t-42.5 -116.5q0 -73 43 -119t110 -46t109.5 46t42.5 119zM143 556
l70 167l69 -32l-98 -155zM299 565l105 147l60 -47l-130 -129z" />
    <glyph glyph-name="OE" unicode="&#x152;" horiz-adv-x="906" 
d="M419 0q-119 0 -203 42t-127 119t-43 182q0 117 51 197.5t135.5 120t186.5 39.5h412v-74h-297v-214h248v-74h-248v-264h307v-74h-422zM454 74v552h-27q-142 0 -220.5 -73.5t-78.5 -201.5q0 -130 80 -203.5t219 -73.5h27z" />
    <glyph glyph-name="oe" unicode="&#x153;" horiz-adv-x="809" 
d="M779 206h-327q4 -69 41.5 -109t92.5 -40q38 0 71.5 16.5t53.5 45.5l47 -43q-28 -41 -74 -62.5t-98 -21.5q-57 0 -101.5 27.5t-68.5 78.5q-22 -48 -67.5 -77t-103.5 -29q-59 0 -105 28t-72 79.5t-26 120.5q0 105 55.5 166.5t148.5 61.5q60 0 104 -26t67 -71q54 97 167 97
q62 0 106.5 -32t66.5 -83.5t22 -107.5v-19zM455 267h250q-8 51 -41 83.5t-80 32.5q-55 0 -87.5 -30.5t-41.5 -85.5zM380 222q0 75 -30 117t-92 42q-67 0 -104 -41.5t-37 -115.5q0 -78 34 -122.5t106 -44.5q60 0 91.5 46t31.5 119z" />
    <glyph glyph-name="Racute" unicode="&#x154;" horiz-adv-x="595" 
d="M585 21v-21h-87l-240 286h-76v-286h-80v700h195q67 0 118 -27t78.5 -74t27.5 -104q0 -75 -45.5 -131t-122.5 -72zM182 626v-266h105q71 0 111.5 38t40.5 96t-40.5 95t-111.5 37h-105zM219 775l115 116l65 -65l-140 -89z" />
    <glyph glyph-name="racute" unicode="&#x155;" horiz-adv-x="308" 
d="M292 443v-72q-27 5 -49 5q-58 0 -77 -35.5t-19 -106.5v-234h-72v440h68v-59q33 65 110 65q23 0 39 -3zM128 565l105 147l60 -47l-130 -129z" />
    <glyph glyph-name="uni0156" unicode="&#x156;" horiz-adv-x="595" 
d="M585 21v-21h-87l-240 286h-76v-286h-80v700h195q67 0 118 -27t78.5 -74t27.5 -104q0 -75 -45.5 -131t-122.5 -72zM182 626v-266h105q71 0 111.5 38t40.5 96t-40.5 95t-111.5 37h-105zM314 -123q-21 3 -32 14t-11 27q0 19 15 30.5t35 11.5q24 0 38.5 -14t14.5 -39
q0 -15 -11 -36t-36 -61l-37 -57h-55z" />
    <glyph glyph-name="uni0157" unicode="&#x157;" horiz-adv-x="308" 
d="M292 443v-72q-27 5 -49 5q-58 0 -77 -35.5t-19 -106.5v-234h-72v440h68v-59q33 65 110 65q23 0 39 -3zM163 -93q0 -15 -11 -37t-35 -60l-37 -57h-56l80 125q-21 1 -32.5 12.5t-11.5 27.5q0 19 15 30.5t35 11.5q24 0 38.5 -14t14.5 -39z" />
    <glyph glyph-name="Rcaron" unicode="&#x158;" horiz-adv-x="595" 
d="M585 21v-21h-87l-240 286h-76v-286h-80v700h195q67 0 118 -27t78.5 -74t27.5 -104q0 -75 -45.5 -131t-122.5 -72zM182 626v-266h105q71 0 111.5 38t40.5 96t-40.5 95t-111.5 37h-105zM301 801l121 76l26 -30l-98 -104h-96l-99 104l29 30z" />
    <glyph glyph-name="rcaron" unicode="&#x159;" horiz-adv-x="308" 
d="M292 443v-72q-27 5 -49 5q-58 0 -77 -35.5t-19 -106.5v-234h-72v440h68v-59q33 65 110 65q23 0 39 -3zM174 608l116 76l25 -29l-96 -104h-91l-96 104l25 29z" />
    <glyph glyph-name="Sacute" unicode="&#x15a;" horiz-adv-x="556" 
d="M48 90l56 63q34 -44 76 -67.5t99 -23.5q70 0 108 35t38 92q0 44 -22 72.5t-55 45.5t-87 37q-60 23 -96 42.5t-61 54t-25 88.5q0 82 57 131t152 49q63 0 111 -22t81 -60l-50 -55q-49 65 -144 65q-60 0 -93.5 -26.5t-33.5 -72.5q0 -35 19.5 -58t48 -37.5t78.5 -32.5
q64 -24 104 -45.5t68 -61.5t28 -104q0 -66 -31 -113.5t-85 -71.5t-121 -24q-131 0 -220 100zM187 775l115 116l65 -65l-140 -89z" />
    <glyph glyph-name="sacute" unicode="&#x15b;" horiz-adv-x="440" 
d="M40 63l40 52q54 -60 136 -60q45 0 73.5 18t28.5 50q0 31 -26 46t-82 31q-47 13 -75.5 25t-48.5 36t-20 63q0 61 47 93.5t119 32.5q50 0 84.5 -15.5t61.5 -41.5l-42 -54q-20 23 -44.5 34.5t-60.5 11.5q-43 0 -68 -15.5t-25 -40.5q0 -29 24.5 -42t77.5 -26q47 -12 77 -24
t51.5 -37.5t21.5 -69.5q0 -67 -49.5 -103.5t-123.5 -36.5q-104 0 -177 73zM182 565l105 147l60 -47l-130 -129z" />
    <glyph glyph-name="Scircumflex" unicode="&#x15c;" horiz-adv-x="556" 
d="M48 90l56 63q34 -44 76 -67.5t99 -23.5q70 0 108 35t38 92q0 44 -22 72.5t-55 45.5t-87 37q-60 23 -96 42.5t-61 54t-25 88.5q0 82 57 131t152 49q63 0 111 -22t81 -60l-50 -55q-49 65 -144 65q-60 0 -93.5 -26.5t-33.5 -72.5q0 -35 19.5 -58t48 -37.5t78.5 -32.5
q64 -24 104 -45.5t68 -61.5t28 -104q0 -66 -31 -113.5t-85 -71.5t-121 -24q-131 0 -220 100zM318 870l98 -104l-26 -30l-121 69l-117 -69l-29 30l99 104h96z" />
    <glyph glyph-name="scircumflex" unicode="&#x15d;" horiz-adv-x="440" 
d="M40 63l40 52q54 -60 136 -60q45 0 73.5 18t28.5 50q0 31 -26 46t-82 31q-47 13 -75.5 25t-48.5 36t-20 63q0 61 47 93.5t119 32.5q50 0 84.5 -15.5t61.5 -41.5l-42 -54q-20 23 -44.5 34.5t-60.5 11.5q-43 0 -68 -15.5t-25 -40.5q0 -29 24.5 -42t77.5 -26q47 -12 77 -24
t51.5 -37.5t21.5 -69.5q0 -67 -49.5 -103.5t-123.5 -36.5q-104 0 -177 73zM274 673l96 -104l-25 -29l-116 76l-117 -76l-25 29l96 104h91z" />
    <glyph glyph-name="Scedilla" unicode="&#x15e;" horiz-adv-x="556" 
d="M295 -9v-47q46 -4 67.5 -27t21.5 -56q0 -42 -32 -65t-81 -23q-33 0 -57 10.5t-34 27.5l28 32q32 -23 62 -23q23 0 37 12t14 32q0 40 -58 40h-19v87q-114 8 -196 99l56 63q34 -44 76 -67.5t99 -23.5q70 0 108 35t38 92q0 44 -22 72.5t-55 45.5t-87 37q-60 23 -96 42.5
t-61 54t-25 88.5q0 82 57 131t152 49q63 0 111 -22t81 -60l-50 -55q-49 65 -144 65q-60 0 -93.5 -26.5t-33.5 -72.5q0 -35 19.5 -58t48 -37.5t78.5 -32.5q64 -24 104 -45.5t68 -61.5t28 -104q0 -93 -58.5 -147t-151.5 -61z" />
    <glyph glyph-name="scedilla" unicode="&#x15f;" horiz-adv-x="440" 
d="M238 -9v-47q45 -4 65.5 -26t20.5 -52q0 -39 -30 -60t-76 -21q-33 0 -57 10.5t-34 27.5l28 32q9 -11 25 -18.5t37 -7.5q47 0 47 38q0 37 -58 37h-8v87q-92 6 -158 72l40 52q54 -60 136 -60q45 0 73.5 18t28.5 50q0 31 -26 46t-82 31q-47 13 -75.5 25t-48.5 36t-20 63
q0 61 47 93.5t119 32.5q50 0 84.5 -15.5t61.5 -41.5l-42 -54q-20 23 -44.5 34.5t-60.5 11.5q-43 0 -68 -15.5t-25 -40.5q0 -29 24.5 -42t77.5 -26q47 -12 77 -24t51.5 -37.5t21.5 -69.5q0 -62 -42.5 -98t-109.5 -41z" />
    <glyph glyph-name="Scaron" unicode="&#x160;" horiz-adv-x="556" 
d="M48 90l56 63q34 -44 76 -67.5t99 -23.5q70 0 108 35t38 92q0 44 -22 72.5t-55 45.5t-87 37q-60 23 -96 42.5t-61 54t-25 88.5q0 82 57 131t152 49q63 0 111 -22t81 -60l-50 -55q-49 65 -144 65q-60 0 -93.5 -26.5t-33.5 -72.5q0 -35 19.5 -58t48 -37.5t78.5 -32.5
q64 -24 104 -45.5t68 -61.5t28 -104q0 -66 -31 -113.5t-85 -71.5t-121 -24q-131 0 -220 100zM269 801l121 76l26 -30l-98 -104h-96l-99 104l29 30z" />
    <glyph glyph-name="scaron" unicode="&#x161;" horiz-adv-x="440" 
d="M40 63l40 52q54 -60 136 -60q45 0 73.5 18t28.5 50q0 31 -26 46t-82 31q-47 13 -75.5 25t-48.5 36t-20 63q0 61 47 93.5t119 32.5q50 0 84.5 -15.5t61.5 -41.5l-42 -54q-20 23 -44.5 34.5t-60.5 11.5q-43 0 -68 -15.5t-25 -40.5q0 -29 24.5 -42t77.5 -26q47 -12 77 -24
t51.5 -37.5t21.5 -69.5q0 -67 -49.5 -103.5t-123.5 -36.5q-104 0 -177 73zM228 608l116 76l25 -29l-96 -104h-91l-96 104l25 29z" />
    <glyph glyph-name="uni0162" unicode="&#x162;" horiz-adv-x="478" 
d="M279 0h-16v-56q46 -4 67.5 -27t21.5 -56q0 -42 -32 -65t-81 -23q-33 0 -57 10.5t-34 27.5l28 32q32 -23 62 -23q23 0 37 12t14 32q0 40 -58 40h-19v96h-13v626h-184v74h448v-74h-184v-626z" />
    <glyph glyph-name="uni0163" unicode="&#x163;" horiz-adv-x="299" 
d="M189 -2v-54q45 -4 65.5 -26t20.5 -52q0 -39 -30 -60t-76 -21q-33 0 -57 10.5t-34 27.5l28 32q9 -11 25 -18.5t37 -7.5q47 0 47 38q0 37 -58 37h-8v106h1q-31 15 -45.5 47t-14.5 85v233h-75v65h75v160h72v-160h113v-65h-113v-223q0 -45 15.5 -68.5t61.5 -23.5q19 0 40 3
v-64q-25 -4 -51 -4q-21 0 -39 3z" />
    <glyph glyph-name="Tcaron" unicode="&#x164;" horiz-adv-x="478" 
d="M279 0h-80v626h-184v74h448v-74h-184v-626zM239 801l121 76l26 -30l-98 -104h-96l-99 104l29 30z" />
    <glyph glyph-name="tcaron" unicode="&#x165;" horiz-adv-x="299" 
d="M279 63v-64q-25 -4 -51 -4q-72 0 -105 34.5t-33 112.5v233h-75v65h75v160h72v-160h113v-65h-113v-223q0 -45 15.5 -68.5t61.5 -23.5q19 0 40 3zM288 514l-46 -1v197l76 -10z" />
    <glyph glyph-name="Tbar" unicode="&#x166;" horiz-adv-x="478" 
d="M463 700v-74h-184v-216h184v-70h-184v-340h-80v340h-183v70h183v216h-184v74h448z" />
    <glyph glyph-name="tbar" unicode="&#x167;" horiz-adv-x="299" 
d="M279 375h-117v-109h117v-65h-117v-49q0 -45 15.5 -68.5t61.5 -23.5q19 0 40 3v-64q-25 -4 -51 -4q-72 0 -105 34.5t-33 112.5v59h-75v65h75v109h-75v65h75v160h72v-160h117v-65z" />
    <glyph glyph-name="Utilde" unicode="&#x168;" horiz-adv-x="700" 
d="M92 269v431h80v-425q0 -101 47 -156.5t131 -56.5q84 1 131 56.5t47 156.5v425h80v-431q0 -131 -68 -205t-190 -74t-190 75t-68 204zM332 774q-13 6 -26.5 11t-25.5 5q-18 0 -25.5 -9.5t-7.5 -27.5h-56q0 106 87 106q20 0 34.5 -5t31.5 -14t30.5 -13.5t31.5 -4.5
q22 0 31 9t9 28h56q0 -51 -24 -78.5t-69 -27.5q-21 0 -37.5 5t-39.5 16z" />
    <glyph glyph-name="utilde" unicode="&#x169;" horiz-adv-x="515" 
d="M368 440h72v-440h-68v70q-19 -34 -56 -55t-88 -21q-74 0 -117.5 49t-43.5 145v252h72v-236q0 -73 24.5 -107.5t75.5 -34.5q61 0 95 42.5t34 109.5v226zM237 599q-18 10 -29 14.5t-23 4.5q-19 0 -29 -12.5t-10 -33.5h-50q0 54 22.5 80t61.5 26q21 0 35.5 -6t33.5 -18
q19 -11 31.5 -16.5t30.5 -5.5q46 0 46 46h50q0 -51 -23.5 -78.5t-65.5 -27.5q-23 0 -41 7t-40 20z" />
    <glyph glyph-name="Umacron" unicode="&#x16a;" horiz-adv-x="700" 
d="M92 269v431h80v-425q0 -101 47 -156.5t131 -56.5q84 1 131 56.5t47 156.5v425h80v-431q0 -131 -68 -205t-190 -74t-190 75t-68 204zM200 824h300v-61h-300v61z" />
    <glyph glyph-name="umacron" unicode="&#x16b;" horiz-adv-x="515" 
d="M368 440h72v-440h-68v70q-19 -34 -56 -55t-88 -21q-74 0 -117.5 49t-43.5 145v252h72v-236q0 -73 24.5 -107.5t75.5 -34.5q61 0 95 42.5t34 109.5v226zM103 641h300v-61h-300v61z" />
    <glyph glyph-name="Ubreve" unicode="&#x16c;" horiz-adv-x="700" 
d="M92 269v431h80v-425q0 -101 47 -156.5t131 -56.5q84 1 131 56.5t47 156.5v425h80v-431q0 -131 -68 -205t-190 -74t-190 75t-68 204zM197 859l47 25q42 -69 107 -69q35 0 63 18.5t41 50.5l47 -25q-16 -53 -55 -81t-96 -28q-58 0 -98 28.5t-56 80.5z" />
    <glyph glyph-name="ubreve" unicode="&#x16d;" horiz-adv-x="515" 
d="M368 440h72v-440h-68v70q-19 -34 -56 -55t-88 -21q-74 0 -117.5 49t-43.5 145v252h72v-236q0 -73 24.5 -107.5t75.5 -34.5q61 0 95 42.5t34 109.5v226zM104 648l43 27q18 -29 45.5 -47t59.5 -18t60 18t45 47l43 -27q-21 -46 -59 -72t-89 -26t-89 26t-59 72z" />
    <glyph glyph-name="Uring" unicode="&#x16e;" horiz-adv-x="700" 
d="M92 269v431h80v-425q0 -101 47 -156.5t131 -56.5q84 1 131 56.5t47 156.5v425h80v-431q0 -131 -68 -205t-190 -74t-190 75t-68 204zM234 819q0 39 31 59.5t85 20.5t84.5 -20.5t30.5 -59.5t-30.5 -59.5t-84.5 -20.5t-85 20.5t-31 59.5zM400 819q0 35 -50 35q-51 0 -51 -35
t51 -35q50 0 50 35z" />
    <glyph glyph-name="uring" unicode="&#x16f;" horiz-adv-x="515" 
d="M368 440h72v-440h-68v70q-19 -34 -56 -55t-88 -21q-74 0 -117.5 49t-43.5 145v252h72v-236q0 -73 24.5 -107.5t75.5 -34.5q61 0 95 42.5t34 109.5v226zM153 635q0 41 28 68t71 27t71 -27t28 -68t-28 -68.5t-71 -27.5t-71 27.5t-28 68.5zM302 635q0 24 -13.5 38t-36.5 14
t-36.5 -14t-13.5 -38t13.5 -38t36.5 -14t36.5 14t13.5 38z" />
    <glyph glyph-name="Uhungarumlaut" unicode="&#x170;" horiz-adv-x="700" 
d="M92 269v431h80v-425q0 -101 47 -156.5t131 -56.5q84 1 131 56.5t47 156.5v425h80v-431q0 -131 -68 -205t-190 -74t-190 75t-68 204zM229 758l61 121l80 -54l-91 -90zM392 765l91 104l62 -62l-112 -72z" />
    <glyph glyph-name="uhungarumlaut" unicode="&#x171;" horiz-adv-x="515" 
d="M368 440h72v-440h-68v70q-19 -34 -56 -55t-88 -21q-74 0 -117.5 49t-43.5 145v252h72v-236q0 -73 24.5 -107.5t75.5 -34.5q61 0 95 42.5t34 109.5v226zM130 556l70 167l69 -32l-98 -155zM286 565l105 147l60 -47l-130 -129z" />
    <glyph glyph-name="Uogonek" unicode="&#x172;" horiz-adv-x="700" 
d="M608 700v-431q0 -117 -53 -187v-3q-58 -74 -81.5 -117.5t-23.5 -86.5q0 -62 56 -62q25 0 49 7v-50q-23 -13 -64 -13q-52 0 -80.5 26t-28.5 70q0 57 60 150q-40 -13 -92 -13q-122 0 -190 75t-68 204v431h80v-425q0 -101 47 -156.5t131 -56.5q84 1 131 56.5t47 156.5v425
h80z" />
    <glyph glyph-name="uogonek" unicode="&#x173;" horiz-adv-x="515" 
d="M441 -191v-39q-26 -13 -58 -13q-51 0 -78 28.5t-27 69.5q0 38 24.5 76t69.5 71v68q-19 -34 -56 -55t-88 -21q-74 0 -117.5 49t-43.5 145v252h72v-236q0 -73 24.5 -107.5t75.5 -34.5q61 0 95 42.5t34 109.5v226h72v-440q-104 -67 -104 -130q0 -28 18 -47.5t50 -19.5
q18 0 37 6z" />
    <glyph glyph-name="Wcircumflex" unicode="&#x174;" horiz-adv-x="879" 
d="M635 192l141 508h74v-20l-194 -690h-29l-188 536l-193 -536h-29l-188 690v20h77l140 -510l181 510h27zM488 870l98 -104l-26 -30l-121 69l-117 -69l-29 30l99 104h96z" />
    <glyph glyph-name="wcircumflex" unicode="&#x175;" horiz-adv-x="622" 
d="M441 145l91 295h65v-10l-134 -434h-35l-115 293l-116 -293h-38l-134 434v10h72l92 -296l114 296h25zM358 673l96 -104l-25 -29l-116 76l-117 -76l-25 29l96 104h91z" />
    <glyph glyph-name="Ycircumflex" unicode="&#x176;" horiz-adv-x="556" 
d="M461 700h78v-20l-217 -368v-312h-80v311l-225 369v20h80l185 -309zM330 870l98 -104l-26 -30l-121 69l-117 -69l-29 30l99 104h96z" />
    <glyph glyph-name="ycircumflex" unicode="&#x177;" horiz-adv-x="443" 
d="M232 102l127 338h70v-10l-252 -670h-70v10l89 236l-182 424v10h75zM268 673l96 -104l-25 -29l-116 76l-117 -76l-25 29l96 104h91z" />
    <glyph glyph-name="Ydieresis" unicode="&#x178;" horiz-adv-x="556" 
d="M461 700h78v-20l-217 -368v-312h-80v311l-225 369v20h80l185 -309zM125 806q0 22 15.5 36t38.5 14q22 0 37 -14t15 -36q0 -21 -15 -36t-37 -15t-38 15t-16 36zM330 806q0 22 15.5 36t38.5 14q22 0 37 -14t15 -36q0 -21 -15 -36t-37 -15t-38 15t-16 36z" />
    <glyph glyph-name="Zacute" unicode="&#x179;" horiz-adv-x="537" 
d="M42 700h465v-50l-381 -576h374v-74h-475v59l376 567h-359v74zM193 775l115 116l65 -65l-140 -89z" />
    <glyph glyph-name="zacute" unicode="&#x17a;" horiz-adv-x="423" 
d="M389 0h-354v31l251 344h-245v65h352v-31l-252 -344h248v-65zM168 565l105 147l60 -47l-130 -129z" />
    <glyph glyph-name="Zdotaccent" unicode="&#x17b;" horiz-adv-x="537" 
d="M42 700h465v-50l-381 -576h374v-74h-475v59l376 567h-359v74zM221 806q0 22 15.5 36t38.5 14q22 0 37 -14t15 -36q0 -21 -15 -36t-37 -15t-38 15t-16 36z" />
    <glyph glyph-name="zdotaccent" unicode="&#x17c;" horiz-adv-x="423" 
d="M389 0h-354v31l251 344h-245v65h352v-31l-252 -344h248v-65zM167 598q0 19 14.5 32t34.5 13t33.5 -13t13.5 -32t-14 -33t-33 -14q-20 0 -34.5 14t-14.5 33z" />
    <glyph glyph-name="Zcaron" unicode="&#x17d;" horiz-adv-x="537" 
d="M42 700h465v-50l-381 -576h374v-74h-475v59l376 567h-359v74zM275 801l121 76l26 -30l-98 -104h-96l-99 104l29 30z" />
    <glyph glyph-name="zcaron" unicode="&#x17e;" horiz-adv-x="423" 
d="M389 0h-354v31l251 344h-245v65h352v-31l-252 -344h248v-65zM214 608l116 76l25 -29l-96 -104h-91l-96 104l25 29z" />
    <glyph glyph-name="uni018F" unicode="&#x18f;" horiz-adv-x="787" 
d="M740 346q0 -102 -42.5 -183t-122.5 -127t-187 -46q-97 0 -174.5 38t-122 112t-44.5 178v82h607q-10 69 -45 123.5t-92.5 86t-132.5 31.5q-60 0 -116.5 -22t-98.5 -72l-52 62q99 104 264 104q114 0 195.5 -49.5t122.5 -133t41 -184.5zM657 326h-530v-9q0 -76 32 -134
t90.5 -89.5t137.5 -31.5t138.5 34t93.5 94t38 136z" />
    <glyph glyph-name="uni01DD" unicode="&#x1dd;" horiz-adv-x="497" 
d="M455 222q0 -106 -59 -168t-160 -62q-97 0 -151.5 58.5t-54.5 161.5v40h351q-8 63 -48 97t-103 34q-83 0 -147 -56l-30 59q37 32 78 47t94 15q108 0 169 -59.5t61 -166.5zM381 191h-279q3 -62 39.5 -98t96.5 -36t97.5 35.5t45.5 98.5z" />
    <glyph glyph-name="uni0218" unicode="&#x218;" horiz-adv-x="556" 
d="M48 90l56 63q34 -44 76 -67.5t99 -23.5q70 0 108 35t38 92q0 44 -22 72.5t-55 45.5t-87 37q-60 23 -96 42.5t-61 54t-25 88.5q0 82 57 131t152 49q63 0 111 -22t81 -60l-50 -55q-49 65 -144 65q-60 0 -93.5 -26.5t-33.5 -72.5q0 -35 19.5 -58t48 -37.5t78.5 -32.5
q64 -24 104 -45.5t68 -61.5t28 -104q0 -66 -31 -113.5t-85 -71.5t-121 -24q-131 0 -220 100zM264 -123q-21 3 -32 14t-11 27q0 19 15 30.5t35 11.5q24 0 38.5 -14t14.5 -39q0 -15 -11 -36t-36 -61l-37 -57h-55z" />
    <glyph glyph-name="uni0219" unicode="&#x219;" horiz-adv-x="440" 
d="M40 63l40 52q54 -60 136 -60q45 0 73.5 18t28.5 50q0 31 -26 46t-82 31q-47 13 -75.5 25t-48.5 36t-20 63q0 61 47 93.5t119 32.5q50 0 84.5 -15.5t61.5 -41.5l-42 -54q-20 23 -44.5 34.5t-60.5 11.5q-43 0 -68 -15.5t-25 -40.5q0 -29 24.5 -42t77.5 -26q47 -12 77 -24
t51.5 -37.5t21.5 -69.5q0 -67 -49.5 -103.5t-123.5 -36.5q-104 0 -177 73zM270 -93q0 -15 -11 -37t-35 -60l-37 -57h-56l80 125q-21 1 -32.5 12.5t-11.5 27.5q0 19 15 30.5t35 11.5q24 0 38.5 -14t14.5 -39z" />
    <glyph glyph-name="uni021A" unicode="&#x21a;" horiz-adv-x="478" 
d="M279 0h-80v626h-184v74h448v-74h-184v-626zM232 -123q-21 3 -32 14t-11 27q0 19 15 30.5t35 11.5q24 0 38.5 -14t14.5 -39q0 -15 -11 -36t-36 -61l-37 -57h-55z" />
    <glyph glyph-name="uni021B" unicode="&#x21b;" horiz-adv-x="299" 
d="M279 63v-64q-25 -4 -51 -4q-72 0 -105 34.5t-33 112.5v233h-75v65h75v160h72v-160h113v-65h-113v-223q0 -45 15.5 -68.5t61.5 -23.5q19 0 40 3zM221 -93q0 -15 -11 -37t-35 -60l-37 -57h-56l80 125q-21 1 -32.5 12.5t-11.5 27.5q0 19 15 30.5t35 11.5q24 0 38.5 -14
t14.5 -39z" />
    <glyph glyph-name="uni0237" unicode="&#x237;" horiz-adv-x="238" 
d="M-2 -245v65q6 -1 18 -1q76 0 75 93v528h72v-518q0 -84 -35 -126t-114 -42q-11 0 -16 1z" />
    <glyph glyph-name="uni0259" unicode="&#x259;" horiz-adv-x="497" 
d="M455 222q0 -106 -59 -168t-160 -62q-97 0 -151.5 58.5t-54.5 161.5v40h351q-8 63 -48 97t-103 34q-83 0 -147 -56l-30 59q37 32 78 47t94 15q108 0 169 -59.5t61 -166.5zM381 191h-279q3 -62 39.5 -98t96.5 -36t97.5 35.5t45.5 98.5z" />
    <glyph glyph-name="uni02BC" unicode="&#x2bc;" horiz-adv-x="163" 
d="M153 625q0 -18 -11 -42.5t-37 -69.5l-38 -66h-57l82 143q-22 3 -33.5 15.5t-11.5 30.5q0 22 15.5 35.5t36.5 13.5q25 0 39.5 -16t14.5 -44z" />
    <glyph glyph-name="circumflex" unicode="&#x2c6;" horiz-adv-x="303" 
d="M197 670l96 -104l-25 -29l-117 76l-116 -76l-25 29l96 104h91z" />
    <glyph glyph-name="caron" unicode="&#x2c7;" horiz-adv-x="303" 
d="M152 608l116 76l25 -29l-96 -104h-91l-96 104l25 29z" />
    <glyph glyph-name="breve" unicode="&#x2d8;" horiz-adv-x="316" 
d="M10 648l43 27q18 -29 45.5 -47t59.5 -18t60 18t45 47l43 -27q-21 -46 -59 -72t-89 -26t-89 26t-59 72z" />
    <glyph glyph-name="dotaccent" unicode="&#x2d9;" horiz-adv-x="108" 
d="M10 598q0 19 14.5 32t34.5 13t33.5 -13t13.5 -32t-13.5 -33t-33.5 -14t-34.5 14t-14.5 33z" />
    <glyph glyph-name="ring" unicode="&#x2da;" horiz-adv-x="218" 
d="M10 635q0 41 28 68t71 27t71 -27t28 -68t-28 -68.5t-71 -27.5t-71 27.5t-28 68.5zM159 635q0 24 -13.5 38t-36.5 14t-36.5 -14t-13.5 -38t13.5 -38t36.5 -14t36.5 14t13.5 38z" />
    <glyph glyph-name="ogonek" unicode="&#x2db;" horiz-adv-x="183" 
d="M10 -145q0 46 35.5 91.5t100.5 82.5l26 -29q-104 -67 -104 -130q0 -28 18 -47.5t50 -19.5q17 0 37 6v-39q-26 -13 -58 -13q-51 0 -78 28.5t-27 69.5z" />
    <glyph glyph-name="tilde" unicode="&#x2dc;" horiz-adv-x="331" 
d="M151 599q-18 10 -29 14.5t-23 4.5q-19 0 -29 -12.5t-10 -33.5h-50q0 54 22.5 80t61.5 26q21 0 35.5 -6t33.5 -18q19 -11 31.5 -16.5t30.5 -5.5q46 0 46 46h50q0 -51 -23.5 -78.5t-65.5 -27.5q-23 0 -41 7t-40 20z" />
    <glyph glyph-name="hungarumlaut" unicode="&#x2dd;" horiz-adv-x="341" 
d="M10 556l70 167l69 -32l-98 -155zM166 565l105 147l60 -47l-130 -129z" />
    <glyph glyph-name="gravecomb" unicode="&#x300;" 
d="M-175 665l60 47l105 -147l-35 -29z" />
    <glyph glyph-name="acutecomb" unicode="&#x301;" 
d="M-175 565l105 147l60 -47l-130 -129z" />
    <glyph glyph-name="uni0302" unicode="&#x302;" 
d="M-106 673l96 -104l-25 -29l-116 76l-117 -76l-25 29l96 104h91z" />
    <glyph glyph-name="tildecomb" unicode="&#x303;" 
d="M-180 599q-18 10 -29 14.5t-23 4.5q-19 0 -29 -12.5t-10 -33.5h-50q0 54 22.5 80t61.5 26q21 0 35.5 -6t33.5 -18q19 -11 31.5 -16.5t30.5 -5.5q46 0 46 46h50q0 -51 -23.5 -78.5t-65.5 -27.5q-23 0 -41 7t-40 20z" />
    <glyph glyph-name="uni0304" unicode="&#x304;" 
d="M-310 641h300v-61h-300v61z" />
    <glyph glyph-name="uni0306" unicode="&#x306;" 
d="M-306 648l43 27q18 -29 45.5 -47t59.5 -18t60 18t45 47l43 -27q-21 -46 -59 -72t-89 -26t-89 26t-59 72z" />
    <glyph glyph-name="uni0307" unicode="&#x307;" 
d="M-106 598q0 19 14.5 32t34.5 13t33.5 -13t13.5 -32t-14 -33t-33 -14q-20 0 -34.5 14t-14.5 33z" />
    <glyph glyph-name="uni0308" unicode="&#x308;" 
d="M-312 597q0 19 14 31.5t34 12.5t33 -12.5t13 -31.5t-13.5 -32.5t-32.5 -13.5q-20 0 -34 13.5t-14 32.5zM-104 597q0 19 14 31.5t34 12.5t33 -12.5t13 -31.5t-13.5 -32.5t-32.5 -13.5q-20 0 -34 13.5t-14 32.5z" />
    <glyph glyph-name="uni030A" unicode="&#x30a;" 
d="M-208 635q0 41 28 68t71 27t71 -27t28 -68t-28 -68.5t-71 -27.5t-71 27.5t-28 68.5zM-59 635q0 24 -13.5 38t-36.5 14t-36.5 -14t-13.5 -38t13.5 -38t36.5 -14t36.5 14t13.5 38z" />
    <glyph glyph-name="uni030B" unicode="&#x30b;" 
d="M-331 556l70 167l69 -32l-98 -155zM-175 565l105 147l60 -47l-130 -129z" />
    <glyph glyph-name="uni030C" unicode="&#x30c;" 
d="M-151 608l116 76l25 -29l-96 -104h-91l-96 104l25 29z" />
    <glyph glyph-name="uni0312" unicode="&#x312;" 
d="M-95 630q22 -3 34 -16t12 -31q0 -22 -16 -36t-38 -14q-26 0 -41.5 16.5t-15.5 45.5q0 18 11.5 43t38.5 70l40 67h60z" />
    <glyph glyph-name="uni0326" unicode="&#x326;" 
d="M-10 -93q0 -15 -11 -37t-35 -60l-37 -57h-56l80 125q-21 1 -32.5 12.5t-11.5 27.5q0 19 15 30.5t35 11.5q24 0 38.5 -14t14.5 -39z" />
    <glyph glyph-name="uni0327" unicode="&#x327;" 
d="M-96 -56q45 -4 65.5 -26t20.5 -52q0 -39 -30 -60t-76 -21q-33 0 -57 10.5t-34 27.5l28 32q9 -11 25 -18.5t37 -7.5q47 0 47 38q0 37 -58 37h-8v106h40v-66z" />
    <glyph glyph-name="uni0328" unicode="&#x328;" 
d="M-173 -145q0 46 35.5 91.5t100.5 82.5h26v-29q-104 -67 -104 -130q0 -28 18 -47.5t50 -19.5q18 0 37 6v-39q-26 -13 -58 -13q-51 0 -78 28.5t-27 69.5z" />
    <glyph glyph-name="uni0335" unicode="&#x335;" 
d="M-287 266h327v-65h-327v65z" />
    <glyph glyph-name="uni03BC" unicode="&#x3bc;" horiz-adv-x="524" 
d="M76 -240v680h72v-248q0 -68 26 -99t87 -31q48 0 73.5 18.5t34 53t8.5 90.5v216h72v-440h-68v103q-30 -111 -134 -111q-65 0 -99 47v-279h-72z" />
    <glyph glyph-name="pi" unicode="&#x3c0;" horiz-adv-x="560" 
d="M545 375h-93v-237q0 -34 4.5 -51.5t16 -24.5t34.5 -7q14 0 23 1v-64q-16 -2 -34 -2q-62 0 -89 30t-27 100v255h-208v-375h-72v375h-85v65h530v-65z" />
    <glyph glyph-name="uni0400" unicode="&#x400;" horiz-adv-x="542" 
d="M477 0h-375v700h365v-74h-285v-214h236v-74h-236v-264h295v-74zM144 824l65 65l115 -116l-40 -38z" />
    <glyph glyph-name="uni0401" unicode="&#x401;" horiz-adv-x="542" 
d="M477 0h-375v700h365v-74h-285v-214h236v-74h-236v-264h295v-74zM132 806q0 22 15.5 36t38.5 14q22 0 37 -14t15 -36q0 -21 -15 -36t-37 -15t-38 15t-16 36zM337 806q0 22 15.5 36t38.5 14q22 0 37 -14t15 -36q0 -21 -15 -36t-37 -15t-38 15t-16 36z" />
    <glyph glyph-name="uni0402" unicode="&#x402;" horiz-adv-x="714" 
d="M673 169v-5q0 -128 -54.5 -193.5t-168.5 -65.5q-58 0 -102 21l26 64q33 -13 74 -13q73 0 108 47t35 135v4q0 98 -44.5 142t-128.5 44q-32 0 -64.5 -6t-74.5 -22v-321h-80v626h-184v74h527v-74h-263v-233q73 28 146 28q123 0 185.5 -60.5t62.5 -191.5z" />
    <glyph glyph-name="uni0403" unicode="&#x403;" horiz-adv-x="461" 
d="M182 0h-80v700h344v-74h-264v-626zM196 775l115 116l65 -65l-140 -89z" />
    <glyph glyph-name="uni0404" unicode="&#x404;" horiz-adv-x="673" 
d="M656 67q-37 -34 -95 -55.5t-134 -21.5q-111 0 -197.5 46t-135 128t-48.5 185t47.5 185.5t133 129t195.5 46.5q127 0 222 -63l-36 -65q-78 56 -178 56q-73 0 -135.5 -28.5t-104 -80t-55.5 -117.5h364v-74h-371q3 -78 43 -141t108 -99t153 -36q110 0 187 64z" />
    <glyph glyph-name="uni0405" unicode="&#x405;" horiz-adv-x="556" 
d="M48 90l56 63q34 -44 76 -67.5t99 -23.5q70 0 108 35t38 92q0 44 -22 72.5t-55 45.5t-87 37q-60 23 -96 42.5t-61 54t-25 88.5q0 82 57 131t152 49q63 0 111 -22t81 -60l-50 -55q-49 65 -144 65q-60 0 -93.5 -26.5t-33.5 -72.5q0 -35 19.5 -58t48 -37.5t78.5 -32.5
q64 -24 104 -45.5t68 -61.5t28 -104q0 -66 -31 -113.5t-85 -71.5t-121 -24q-131 0 -220 100z" />
    <glyph glyph-name="uni0406" unicode="&#x406;" horiz-adv-x="284" 
d="M102 700h80v-700h-80v700z" />
    <glyph glyph-name="uni0407" unicode="&#x407;" horiz-adv-x="284" 
d="M33 798q0 18 13 30t32 12q18 0 31 -12t13 -30t-13 -30.5t-31 -12.5q-19 0 -32 12.5t-13 30.5zM161 798q0 18 13 30t32 12q18 0 31 -12t13 -30t-13 -30.5t-31 -12.5q-19 0 -32 12.5t-13 30.5zM102 700h80v-700h-80v700z" />
    <glyph glyph-name="uni0408" unicode="&#x408;" horiz-adv-x="341" 
d="M20 1v70q18 -6 42 -6q56 0 81.5 31t25.5 97v507h80v-514q0 -97 -47.5 -144t-135.5 -47q-26 0 -46 6z" />
    <glyph glyph-name="uni0409" unicode="&#x409;" horiz-adv-x="935" 
d="M20 -3v79q12 -5 28 -5q35 0 58.5 30t37.5 118.5t14 256.5v224h399v-266h103q70 0 123 -28.5t82 -77.5t29 -109t-29 -110t-82 -79.5t-123 -29.5h-183v630h-244v-213q0 -168 -23.5 -262t-61.5 -128.5t-90 -34.5q-25 0 -38 5zM650 74q76 0 119 40.5t43 103.5q0 62 -43 102
t-119 40h-93v-286h93z" />
    <glyph glyph-name="uni040A" unicode="&#x40a;" horiz-adv-x="961" 
d="M102 0v700h80v-288h322v288h80v-288h112q67 0 118 -26.5t78.5 -72t27.5 -101.5q0 -59 -27.5 -107t-78.5 -76.5t-118 -28.5h-192v338h-322v-338h-80zM686 74q71 0 111.5 38t40.5 96q0 57 -40.5 93.5t-111.5 36.5h-102v-264h102z" />
    <glyph glyph-name="uni040B" unicode="&#x40b;" horiz-adv-x="713" 
d="M652 0h-80l-1 233q0 53 -36.5 85t-113.5 32q-74 0 -142 -30v-320h-80v626h-184v74h527v-74h-263v-235q78 30 157 30q97 0 156 -46t59 -133z" />
    <glyph glyph-name="uni040C" unicode="&#x40c;" horiz-adv-x="631" 
d="M535 680l-240 -305l319 -355v-20h-88l-298 334h-46v-334h-80v700h80v-298h45l229 298h79v-20zM214 775l115 116l65 -65l-140 -89z" />
    <glyph glyph-name="uni040E" unicode="&#x40e;" horiz-adv-x="617" 
d="M528 700h71v-20l-247 -567q-29 -66 -65.5 -93.5t-82.5 -27.5q-17 0 -38 3v79q14 -2 32 -2q59 0 89 69l7 16l-276 523v20h81l234 -452zM141 880h77q11 -72 102 -72q49 0 74.5 20t30.5 52h71q-2 -38 -24.5 -69t-62 -49.5t-90.5 -18.5q-67 0 -118.5 32.5t-59.5 104.5z" />
    <glyph glyph-name="uni040F" unicode="&#x40f;" horiz-adv-x="703" 
d="M387 -130h-72v130h-213v700h80v-623h339v623h80v-700h-214v-130z" />
    <glyph glyph-name="uni0410" unicode="&#x410;" horiz-adv-x="634" 
d="M624 0h-83l-79 195h-293l-79 -195h-80l289 710h33zM315 557l-117 -290h235z" />
    <glyph glyph-name="uni0411" unicode="&#x411;" horiz-adv-x="569" 
d="M102 0v700h352v-74h-272v-211h74q129 0 195.5 -54.5t66.5 -150.5q0 -98 -67 -154t-195 -56h-154zM253 74q91 0 137 34.5t46 99.5q0 61 -44.5 97t-141.5 36h-68v-267h71z" />
    <glyph glyph-name="uni0412" unicode="&#x412;" horiz-adv-x="584" 
d="M535 210q0 -61 -31.5 -109t-88 -74.5t-129.5 -26.5h-184v700h184q87 0 137 -43t50 -117q0 -59 -29 -96.5t-72 -54.5q75 -7 119 -57t44 -122zM254 626h-72v-213h72q65 0 102 28t37 82q0 103 -139 103zM268 74q91 0 138 37t47 101q0 65 -46 99t-122 34h-103v-271h86z" />
    <glyph glyph-name="uni0413" unicode="&#x413;" horiz-adv-x="461" 
d="M182 0h-80v700h344v-74h-264v-626z" />
    <glyph glyph-name="uni0414" unicode="&#x414;" horiz-adv-x="705" 
d="M568 74h100v-204h-72v130h-504v-130h-72v204h68q81 189 81 505v121h399v-626zM245 576q0 -309 -75 -502h318v552h-243v-50z" />
    <glyph glyph-name="uni0415" unicode="&#x415;" horiz-adv-x="542" 
d="M477 0h-375v700h365v-74h-285v-214h236v-74h-236v-264h295v-74z" />
    <glyph glyph-name="uni0416" unicode="&#x416;" horiz-adv-x="862" 
d="M778 690l-179 -317l246 -363v-10h-92l-223 334h-59v-334h-80v334h-59l-223 -334h-92v10l246 363l-179 317v10h79l170 -298h58v298h80v-298h58l170 298h79v-10z" />
    <glyph glyph-name="uni0417" unicode="&#x417;" horiz-adv-x="539" 
d="M490 205q0 -61 -29 -110t-86 -77t-136 -28q-75 0 -132.5 26t-96.5 76l50 56q30 -41 71 -64.5t106 -23.5q82 0 127.5 37.5t45.5 103.5q0 63 -43.5 101t-130.5 38h-57v70h48q63 0 99.5 32t36.5 89q0 54 -33.5 81.5t-99.5 27.5q-43 0 -75 -14.5t-61 -50.5l-49 56
q26 35 72.5 57t117.5 22q101 0 154.5 -47t53.5 -123q0 -55 -28 -96t-84 -61q70 -9 114.5 -55t44.5 -123z" />
    <glyph glyph-name="uni0418" unicode="&#x418;" horiz-adv-x="754" 
d="M182 156l422 544h48v-700h-80v543l-420 -543h-50v701h80v-545z" />
    <glyph glyph-name="uni0419" unicode="&#x419;" horiz-adv-x="754" 
d="M182 156l422 544h48v-700h-80v543l-420 -543h-50v701h80v-545zM199 880h77q11 -72 102 -72q49 0 74.5 20t30.5 52h71q-2 -38 -24.5 -69t-62 -49.5t-90.5 -18.5q-67 0 -118.5 32.5t-59.5 104.5z" />
    <glyph glyph-name="uni041A" unicode="&#x41a;" horiz-adv-x="631" 
d="M535 680l-240 -305l319 -355v-20h-88l-298 334h-46v-334h-80v700h80v-298h45l229 298h79v-20z" />
    <glyph glyph-name="uni041B" unicode="&#x41b;" horiz-adv-x="666" 
d="M20 -3v79q12 -5 28 -5q35 0 58.5 30t37.5 118.5t14 256.5v224h406v-700h-80v630h-251v-213q0 -168 -23.5 -262t-61.5 -128.5t-90 -34.5q-25 0 -38 5z" />
    <glyph glyph-name="uni041C" unicode="&#x41c;" horiz-adv-x="892" 
d="M725 700l100 -700h-78l-74 507l-220 -507h-19l-224 501l-67 -501h-76l91 700h44l244 -546l237 546h42z" />
    <glyph glyph-name="uni041D" unicode="&#x41d;" horiz-adv-x="736" 
d="M554 412v288h80v-700h-80v338h-372v-338h-80v700h80v-288h372z" />
    <glyph glyph-name="uni041E" unicode="&#x41e;" horiz-adv-x="808" 
d="M46 351q0 102 44.5 184t126 128.5t187.5 46.5t187.5 -47t126 -129t44.5 -185q0 -102 -44.5 -184t-126 -128.5t-187.5 -46.5t-187.5 47t-126 129t-44.5 185zM680 350q0 81 -36 147t-99 103.5t-141 37.5t-141 -37.5t-99 -103.5t-36 -147t36 -147t99 -103.5t141 -37.5
t141 37.5t99 103.5t36 147z" />
    <glyph glyph-name="uni041F" unicode="&#x41f;" horiz-adv-x="716" 
d="M102 0v700h512v-700h-80v626h-352v-626h-80z" />
    <glyph glyph-name="uni0420" unicode="&#x420;" horiz-adv-x="562" 
d="M297 700q67 0 118 -27t78.5 -73t27.5 -102q0 -59 -27.5 -107t-78.5 -76.5t-118 -28.5h-115v-286h-80v700h195zM287 360q71 0 111.5 38t40.5 96t-40.5 95t-111.5 37h-105v-266h105z" />
    <glyph glyph-name="uni0421" unicode="&#x421;" horiz-adv-x="673" 
d="M46 349q0 103 47.5 185.5t133 129t195.5 46.5q127 0 222 -63l-36 -65q-78 56 -178 56q-85 0 -154 -37.5t-108.5 -103.5t-39.5 -148q0 -81 39.5 -146.5t108.5 -103t156 -37.5q110 0 187 64l37 -59q-37 -34 -95 -55.5t-134 -21.5q-111 0 -197.5 46t-135 128t-48.5 185z" />
    <glyph glyph-name="uni0422" unicode="&#x422;" horiz-adv-x="478" 
d="M279 0h-80v626h-184v74h448v-74h-184v-626z" />
    <glyph glyph-name="uni0423" unicode="&#x423;" horiz-adv-x="617" 
d="M528 700h71v-20l-247 -567q-29 -66 -65.5 -93.5t-82.5 -27.5q-17 0 -38 3v79q14 -2 32 -2q59 0 89 69l7 16l-276 523v20h81l234 -452z" />
    <glyph glyph-name="uni0424" unicode="&#x424;" horiz-adv-x="850" 
d="M465 36v-70h-80v70q-97 0 -174 41.5t-121 114.5t-44 164q0 88 40 161.5t116.5 117t182.5 43.5v58h80v-58q97 0 174 -41.5t121 -114.5t44 -164q0 -88 -40 -161.5t-116.5 -117t-182.5 -43.5zM385 106v502h-1q-84 0 -141.5 -34.5t-86 -92.5t-28.5 -128q0 -72 34 -128.5
t92.5 -87.5t130.5 -31zM466 106q84 0 141.5 34.5t86 92t28.5 128.5q0 72 -34 128.5t-92.5 87.5t-130.5 31v-502h1z" />
    <glyph glyph-name="uni0425" unicode="&#x425;" horiz-adv-x="610" 
d="M538 680l-193 -299l232 -361v-20h-83l-196 318l-189 -318h-76v20l218 356l-194 304v20h81l164 -263l161 263h75v-20z" />
    <glyph glyph-name="uni0426" unicode="&#x426;" horiz-adv-x="738" 
d="M701 -130h-72v130h-527v700h80v-626h339v626h80v-626h100v-204z" />
    <glyph glyph-name="uni0427" unicode="&#x427;" horiz-adv-x="618" 
d="M436 700h80v-700h-80v290q-93 -10 -160 -10q-107 0 -161 40.5t-54 140.5v239h80v-231q0 -44 13 -69t46 -36.5t94 -11.5q66 0 142 9v339z" />
    <glyph glyph-name="uni0428" unicode="&#x428;" horiz-adv-x="940" 
d="M838 0h-736v700h80v-626h248v626h80v-626h248v626h80v-700z" />
    <glyph glyph-name="uni0429" unicode="&#x429;" horiz-adv-x="975" 
d="M938 -130h-72v130h-764v700h80v-626h248v626h80v-626h248v626h80v-626h100v-204z" />
    <glyph glyph-name="uni042A" unicode="&#x42a;" horiz-adv-x="612" 
d="M337 434q71 0 124 -28.5t81.5 -77.5t28.5 -109t-28.5 -110t-81.5 -79.5t-124 -29.5h-182v626h-140v74h220v-266h102zM327 74q77 0 119.5 40.5t42.5 103.5t-42 102.5t-120 39.5h-92v-286h92z" />
    <glyph glyph-name="uni042B" unicode="&#x42b;" horiz-adv-x="796" 
d="M102 0v700h80v-266h91q70 0 123 -28.5t82 -77.5t29 -109t-29 -110t-82 -79.5t-123 -29.5h-171zM694 0h-80v700h80v-700zM263 74q76 0 119 40.5t43 103.5q0 62 -43 102t-119 40h-81v-286h81z" />
    <glyph glyph-name="uni042C" unicode="&#x42c;" horiz-adv-x="559" 
d="M102 0v700h80v-266h102q71 0 124 -28.5t81.5 -77.5t28.5 -109t-28.5 -110t-81.5 -79.5t-124 -29.5h-182zM274 74q77 0 119.5 40.5t42.5 103.5t-42 102.5t-120 39.5h-92v-286h92z" />
    <glyph glyph-name="uni042D" unicode="&#x42d;" horiz-adv-x="655" 
d="M609 352q0 -104 -49 -186.5t-136 -129t-196 -46.5q-124 0 -218 67l34 61q71 -56 177 -56q84 0 152.5 36t109.5 98.5t44 141.5h-357v74h351q-12 66 -51 117.5t-98 80t-131 28.5q-107 0 -184 -64l-37 59q37 34 95 55.5t133 21.5q106 0 188 -46t127.5 -127.5t45.5 -184.5z
" />
    <glyph glyph-name="uni042E" unicode="&#x42e;" horiz-adv-x="1064" 
d="M1017 349q0 -102 -42 -183.5t-122.5 -128.5t-191.5 -47q-101 0 -178.5 43t-121.5 122t-47 183h-132v-338h-80v700h80v-288h136q12 87 56 154t117.5 105.5t169.5 38.5q103 0 184 -45t126.5 -127t45.5 -189zM935 350q0 81 -33.5 146.5t-95.5 103.5t-145 38q-84 0 -144 -36
t-92 -101t-32 -151q0 -81 33.5 -146.5t94.5 -103.5t142 -38q85 0 146.5 36t93.5 101.5t32 150.5z" />
    <glyph glyph-name="uni042F" unicode="&#x42f;" horiz-adv-x="561" 
d="M459 700v-700h-80v286h-102h-11l-175 -286h-81v21l173 281q-60 23 -95 73t-35 113q0 59 27.5 107t78.5 76.5t118 28.5h182zM379 360v266h-92q-71 0 -111.5 -38t-40.5 -96t40.5 -95t111.5 -37h92z" />
    <glyph glyph-name="uni0430" unicode="&#x430;" horiz-adv-x="559" 
d="M415 440h68v-440h-68v82q-19 -40 -62 -65t-98 -25q-57 0 -106 28t-78 79.5t-29 120.5q0 68 28.5 120t77 80t107.5 28q60 0 102.5 -25t57.5 -61v78zM411 217v10q0 41 -17 76t-50.5 56.5t-79.5 21.5q-65 0 -106 -42.5t-41 -117.5q0 -73 40 -117.5t105 -44.5q46 0 80 22.5
t51.5 59t17.5 76.5z" />
    <glyph glyph-name="uni0431" unicode="&#x431;" horiz-adv-x="535" 
d="M493 218q0 -70 -30 -121t-80 -78t-110 -27q-127 0 -179 80.5t-52 249.5q0 195 74.5 276.5t201.5 81.5q38 0 58.5 8t35.5 32l57 -39q-13 -40 -48.5 -56t-100.5 -16q-67 0 -108 -19t-65.5 -72.5t-30.5 -156.5q53 85 163 85q65 0 113.5 -29.5t74.5 -81.5t26 -117zM418 219
q0 73 -39.5 117.5t-109.5 44.5q-68 0 -106.5 -43.5t-38.5 -117.5q0 -77 40.5 -120t107.5 -43q66 0 106 44t40 118z" />
    <glyph glyph-name="uni0432" unicode="&#x432;" horiz-adv-x="460" 
d="M439 129q0 -61 -43 -95t-126 -34h-195v440h190q67 0 102 -28.5t35 -75.5q0 -38 -22 -61.5t-60 -30.5q119 -12 119 -115zM245 376h-98v-109h100q42 0 63 12.5t21 42.5q0 29 -20.5 41.5t-65.5 12.5zM250 65q61 0 89 17.5t28 55.5t-26.5 54t-80.5 16h-113v-143h103z" />
    <glyph glyph-name="uni0433" unicode="&#x433;" horiz-adv-x="379" 
d="M147 0h-72v440h284v-65h-212v-375z" />
    <glyph glyph-name="uni0434" unicode="&#x434;" horiz-adv-x="521" 
d="M425 65h81v-175h-65v110h-367v-110h-65v175h55q26 51 39 118t13 160v97h309v-375zM185 315q0 -139 -43 -250h211v310h-168v-60z" />
    <glyph glyph-name="uni0435" unicode="&#x435;" horiz-adv-x="509" 
d="M479 206h-364q4 -68 48.5 -108.5t110.5 -40.5q42 0 78.5 16.5t58.5 45.5l47 -43q-31 -41 -81 -62.5t-107 -21.5q-65 0 -117 28t-81.5 79.5t-29.5 120.5q0 71 31 122.5t82.5 78.5t111.5 27q65 0 113 -31t73.5 -81t25.5 -105v-25zM119 267h285q-10 51 -50 83.5t-94 32.5
q-52 0 -90.5 -31t-50.5 -85z" />
    <glyph glyph-name="uni0436" unicode="&#x436;" horiz-adv-x="620" 
d="M583 430l-129 -194l161 -226v-10h-79l-145 206h-47v-206h-72v206h-47l-143 -206h-77v10l158 222l-133 198v10h73l112 -173h57v173h72v-173h57l112 173h70v-10z" />
    <glyph glyph-name="uni0437" unicode="&#x437;" horiz-adv-x="393" 
d="M372 126q0 -59 -49.5 -96.5t-134.5 -37.5q-115 0 -175 73l46 48q46 -56 128 -56q54 0 84 21.5t30 57.5q0 32 -25 50t-75 18h-64v66h52q88 0 88 54q0 27 -26 43t-67 16q-64 0 -114 -45l-33 57q62 53 149 53q74 0 117 -32t43 -83q0 -32 -17.5 -56t-47.5 -36q43 -13 67 -44
t24 -71z" />
    <glyph glyph-name="uni0438" unicode="&#x438;" horiz-adv-x="529" 
d="M147 132l266 308h41v-440h-72v312l-269 -312h-38v440h72v-308z" />
    <glyph glyph-name="uni0439" unicode="&#x439;" horiz-adv-x="529" 
d="M147 132l266 308h41v-440h-72v312l-269 -312h-38v440h72v-308zM124 637h65q0 -32 20.5 -51.5t57.5 -19.5q36 0 57 18.5t21 52.5h64q-1 -60 -40.5 -93.5t-103.5 -33.5t-103 33.5t-38 93.5z" />
    <glyph glyph-name="uni043A" unicode="&#x43a;" horiz-adv-x="465" 
d="M420 430l-168 -192l208 -228v-10h-83l-188 205h-42v-205h-72v440h72v-174h49l147 174h77v-10z" />
    <glyph glyph-name="uni043B" unicode="&#x43b;" horiz-adv-x="467" 
d="M7 -4v74q5 -1 12 -1q34 0 54.5 52t20.5 193v126h298v-440h-72v375h-157v-97q0 -155 -37 -219.5t-102 -64.5q-11 0 -17 2z" />
    <glyph glyph-name="uni043C" unicode="&#x43c;" horiz-adv-x="607" 
d="M102 0h-66l77 440h46l146 -316l143 316h46l77 -440h-68l-51 305l-142 -305h-17l-140 299z" />
    <glyph glyph-name="uni043D" unicode="&#x43d;" horiz-adv-x="529" 
d="M382 440h72v-440h-72v202h-235v-202h-72v440h72v-173h235v173z" />
    <glyph glyph-name="uni043E" unicode="&#x43e;" horiz-adv-x="533" 
d="M42 222q0 64 29.5 115.5t80.5 81t115 29.5t115 -29.5t80 -81t29 -115.5q0 -65 -29.5 -117.5t-80.5 -82.5t-114 -30t-114.5 30.5t-81 83t-29.5 116.5zM419 222q0 72 -42 116.5t-110 44.5t-110.5 -44.5t-42.5 -116.5q0 -73 43 -119t110 -46t109.5 46t42.5 119z" />
    <glyph glyph-name="uni043F" unicode="&#x43f;" horiz-adv-x="514" 
d="M147 0h-72v440h364v-440h-72v375h-220v-375z" />
    <glyph glyph-name="uni0440" unicode="&#x440;" horiz-adv-x="559" 
d="M517 220q0 -69 -29 -120.5t-78 -79.5t-106 -28q-53 0 -94 22.5t-62 59.5v-314h-72v680h68v-78q15 36 57.5 61t102.5 25q59 0 107.5 -28t77 -80t28.5 -120zM442 221q0 75 -41 117.5t-106 42.5q-46 0 -79.5 -21.5t-50.5 -56.5t-17 -76v-10q0 -40 17.5 -76.5t51.5 -59
t80 -22.5q65 0 105 44.5t40 117.5z" />
    <glyph glyph-name="uni0441" unicode="&#x441;" horiz-adv-x="459" 
d="M42 222q0 69 30 120t82 78.5t116 27.5q50 0 94.5 -17t74.5 -48l-42 -56q-22 26 -55 41t-71 15q-67 0 -112 -43.5t-45 -116.5q0 -48 21 -86t58 -59t83 -21q39 0 71.5 15t53.5 41l45 -45q-29 -35 -74 -55.5t-102 -20.5q-68 0 -120 30t-80 82.5t-28 117.5z" />
    <glyph glyph-name="uni0442" unicode="&#x442;" horiz-adv-x="400" 
d="M236 0h-72v375h-144v65h360v-65h-144v-375z" />
    <glyph glyph-name="uni0443" unicode="&#x443;" horiz-adv-x="443" 
d="M232 102l127 338h70v-10l-252 -670h-70v10l89 236l-182 424v10h75z" />
    <glyph glyph-name="uni0444" unicode="&#x444;" horiz-adv-x="619" 
d="M354 446q62 0 112.5 -27.5t80.5 -79t30 -121.5q0 -71 -31.5 -122t-82.5 -76.5t-109 -25.5h-9v-234h-72v234h-8q-62 0 -112.5 27.5t-80.5 79t-30 121.5q0 71 31.5 122t82.5 76.5t109 25.5h8v254h72v-254h9zM273 59v322h-8q-67 0 -109 -42.5t-42 -116.5q0 -77 41.5 -120
t109.5 -43h8zM354 59q67 0 109 42.5t42 116.5q0 77 -41.5 120t-109.5 43h-9v-322h9z" />
    <glyph glyph-name="uni0445" unicode="&#x445;" horiz-adv-x="425" 
d="M400 430l-142 -199l154 -221v-10h-81l-119 174l-122 -174h-77v10l152 215l-141 205v10h82l109 -163l111 163h74v-10z" />
    <glyph glyph-name="uni0446" unicode="&#x446;" horiz-adv-x="526" 
d="M511 -110h-65v110h-371v440h72v-375h211v375h72v-375h81v-175z" />
    <glyph glyph-name="uni0447" unicode="&#x447;" horiz-adv-x="473" 
d="M326 440h72v-440h-72v175q-47 -19 -110 -19q-84 0 -128.5 37t-44.5 120v127h72v-123q0 -50 23.5 -73t86.5 -23q56 0 101 17v202z" />
    <glyph glyph-name="uni0448" unicode="&#x448;" horiz-adv-x="696" 
d="M384 65h165v375h72v-440h-546v440h72v-375h165v375h72v-375z" />
    <glyph glyph-name="uni0449" unicode="&#x449;" horiz-adv-x="717" 
d="M702 -110h-65v110h-562v440h72v-375h165v375h72v-375h165v375h72v-375h81v-175z" />
    <glyph glyph-name="uni044A" unicode="&#x44a;" horiz-adv-x="510" 
d="M139 0v375h-119v65h191v-149h99q89 0 133.5 -35t44.5 -109t-45.5 -110.5t-142.5 -36.5h-161zM286 65q62 0 96 16.5t34 63.5q0 46 -30.5 63.5t-91.5 17.5h-83v-161h75z" />
    <glyph glyph-name="uni044B" unicode="&#x44b;" horiz-adv-x="633" 
d="M246 291q89 0 133.5 -35t44.5 -109t-45.5 -110.5t-142.5 -36.5h-161v440h72v-149h99zM558 0h-72v440h72v-440zM225 65q62 0 94.5 16t32.5 64q0 45 -29.5 63t-89.5 18h-86v-161h78z" />
    <glyph glyph-name="uni044C" unicode="&#x44c;" horiz-adv-x="450" 
d="M75 0v440h72v-149h99q89 0 133.5 -35t44.5 -109t-45.5 -110.5t-142.5 -36.5h-161zM222 65q62 0 96 16.5t34 63.5q0 46 -30.5 63.5t-91.5 17.5h-83v-161h75z" />
    <glyph glyph-name="uni044D" unicode="&#x44d;" horiz-adv-x="459" 
d="M417 222q0 -65 -28 -117.5t-80 -82.5t-120 -30q-57 0 -102 20.5t-74 55.5l45 45q21 -26 53.5 -41t71.5 -15q65 0 109.5 40t51.5 104h-200v65h196q-12 55 -54 86t-98 31q-38 0 -71 -15t-55 -41l-42 56q30 31 74.5 48t94.5 17q64 0 116 -27.5t82 -78.5t30 -120z" />
    <glyph glyph-name="uni044E" unicode="&#x44e;" horiz-adv-x="704" 
d="M662 216q0 -69 -30 -120t-80.5 -77.5t-109.5 -26.5q-58 0 -104.5 25t-74.5 72.5t-31 111.5h-85v-201h-72v440h72v-174h88q13 85 71.5 133.5t135.5 48.5q63 0 113 -28t78.5 -81t28.5 -123zM590 216q0 76 -42 121.5t-106 45.5t-103 -44.5t-39 -118.5t40.5 -118.5
t101.5 -44.5q67 0 107.5 43t40.5 116z" />
    <glyph glyph-name="uni044F" unicode="&#x44f;" horiz-adv-x="485" 
d="M410 440v-440h-72v156h-99l-120 -156h-79v10l121 154q-101 24 -101 133q0 72 45.5 107.5t141.5 35.5h163zM338 216v159h-91q-60 0 -87.5 -15t-27.5 -61q0 -47 24.5 -65t82.5 -18h99z" />
    <glyph glyph-name="uni0450" unicode="&#x450;" horiz-adv-x="509" 
d="M479 206h-364q4 -68 48.5 -108.5t110.5 -40.5q42 0 78.5 16.5t58.5 45.5l47 -43q-31 -41 -81 -62.5t-107 -21.5q-65 0 -117 28t-81.5 79.5t-29.5 120.5q0 71 31 122.5t82.5 78.5t111.5 27q65 0 113 -31t73.5 -81t25.5 -105v-25zM119 267h285q-10 51 -50 83.5t-94 32.5
q-52 0 -90.5 -31t-50.5 -85zM123 665l60 47l105 -147l-35 -29z" />
    <glyph glyph-name="uni0451" unicode="&#x451;" horiz-adv-x="509" 
d="M479 206h-364q4 -68 48.5 -108.5t110.5 -40.5q42 0 78.5 16.5t58.5 45.5l47 -43q-31 -41 -81 -62.5t-107 -21.5q-65 0 -117 28t-81.5 79.5t-29.5 120.5q0 71 31 122.5t82.5 78.5t111.5 27q65 0 113 -31t73.5 -81t25.5 -105v-25zM119 267h285q-10 51 -50 83.5t-94 32.5
q-52 0 -90.5 -31t-50.5 -85zM109 597q0 19 14 31.5t34 12.5t33 -12.5t13 -31.5t-13.5 -32.5t-32.5 -13.5q-20 0 -34 13.5t-14 32.5zM317 597q0 19 14 31.5t34 12.5t33 -12.5t13 -31.5t-13.5 -32.5t-32.5 -13.5q-20 0 -34 13.5t-14 32.5z" />
    <glyph glyph-name="uni0452" unicode="&#x452;" horiz-adv-x="536" 
d="M469 172v-260q0 -83 -35 -120.5t-115 -37.5q-11 0 -16 1v65q6 -1 18 -1q35 0 55.5 26.5t20.5 76.5v234q0 71 -29 105.5t-83 34.5q-61 0 -92 -41t-31 -109v-146h-72v441h-75v65h75v194h71v-194h178v-65h-177v-143q19 31 52.5 49.5t81.5 18.5q77 0 125 -49t48 -145z" />
    <glyph glyph-name="uni0453" unicode="&#x453;" horiz-adv-x="379" 
d="M147 0h-72v440h284v-65h-212v-375zM170 565l105 147l60 -47l-130 -129z" />
    <glyph glyph-name="uni0454" unicode="&#x454;" horiz-adv-x="457" 
d="M446 68q-29 -35 -74 -55.5t-102 -20.5q-68 0 -120 30t-80 82.5t-28 117.5q0 69 30 120t82 78.5t116 27.5q50 0 94.5 -17t74.5 -48l-42 -56q-22 26 -55 41t-71 15q-56 0 -98 -31t-54 -86h196v-65h-200q7 -64 51.5 -104t109.5 -40q39 0 71.5 15t53.5 41z" />
    <glyph glyph-name="uni0455" unicode="&#x455;" horiz-adv-x="440" 
d="M40 63l40 52q54 -60 136 -60q45 0 73.5 18t28.5 50q0 31 -26 46t-82 31q-47 13 -75.5 25t-48.5 36t-20 63q0 61 47 93.5t119 32.5q50 0 84.5 -15.5t61.5 -41.5l-42 -54q-20 23 -44.5 34.5t-60.5 11.5q-43 0 -68 -15.5t-25 -40.5q0 -29 24.5 -42t77.5 -26q47 -12 77 -24
t51.5 -37.5t21.5 -69.5q0 -67 -49.5 -103.5t-123.5 -36.5q-104 0 -177 73z" />
    <glyph glyph-name="uni0456" unicode="&#x456;" horiz-adv-x="239" 
d="M157 0h-72v440h72v-440zM73 598q0 19 14.5 32t34.5 13t33.5 -13t13.5 -32t-14 -33t-33 -14q-20 0 -34.5 14t-14.5 33z" />
    <glyph glyph-name="uni0457" unicode="&#x457;" horiz-adv-x="242" 
d="M157 0h-72v440h72v-440zM12 594q0 18 13 30t32 12q18 0 31 -12t13 -30t-13 -30.5t-31 -12.5q-19 0 -32 12.5t-13 30.5zM140 594q0 18 13 30t32 12q18 0 31 -12t13 -30t-13 -30.5t-31 -12.5q-19 0 -32 12.5t-13 30.5z" />
    <glyph glyph-name="uni0458" unicode="&#x458;" horiz-adv-x="247" 
d="M-2 -245v65q6 -1 18 -1q76 0 75 93v528h72v-518q0 -84 -35 -126t-114 -42q-11 0 -16 1zM79 598q0 19 14.5 32t34.5 13t33.5 -13t13.5 -32t-14 -33t-33 -14q-20 0 -34.5 14t-14.5 33z" />
    <glyph glyph-name="uni0459" unicode="&#x459;" horiz-adv-x="671" 
d="M7 -4v74q5 -1 12 -1q34 0 54.5 52t20.5 193v126h307v-149h66q89 0 133.5 -34.5t44.5 -108.5t-46 -111t-142 -37h-128v375h-166v-97q0 -155 -37 -219.5t-102 -64.5q-11 0 -17 2zM457 65q60 0 88 16t28 65q0 46 -24.5 63t-83.5 17h-64v-161h56z" />
    <glyph glyph-name="uni045A" unicode="&#x45a;" horiz-adv-x="696" 
d="M75 0v440h72v-173h207v173h72v-173h74q85 0 127.5 -32t42.5 -100t-43.5 -101.5t-136.5 -33.5h-136v202h-207v-202h-72zM490 65q56 0 82 13.5t26 54.5q0 40 -22.5 54.5t-77.5 14.5h-72v-137h64z" />
    <glyph glyph-name="uni045B" unicode="&#x45b;" horiz-adv-x="536" 
d="M469 172v-172h-72v156q0 71 -29 105.5t-83 34.5q-61 0 -92 -41t-31 -109v-146h-72v441h-75v65h75v194h71v-194h183v-65h-182v-143q19 31 52.5 49.5t81.5 18.5q77 0 125 -49t48 -145z" />
    <glyph glyph-name="uni045C" unicode="&#x45c;" horiz-adv-x="465" 
d="M420 430l-168 -192l208 -228v-10h-83l-188 205h-42v-205h-72v440h72v-174h49l147 174h77v-10zM189 565l105 147l60 -47l-130 -129z" />
    <glyph glyph-name="uni045D" unicode="&#x45d;" horiz-adv-x="529" 
d="M147 132l266 308h41v-440h-72v312l-269 -312h-38v440h72v-308zM129 665l60 47l105 -147l-35 -29z" />
    <glyph glyph-name="uni045E" unicode="&#x45e;" horiz-adv-x="443" 
d="M232 102l127 338h70v-10l-252 -670h-70v10l89 236l-182 424v10h75zM80 637h65q0 -32 20.5 -51.5t57.5 -19.5q36 0 57 18.5t21 52.5h64q-1 -60 -40.5 -93.5t-103.5 -33.5t-103 33.5t-38 93.5z" />
    <glyph glyph-name="uni045F" unicode="&#x45f;" horiz-adv-x="497" 
d="M354 440h72v-440h-145v-110h-65v110h-145v440h72v-375h211v375z" />
    <glyph glyph-name="uni0462" unicode="&#x462;" horiz-adv-x="612" 
d="M155 0v535h-140v74h140v91h80v-91h193v-74h-193v-101h102q70 0 123 -28.5t82 -77.5t29 -109t-29 -110t-82 -79.5t-123 -29.5h-182zM327 74q76 0 119 40.5t43 103.5q0 62 -43 102t-119 40h-92v-286h92z" />
    <glyph glyph-name="uni0463" unicode="&#x463;" horiz-adv-x="509" 
d="M313 266q85 0 127.5 -31.5t42.5 -99.5t-43.5 -101.5t-136.5 -33.5h-169v375h-119v65h119v260h72v-260h170v-65h-170v-109h107zM284 65q60 0 93.5 14t33.5 55q0 37 -30.5 52t-88.5 15h-86v-136h78z" />
    <glyph glyph-name="uni0472" unicode="&#x472;" horiz-adv-x="808" 
d="M762 349q0 -102 -44.5 -184t-126 -128.5t-187.5 -46.5t-187.5 47t-126 129t-44.5 185q0 102 44.5 184t126 128.5t187.5 46.5t187.5 -47t126 -129t44.5 -185zM134 412h540q-12 66 -50 117.5t-95 80t-125 28.5t-125 -28.5t-95 -80t-50 -117.5zM680 338h-552
q3 -79 39.5 -141.5t98.5 -98.5t138 -36t138 36t98.5 98.5t39.5 141.5z" />
    <glyph glyph-name="uni0473" unicode="&#x473;" horiz-adv-x="533" 
d="M491 222q0 -65 -29.5 -117.5t-80.5 -82.5t-114 -30t-114.5 30.5t-81 83t-29.5 116.5t29.5 115.5t80.5 81t115 29.5t115 -29.5t80 -81t29 -115.5zM116 254h301q-10 59 -50 94t-100 35t-100.5 -35t-50.5 -94zM416 189h-299q9 -59 50 -95.5t100 -36.5t99.5 36t49.5 96z" />
    <glyph glyph-name="uni0474" unicode="&#x474;" horiz-adv-x="648" 
d="M642 702v-71q-14 2 -17 2q-16 0 -28.5 -8.5t-27 -32t-33.5 -70.5l-216 -532h-23l-284 690v20h77l220 -543l172 426q27 67 58.5 94.5t74.5 27.5q12 0 27 -3z" />
    <glyph glyph-name="uni0475" unicode="&#x475;" horiz-adv-x="459" 
d="M455 442v-70q-10 3 -22 3q-17 0 -26.5 -5.5t-19 -23t-28.5 -60.5l-125 -292h-22l-198 436v10h75l138 -310l77 189q28 68 57 97t64 29q14 0 30 -3z" />
    <glyph glyph-name="uni0490" unicode="&#x490;" horiz-adv-x="461" 
d="M102 700h272v130h72v-204h-264v-626h-80v700z" />
    <glyph glyph-name="uni0491" unicode="&#x491;" horiz-adv-x="386" 
d="M147 0h-72v440h219v110h65v-175h-212v-375z" />
    <glyph glyph-name="uni0492" unicode="&#x492;" horiz-adv-x="489" 
d="M474 700v-74h-264v-214h224v-74h-224v-338h-80v338h-121v74h121v288h344z" />
    <glyph glyph-name="uni0493" unicode="&#x493;" horiz-adv-x="398" 
d="M378 440v-65h-212v-109h141v-65h-141v-201h-72v201h-79v65h79v174h284z" />
    <glyph glyph-name="uni0496" unicode="&#x496;" horiz-adv-x="900" 
d="M863 -130h-72v130h-38l-223 334h-59v-334h-80v334h-59l-223 -334h-92v10l246 363l-179 317v10h79l170 -298h58v298h80v-298h58l170 298h79v-10l-179 -317l201 -296h63v-207z" />
    <glyph glyph-name="uni0497" unicode="&#x497;" horiz-adv-x="663" 
d="M648 -110h-65v110h-47l-145 206h-47v-206h-72v206h-47l-143 -206h-77v10l158 222l-133 198v10h73l112 -173h57v173h72v-173h57l112 173h70v-10l-129 -194l122 -171h72v-175z" />
    <glyph glyph-name="uni0498" unicode="&#x498;" horiz-adv-x="581" 
d="M285 -7v-123h-72v121q-130 9 -203 101l50 56q30 -41 71 -64.5t106 -23.5q82 0 127.5 37.5t45.5 103.5q0 63 -43.5 101t-130.5 38h-57v70h48q63 0 99.5 32t36.5 89q0 54 -33.5 81.5t-99.5 27.5q-43 0 -75 -14.5t-61 -50.5l-49 56q26 35 72.5 57t117.5 22q101 0 154.5 -47
t53.5 -123q0 -55 -28 -96t-84 -61q70 -9 114.5 -55t44.5 -123q0 -84 -54 -142t-151 -70z" />
    <glyph glyph-name="uni0499" unicode="&#x499;" horiz-adv-x="393" 
d="M224 -6v-104h-65v103q-95 9 -146 72l46 48q46 -56 128 -56q54 0 84 21.5t30 57.5q0 32 -25 50t-75 18h-64v66h52q88 0 88 54q0 27 -26 43t-67 16q-64 0 -114 -45l-33 57q62 53 149 53q74 0 117 -32t43 -83q0 -32 -17.5 -56t-47.5 -36q43 -13 67 -44t24 -71
q0 -52 -39.5 -88t-108.5 -44z" />
    <glyph glyph-name="uni049A" unicode="&#x49a;" horiz-adv-x="691" 
d="M654 -130h-72v130h-56l-298 334h-46v-334h-80v700h80v-298h45l229 298h79v-20l-240 -305l268 -298h91v-207z" />
    <glyph glyph-name="uni049B" unicode="&#x49b;" horiz-adv-x="500" 
d="M485 -110h-65v110h-43l-188 205h-42v-205h-72v440h72v-174h49l147 174h77v-10l-168 -192l158 -173h75v-175z" />
    <glyph glyph-name="uni04A0" unicode="&#x4a0;" horiz-adv-x="684" 
d="M235 0h-80v626h-140v74h220v-298h45l229 298h79v-20l-240 -305l319 -355v-20h-88l-298 334h-46v-334z" />
    <glyph glyph-name="uni04A1" unicode="&#x4a1;" horiz-adv-x="529" 
d="M211 0h-72v375h-119v65h191v-174h49l147 174h77v-10l-168 -192l208 -228v-10h-83l-188 205h-42v-205z" />
    <glyph glyph-name="uni04A2" unicode="&#x4a2;" horiz-adv-x="771" 
d="M734 -130h-72v130h-108v338h-372v-338h-80v700h80v-288h372v288h80v-623h100v-207z" />
    <glyph glyph-name="uni04A3" unicode="&#x4a3;" horiz-adv-x="550" 
d="M535 -110h-65l-1 110h-87v202h-235v-202h-72v440h72v-173h235v173h72v-375h81v-175z" />
    <glyph glyph-name="uni04AA" unicode="&#x4aa;" horiz-adv-x="675" 
d="M656 67q-36 -34 -93 -55t-132 -22v-120h-72v125q-93 13 -164 61.5t-110 124.5t-39 168q0 103 47.5 185.5t133 129t195.5 46.5q127 0 222 -63l-36 -65q-78 56 -178 56q-85 0 -154 -37.5t-108.5 -103.5t-39.5 -148q0 -81 39.5 -146.5t108.5 -103t156 -37.5q110 0 187 64z
" />
    <glyph glyph-name="uni04AB" unicode="&#x4ab;" horiz-adv-x="457" 
d="M446 68q-27 -32 -66 -51.5t-89 -23.5v-103h-65v105q-85 14 -134.5 76.5t-49.5 150.5q0 69 30 120t82 78.5t116 27.5q50 0 94.5 -17t74.5 -48l-42 -56q-22 26 -55 41t-71 15q-67 0 -112 -43.5t-45 -116.5q0 -48 21 -86t58 -59t83 -21q39 0 71.5 15t53.5 41z" />
    <glyph glyph-name="uni04AE" unicode="&#x4ae;" horiz-adv-x="556" 
d="M461 700h78v-20l-217 -368v-312h-80v311l-225 369v20h80l185 -309z" />
    <glyph glyph-name="uni04AF" unicode="&#x4af;" horiz-adv-x="436" 
d="M354 440h68v-10l-161 -373v-297h-72v285l-175 385v10h75l137 -309z" />
    <glyph glyph-name="uni04B0" unicode="&#x4b0;" horiz-adv-x="552" 
d="M462 700h78v-20l-211 -358h174v-74h-180v-248h-80v248h-192v74h185l-218 358v20h80l185 -309z" />
    <glyph glyph-name="uni04B1" unicode="&#x4b1;" horiz-adv-x="436" 
d="M354 440h68v-10l-157 -365h138v-65h-142v-240h-72v240h-151v65h142l-166 365v10h75l137 -309z" />
    <glyph glyph-name="uni04B2" unicode="&#x4b2;" horiz-adv-x="664" 
d="M627 -130h-72v130h-61l-196 318l-189 -318h-76v20l218 356l-194 304v20h81l164 -263l161 263h75v-20l-193 -299l195 -304h87v-207z" />
    <glyph glyph-name="uni04B3" unicode="&#x4b3;" horiz-adv-x="467" 
d="M452 -110h-65v110h-56l-119 174l-122 -174h-77v10l152 215l-141 205v10h82l109 -163l111 163h74v-10l-142 -199l116 -166h78v-175z" />
    <glyph glyph-name="uni04B6" unicode="&#x4b6;" horiz-adv-x="653" 
d="M516 700v-623h100v-207h-72v130h-108v290q-93 -10 -160 -10q-107 0 -161 40.5t-54 140.5v239h80v-231q0 -44 13 -69t46 -36.5t94 -11.5q66 0 142 9v339h80z" />
    <glyph glyph-name="uni04B7" unicode="&#x4b7;" horiz-adv-x="494" 
d="M414 -110l-1 110h-87v175q-47 -19 -110 -19q-84 0 -128.5 37t-44.5 120v127h72v-123q0 -50 23.5 -73t86.5 -23q56 0 101 17v202h72v-375h81v-175h-65z" />
    <glyph glyph-name="uni04BA" unicode="&#x4ba;" horiz-adv-x="625" 
d="M557 241v-241h-80v231q0 44 -13 69t-46 36.5t-94 11.5q-65 0 -142 -9v-339h-80v700h80v-290q93 10 160 10q108 0 161.5 -40t53.5 -139z" />
    <glyph glyph-name="uni04BB" unicode="&#x4bb;" horiz-adv-x="521" 
d="M454 272v-272h-72v256q0 60 -30.5 90t-78.5 30q-57 0 -91.5 -42t-34.5 -108v-226h-72v700h72v-325q21 31 59 51t84 20q72 0 118 -47t46 -127z" />
    <glyph glyph-name="uni04C0" unicode="&#x4c0;" horiz-adv-x="284" 
d="M102 700h80v-700h-80v700z" />
    <glyph glyph-name="uni04CF" unicode="&#x4cf;" horiz-adv-x="222" 
d="M75 700h72v-700h-72v700z" />
    <glyph glyph-name="uni04D0" unicode="&#x4d0;" horiz-adv-x="634" 
d="M624 0h-83l-79 195h-293l-79 -195h-80l289 710h33zM315 557l-117 -290h235zM138 880h77q11 -72 102 -72q49 0 74.5 20t30.5 52h71q-2 -38 -24.5 -69t-62 -49.5t-90.5 -18.5q-67 0 -118.5 32.5t-59.5 104.5z" />
    <glyph glyph-name="uni04D1" unicode="&#x4d1;" horiz-adv-x="559" 
d="M415 440h68v-440h-68v82q-19 -40 -62 -65t-98 -25q-57 0 -106 28t-78 79.5t-29 120.5q0 68 28.5 120t77 80t107.5 28q60 0 102.5 -25t57.5 -61v78zM411 217v10q0 41 -17 76t-50.5 56.5t-79.5 21.5q-65 0 -106 -42.5t-41 -117.5q0 -73 40 -117.5t105 -44.5q46 0 80 22.5
t51.5 59t17.5 76.5zM124 637h65q0 -32 20.5 -51.5t57.5 -19.5q36 0 57 18.5t21 52.5h64q-1 -60 -40.5 -93.5t-103.5 -33.5t-103 33.5t-38 93.5z" />
    <glyph glyph-name="uni04D6" unicode="&#x4d6;" horiz-adv-x="542" 
d="M477 0h-375v700h365v-74h-285v-214h236v-74h-236v-264h295v-74zM110 880h77q11 -72 102 -72q49 0 74.5 20t30.5 52h71q-2 -38 -24.5 -69t-62 -49.5t-90.5 -18.5q-67 0 -118.5 32.5t-59.5 104.5z" />
    <glyph glyph-name="uni04D7" unicode="&#x4d7;" horiz-adv-x="509" 
d="M479 206h-364q4 -68 48.5 -108.5t110.5 -40.5q42 0 78.5 16.5t58.5 45.5l47 -43q-31 -41 -81 -62.5t-107 -21.5q-65 0 -117 28t-81.5 79.5t-29.5 120.5q0 71 31 122.5t82.5 78.5t111.5 27q65 0 113 -31t73.5 -81t25.5 -105v-25zM119 267h285q-10 51 -50 83.5t-94 32.5
q-52 0 -90.5 -31t-50.5 -85zM118 637h65q0 -32 20.5 -51.5t57.5 -19.5q36 0 57 18.5t21 52.5h64q-1 -60 -40.5 -93.5t-103.5 -33.5t-103 33.5t-38 93.5z" />
    <glyph glyph-name="uni04D8" unicode="&#x4d8;" horiz-adv-x="787" 
d="M740 346q0 -102 -42.5 -183t-122.5 -127t-187 -46q-97 0 -174.5 38t-122 112t-44.5 178v82h607q-10 69 -45 123.5t-92.5 86t-132.5 31.5q-60 0 -116.5 -22t-98.5 -72l-52 62q99 104 264 104q114 0 195.5 -49.5t122.5 -133t41 -184.5zM657 326h-530v-9q0 -76 32 -134
t90.5 -89.5t137.5 -31.5t138.5 34t93.5 94t38 136z" />
    <glyph glyph-name="uni04D9" unicode="&#x4d9;" horiz-adv-x="497" 
d="M455 222q0 -106 -59 -168t-160 -62q-97 0 -151.5 58.5t-54.5 161.5v40h351q-8 63 -48 97t-103 34q-83 0 -147 -56l-30 59q37 32 78 47t94 15q108 0 169 -59.5t61 -166.5zM381 191h-279q3 -62 39.5 -98t96.5 -36t97.5 35.5t45.5 98.5z" />
    <glyph glyph-name="uni04DC" unicode="&#x4dc;" horiz-adv-x="862" 
d="M778 690l-179 -317l246 -363v-10h-92l-223 334h-59v-334h-80v334h-59l-223 -334h-92v10l246 363l-179 317v10h79l170 -298h58v298h80v-298h58l170 298h79v-10zM275 806q0 22 15.5 36t38.5 14q22 0 37 -14t15 -36q0 -21 -15 -36t-37 -15t-38 15t-16 36zM480 806
q0 22 15.5 36t38.5 14q22 0 37 -14t15 -36q0 -21 -15 -36t-37 -15t-38 15t-16 36z" />
    <glyph glyph-name="uni04DD" unicode="&#x4dd;" horiz-adv-x="620" 
d="M583 430l-129 -194l161 -226v-10h-79l-145 206h-47v-206h-72v206h-47l-143 -206h-77v10l158 222l-133 198v10h73l112 -173h57v173h72v-173h57l112 173h70v-10zM156 597q0 19 14 31.5t34 12.5t33 -12.5t13 -31.5t-13.5 -32.5t-32.5 -13.5q-20 0 -34 13.5t-14 32.5z
M364 597q0 19 14 31.5t34 12.5t33 -12.5t13 -31.5t-13.5 -32.5t-32.5 -13.5q-20 0 -34 13.5t-14 32.5z" />
    <glyph glyph-name="uni04DE" unicode="&#x4de;" horiz-adv-x="539" 
d="M490 205q0 -61 -29 -110t-86 -77t-136 -28q-75 0 -132.5 26t-96.5 76l50 56q30 -41 71 -64.5t106 -23.5q82 0 127.5 37.5t45.5 103.5q0 63 -43.5 101t-130.5 38h-57v70h48q63 0 99.5 32t36.5 89q0 54 -33.5 81.5t-99.5 27.5q-43 0 -75 -14.5t-61 -50.5l-49 56
q26 35 72.5 57t117.5 22q101 0 154.5 -47t53.5 -123q0 -55 -28 -96t-84 -61q70 -9 114.5 -55t44.5 -123zM95 806q0 22 15.5 36t38.5 14q22 0 37 -14t15 -36q0 -21 -15 -36t-37 -15t-38 15t-16 36zM300 806q0 22 15.5 36t38.5 14q22 0 37 -14t15 -36q0 -21 -15 -36t-37 -15
t-38 15t-16 36z" />
    <glyph glyph-name="uni04DF" unicode="&#x4df;" horiz-adv-x="393" 
d="M372 126q0 -59 -49.5 -96.5t-134.5 -37.5q-115 0 -175 73l46 48q46 -56 128 -56q54 0 84 21.5t30 57.5q0 32 -25 50t-75 18h-64v66h52q88 0 88 54q0 27 -26 43t-67 16q-64 0 -114 -45l-33 57q62 53 149 53q74 0 117 -32t43 -83q0 -32 -17.5 -56t-47.5 -36q43 -13 67 -44
t24 -71zM33 597q0 19 14 31.5t34 12.5t33 -12.5t13 -31.5t-13.5 -32.5t-32.5 -13.5q-20 0 -34 13.5t-14 32.5zM241 597q0 19 14 31.5t34 12.5t33 -12.5t13 -31.5t-13.5 -32.5t-32.5 -13.5q-20 0 -34 13.5t-14 32.5z" />
    <glyph glyph-name="uni04E2" unicode="&#x4e2;" horiz-adv-x="754" 
d="M182 156l422 544h48v-700h-80v543l-420 -543h-50v701h80v-545zM227 824h300v-61h-300v61z" />
    <glyph glyph-name="uni04E3" unicode="&#x4e3;" horiz-adv-x="529" 
d="M147 132l266 308h41v-440h-72v312l-269 -312h-38v440h72v-308zM118 641h300v-61h-300v61z" />
    <glyph glyph-name="uni04E4" unicode="&#x4e4;" horiz-adv-x="754" 
d="M182 156l422 544h48v-700h-80v543l-420 -543h-50v701h80v-545zM221 806q0 22 15.5 36t38.5 14q22 0 37 -14t15 -36q0 -21 -15 -36t-37 -15t-38 15t-16 36zM426 806q0 22 15.5 36t38.5 14q22 0 37 -14t15 -36q0 -21 -15 -36t-37 -15t-38 15t-16 36z" />
    <glyph glyph-name="uni04E5" unicode="&#x4e5;" horiz-adv-x="529" 
d="M147 132l266 308h41v-440h-72v312l-269 -312h-38v440h72v-308zM115 597q0 19 14 31.5t34 12.5t33 -12.5t13 -31.5t-13.5 -32.5t-32.5 -13.5q-20 0 -34 13.5t-14 32.5zM323 597q0 19 14 31.5t34 12.5t33 -12.5t13 -31.5t-13.5 -32.5t-32.5 -13.5q-20 0 -34 13.5t-14 32.5z
" />
    <glyph glyph-name="uni04E6" unicode="&#x4e6;" horiz-adv-x="808" 
d="M46 351q0 102 44.5 184t126 128.5t187.5 46.5t187.5 -47t126 -129t44.5 -185q0 -102 -44.5 -184t-126 -128.5t-187.5 -46.5t-187.5 47t-126 129t-44.5 185zM680 350q0 81 -36 147t-99 103.5t-141 37.5t-141 -37.5t-99 -103.5t-36 -147t36 -147t99 -103.5t141 -37.5
t141 37.5t99 103.5t36 147zM248 806q0 22 15.5 36t38.5 14q22 0 37 -14t15 -36q0 -21 -15 -36t-37 -15t-38 15t-16 36zM453 806q0 22 15.5 36t38.5 14q22 0 37 -14t15 -36q0 -21 -15 -36t-37 -15t-38 15t-16 36z" />
    <glyph glyph-name="uni04E7" unicode="&#x4e7;" horiz-adv-x="533" 
d="M42 222q0 64 29.5 115.5t80.5 81t115 29.5t115 -29.5t80 -81t29 -115.5q0 -65 -29.5 -117.5t-80.5 -82.5t-114 -30t-114.5 30.5t-81 83t-29.5 116.5zM419 222q0 72 -42 116.5t-110 44.5t-110.5 -44.5t-42.5 -116.5q0 -73 43 -119t110 -46t109.5 46t42.5 119zM113 597
q0 19 14 31.5t34 12.5t33 -12.5t13 -31.5t-13.5 -32.5t-32.5 -13.5q-20 0 -34 13.5t-14 32.5zM321 597q0 19 14 31.5t34 12.5t33 -12.5t13 -31.5t-13.5 -32.5t-32.5 -13.5q-20 0 -34 13.5t-14 32.5z" />
    <glyph glyph-name="uni04E8" unicode="&#x4e8;" horiz-adv-x="806" 
d="M761 349q0 -102 -44.5 -184t-126 -128.5t-187.5 -46.5t-187.5 47t-126 129t-44.5 185q0 102 44.5 184t126 128.5t187.5 46.5t187.5 -47t126 -129t44.5 -185zM129 384h548q-7 73 -44.5 131t-97.5 90.5t-132 32.5t-132 -32.5t-97.5 -90.5t-44.5 -131zM677 314h-548
q8 -73 45.5 -130.5t97 -89.5t131.5 -32t131.5 32t97 89.5t45.5 130.5z" />
    <glyph glyph-name="uni04E9" unicode="&#x4e9;" horiz-adv-x="523" 
d="M491 222q0 -65 -29.5 -117.5t-80.5 -82.5t-114 -30t-114.5 30.5t-81 83t-29.5 116.5t29.5 115.5t80.5 81t115 29.5t115 -29.5t80 -81t29 -115.5zM116 254h301q-10 59 -50 94t-100 35t-100.5 -35t-50.5 -94zM417 193h-301q8 -61 49.5 -98.5t101.5 -37.5t101 37.5t49 98.5z
" />
    <glyph glyph-name="uni04EE" unicode="&#x4ee;" horiz-adv-x="617" 
d="M528 700h71v-20l-247 -567q-29 -66 -65.5 -93.5t-82.5 -27.5q-17 0 -38 3v79q14 -2 32 -2q59 0 89 69l7 16l-276 523v20h81l234 -452zM169 824h300v-61h-300v61z" />
    <glyph glyph-name="uni04EF" unicode="&#x4ef;" horiz-adv-x="443" 
d="M232 102l127 338h70v-10l-252 -670h-70v10l89 236l-182 424v10h75zM74 641h300v-61h-300v61z" />
    <glyph glyph-name="uni04F2" unicode="&#x4f2;" horiz-adv-x="617" 
d="M528 700h71v-20l-247 -567q-29 -66 -65.5 -93.5t-82.5 -27.5q-17 0 -38 3v79q14 -2 32 -2q59 0 89 69l7 16l-276 523v20h81l234 -452zM198 758l61 121l80 -54l-91 -90zM361 765l91 104l62 -62l-112 -72z" />
    <glyph glyph-name="uni04F3" unicode="&#x4f3;" horiz-adv-x="443" 
d="M232 102l127 338h70v-10l-252 -670h-70v10l89 236l-182 424v10h75zM101 556l70 167l69 -32l-98 -155zM257 565l105 147l60 -47l-130 -129z" />
    <glyph glyph-name="uni04F4" unicode="&#x4f4;" horiz-adv-x="618" 
d="M436 700h80v-700h-80v290q-93 -10 -160 -10q-107 0 -161 40.5t-54 140.5v239h80v-231q0 -44 13 -69t46 -36.5t94 -11.5q66 0 142 9v339zM130 806q0 22 15.5 36t38.5 14q22 0 37 -14t15 -36q0 -21 -15 -36t-37 -15t-38 15t-16 36zM335 806q0 22 15.5 36t38.5 14
q22 0 37 -14t15 -36q0 -21 -15 -36t-37 -15t-38 15t-16 36z" />
    <glyph glyph-name="uni04F5" unicode="&#x4f5;" horiz-adv-x="473" 
d="M326 440h72v-440h-72v175q-47 -19 -110 -19q-84 0 -128.5 37t-44.5 120v127h72v-123q0 -50 23.5 -73t86.5 -23q56 0 101 17v202zM66 597q0 19 14 31.5t34 12.5t33 -12.5t13 -31.5t-13.5 -32.5t-32.5 -13.5q-20 0 -34 13.5t-14 32.5zM274 597q0 19 14 31.5t34 12.5
t33 -12.5t13 -31.5t-13.5 -32.5t-32.5 -13.5q-20 0 -34 13.5t-14 32.5z" />
    <glyph glyph-name="Wgrave" unicode="&#x1e80;" horiz-adv-x="879" 
d="M635 192l141 508h74v-20l-194 -690h-29l-188 536l-193 -536h-29l-188 690v20h77l140 -510l181 510h27zM295 824l65 65l115 -116l-40 -38z" />
    <glyph glyph-name="wgrave" unicode="&#x1e81;" horiz-adv-x="622" 
d="M441 145l91 295h65v-10l-134 -434h-35l-115 293l-116 -293h-38l-134 434v10h72l92 -296l114 296h25zM175 665l60 47l105 -147l-35 -29z" />
    <glyph glyph-name="Wacute" unicode="&#x1e82;" horiz-adv-x="879" 
d="M635 192l141 508h74v-20l-194 -690h-29l-188 536l-193 -536h-29l-188 690v20h77l140 -510l181 510h27zM357 775l115 116l65 -65l-140 -89z" />
    <glyph glyph-name="wacute" unicode="&#x1e83;" horiz-adv-x="622" 
d="M441 145l91 295h65v-10l-134 -434h-35l-115 293l-116 -293h-38l-134 434v10h72l92 -296l114 296h25zM266 565l105 147l60 -47l-130 -129z" />
    <glyph glyph-name="Wdieresis" unicode="&#x1e84;" horiz-adv-x="879" 
d="M635 192l141 508h74v-20l-194 -690h-29l-188 536l-193 -536h-29l-188 690v20h77l140 -510l181 510h27zM283 806q0 22 15.5 36t38.5 14q22 0 37 -14t15 -36q0 -21 -15 -36t-37 -15t-38 15t-16 36zM488 806q0 22 15.5 36t38.5 14q22 0 37 -14t15 -36q0 -21 -15 -36t-37 -15
t-38 15t-16 36z" />
    <glyph glyph-name="wdieresis" unicode="&#x1e85;" horiz-adv-x="622" 
d="M441 145l91 295h65v-10l-134 -434h-35l-115 293l-116 -293h-38l-134 434v10h72l92 -296l114 296h25zM161 597q0 19 14 31.5t34 12.5t33 -12.5t13 -31.5t-13.5 -32.5t-32.5 -13.5q-20 0 -34 13.5t-14 32.5zM369 597q0 19 14 31.5t34 12.5t33 -12.5t13 -31.5t-13.5 -32.5
t-32.5 -13.5q-20 0 -34 13.5t-14 32.5z" />
    <glyph glyph-name="uni1E9E" unicode="&#x1e9e;" horiz-adv-x="649" 
d="M381 488q106 -11 162.5 -73t56.5 -171q0 -117 -65.5 -183t-179.5 -66q-43 0 -77 11v72q27 -11 64 -11q80 0 128 44t48 128q0 86 -49 136.5t-132 50.5h-26v85l134 117q-66 12 -125 12t-90.5 -13.5t-44.5 -43.5t-13 -83v-500h-80v508q0 112 53 157t161 45q56 0 109 -8.5
t91 -19.5v-87z" />
    <glyph glyph-name="Ygrave" unicode="&#x1ef2;" horiz-adv-x="556" 
d="M461 700h78v-20l-217 -368v-312h-80v311l-225 369v20h80l185 -309zM137 824l65 65l115 -116l-40 -38z" />
    <glyph glyph-name="ygrave" unicode="&#x1ef3;" horiz-adv-x="443" 
d="M232 102l127 338h70v-10l-252 -670h-70v10l89 236l-182 424v10h75zM85 665l60 47l105 -147l-35 -29z" />
    <glyph glyph-name="endash" unicode="&#x2013;" horiz-adv-x="587" 
d="M60 275h467v-65h-467v65z" />
    <glyph glyph-name="emdash" unicode="&#x2014;" horiz-adv-x="787" 
d="M60 275h667v-65h-667v65z" />
    <glyph glyph-name="quoteleft" unicode="&#x2018;" horiz-adv-x="229" 
d="M126 555q22 -3 34 -16t12 -31q0 -22 -16.5 -36t-37.5 -14q-26 0 -41.5 16.5t-15.5 45.5q0 18 11.5 43t38.5 70l40 67h60z" />
    <glyph glyph-name="quoteright" unicode="&#x2019;" horiz-adv-x="229" 
d="M168 650q0 -18 -11.5 -43t-38.5 -70l-40 -67h-60l86 145q-23 3 -35 15.5t-12 31.5q0 22 16.5 36t37.5 14q26 0 41.5 -16.5t15.5 -45.5z" />
    <glyph glyph-name="quotesinglbase" unicode="&#x201a;" horiz-adv-x="229" 
d="M168 37q0 -18 -11.5 -43t-38.5 -70l-40 -67h-60l86 145q-23 3 -35 15.5t-12 31.5q0 22 16.5 36t37.5 14q26 0 41.5 -16.5t15.5 -45.5z" />
    <glyph glyph-name="quotedblleft" unicode="&#x201c;" horiz-adv-x="409" 
d="M151 703h60l-85 -145q22 -3 34 -16t12 -31q0 -22 -16.5 -36t-37.5 -14q-26 0 -41.5 16.5t-15.5 45.5q0 18 11.5 43t38.5 70zM306 558q22 -3 34 -16t12 -31q0 -22 -16.5 -36t-37.5 -14q-26 0 -41.5 16.5t-15.5 45.5q0 18 11.5 43t38.5 70l40 67h60z" />
    <glyph glyph-name="quotedblright" unicode="&#x201d;" horiz-adv-x="408" 
d="M168 651q0 -18 -11.5 -43t-38.5 -70l-40 -67h-60l86 145q-23 3 -35 15.5t-12 31.5q0 22 16.5 36t37.5 14q26 0 41.5 -16.5t15.5 -45.5zM347 651q0 -18 -11.5 -43t-38.5 -70l-40 -67h-60l86 145q-23 3 -35 15.5t-12 31.5q0 22 16.5 36t37.5 14q26 0 41.5 -16.5t15.5 -45.5
z" />
    <glyph glyph-name="quotedblbase" unicode="&#x201e;" horiz-adv-x="409" 
d="M168 37q0 -18 -11.5 -43t-38.5 -70l-40 -67h-60l86 145q-23 3 -35 15.5t-12 31.5q0 22 16.5 36t37.5 14q26 0 41.5 -16.5t15.5 -45.5zM348 37q0 -18 -11.5 -43t-38.5 -70l-40 -67h-60l86 145q-23 3 -35 15.5t-12 31.5q0 22 16.5 36t37.5 14q26 0 41.5 -16.5t15.5 -45.5z
" />
    <glyph glyph-name="dagger" unicode="&#x2020;" horiz-adv-x="520" 
d="M291 527l170 8v-75l-169 8l8 -170l-10 -398h-55l-10 398l8 171l-174 -9v75l175 -9l-9 174h75z" />
    <glyph glyph-name="daggerdbl" unicode="&#x2021;" horiz-adv-x="520" 
d="M291 527l170 8v-75l-169 8l8 -170l-9 -173l170 8v-75l-169 8l8 -170h-75l8 171l-174 -9v75l175 -9l-9 174l8 171l-174 -9v75l175 -9l-9 174h75z" />
    <glyph glyph-name="bullet" unicode="&#x2022;" horiz-adv-x="325" 
d="M79 290q0 36 21.5 59t60.5 23q40 0 62.5 -23t22.5 -59q0 -34 -23 -57t-62 -23q-38 0 -60 23t-22 57z" />
    <glyph glyph-name="ellipsis" unicode="&#x2026;" horiz-adv-x="879" 
d="M73 43q0 24 14.5 39.5t40.5 15.5t41 -15.5t15 -39.5q0 -22 -15 -37.5t-41 -15.5q-25 0 -40 15t-15 38zM384 43q0 24 14.5 39.5t40.5 15.5t41 -15.5t15 -39.5q0 -22 -15 -37.5t-41 -15.5q-25 0 -40 15t-15 38zM695 43q0 24 14.5 39.5t40.5 15.5t41 -15.5t15 -39.5
q0 -22 -15 -37.5t-41 -15.5q-25 0 -40 15t-15 38z" />
    <glyph glyph-name="perthousand" unicode="&#x2030;" horiz-adv-x="1178" 
d="M60 546q0 72 46 116t118 44q46 0 83.5 -20t59 -56.5t21.5 -83.5q0 -71 -46.5 -115.5t-117.5 -44.5t-117.5 44.5t-46.5 115.5zM324 546q0 45 -27.5 72.5t-72.5 27.5t-72.5 -27.5t-27.5 -72.5t27.5 -72.5t72.5 -27.5t72.5 27.5t27.5 72.5zM420 153q0 72 46 116t118 44
q46 0 83.5 -20t59 -56.5t21.5 -83.5q0 -71 -46.5 -115.5t-117.5 -44.5t-117.5 44.5t-46.5 115.5zM684 153q0 45 -27.5 72.5t-72.5 27.5t-72.5 -27.5t-27.5 -72.5t27.5 -72.5t72.5 -27.5t72.5 27.5t27.5 72.5zM618 700h79l-504 -700h-82zM790 153q0 72 46 116t118 44
q46 0 83.5 -20t59 -56.5t21.5 -83.5q0 -71 -46.5 -115.5t-117.5 -44.5t-117.5 44.5t-46.5 115.5zM1054 153q0 45 -27.5 72.5t-72.5 27.5t-72.5 -27.5t-27.5 -72.5t27.5 -72.5t72.5 -27.5t72.5 27.5t27.5 72.5z" />
    <glyph glyph-name="guilsinglleft" unicode="&#x2039;" horiz-adv-x="308" 
d="M31 220l195 210v-90l-114 -120l114 -121v-89z" />
    <glyph glyph-name="guilsinglright" unicode="&#x203a;" horiz-adv-x="308" 
d="M82 341v89l195 -210l-195 -210v90l114 120z" />
    <glyph glyph-name="fraction" unicode="&#x2044;" horiz-adv-x="394" 
d="M411 700h79l-504 -700h-82z" />
    <glyph glyph-name="Euro" unicode="&#x20ac;" horiz-adv-x="507" 
d="M164 255q27 -193 184 -193q39 0 74.5 11.5t60.5 32.5v-75q-69 -39 -144 -39q-108 0 -171 69.5t-79 193.5h-73l16 65h52q-1 10 -1 29q0 21 1 31h-69l16 65h59q21 122 90 191.5t175 69.5q40 0 77 -9t58 -23l-17 -67q-22 14 -54.5 21.5t-63.5 7.5q-74 0 -123.5 -48
t-65.5 -143h267l-17 -65h-257q-1 -10 -1 -31v-29h243l-16 -65h-221z" />
    <glyph glyph-name="uni20B4" unicode="&#x20b4;" horiz-adv-x="539" 
d="M478 445v-65h-420v65h257q67 58 67 112q0 38 -30 62t-76 24q-45 0 -71 -22t-32 -64l-65 11q9 71 53.5 105.5t116.5 34.5q81 0 124 -41t43 -102q0 -35 -15 -64t-46 -56h94zM58 255v65h420v-65h-256q-70 -61 -70 -114q0 -38 33 -62t88 -24q51 0 84.5 22t43.5 63l65 -15
q-14 -68 -67 -101.5t-129 -33.5q-89 0 -135 40t-46 102q0 66 63 123h-94z" />
    <glyph glyph-name="uni20B8" unicode="&#x20b8;" horiz-adv-x="512" 
d="M15 630v70h482v-70h-482zM216 470h-201v70h482v-70h-201v-470h-80v470z" />
    <glyph glyph-name="uni20BD" unicode="&#x20bd;" horiz-adv-x="540" 
d="M227 322v-90h211v-65h-211v-167h-72v167h-95v65h95v90h-95v65h95v313h103q241 0 241 -186q0 -94 -61.5 -143t-179.5 -49h-31zM227 636v-249h29q85 0 127.5 30.5t42.5 97.5q0 61 -41 91t-132 30h-26z" />
    <glyph glyph-name="uni2116" unicode="&#x2116;" horiz-adv-x="1113" 
d="M157 700l410 -523v523h80v-700h-42l-423 538v-538h-80v700h55zM725 509q0 72 46 116t118 44q46 0 83.5 -20t59 -56.5t21.5 -83.5q0 -71 -46.5 -115.5t-117.5 -44.5t-117.5 44.5t-46.5 115.5zM789 509q0 -45 27.5 -72.5t72.5 -27.5t72.5 27.5t27.5 72.5t-27.5 72.5
t-72.5 27.5t-72.5 -27.5t-27.5 -72.5zM1037 201h-294v65h294v-65z" />
    <glyph glyph-name="uni2120" unicode="&#x2120;" horiz-adv-x="606" 
d="M10 470v11h56q5 -48 50 -48q23 0 35 11t12 32q0 22 -14.5 33t-46.5 24q-37 14 -57 31t-20 52q0 38 24 63t66 25q41 0 65.5 -24.5t28.5 -57.5v-10h-56q-2 22 -10.5 32.5t-26.5 10.5t-28.5 -10.5t-10.5 -27.5q0 -18 13.5 -27.5t42.5 -20.5q40 -15 61 -32t21 -55
q0 -46 -27.5 -71t-74.5 -25q-48 0 -73.5 24.5t-29.5 59.5zM309 391h-50l38 309h38l89 -195l85 195h42l42 -309h-54l-26 187l-66 -167h-43l-70 169z" />
    <glyph glyph-name="trademark" unicode="&#x2122;" horiz-adv-x="595" 
d="M139 391h-64v258h-67v51h198v-51h-67v-258zM278 391h-50l38 309h38l89 -195l85 195h42l42 -309h-54l-26 187l-66 -167h-43l-70 169z" />
    <glyph glyph-name="uni2126" unicode="&#x2126;" horiz-adv-x="832" 
d="M601 74h150v-74h-315v84q74 0 128 34t83 93t29 134q0 82 -34 149t-93.5 105.5t-133.5 38.5t-133 -38t-92.5 -103.5t-33.5 -145.5q0 -77 29 -137.5t83.5 -95t128.5 -34.5v-84h-314v74h150q-77 38 -118 116t-41 177q0 97 44 175t122 123t176 45t176 -44t122 -121t44 -173
q0 -99 -41 -178.5t-116 -119.5z" />
    <glyph glyph-name="uni2153" unicode="&#x2153;" horiz-adv-x="687" 
d="M31 585v61l163 58v-354h-61v275zM558 700h79l-504 -700h-82zM657 100q0 -45 -34 -75t-89 -30q-42 0 -74 18.5t-43 59.5l49 34q5 -27 23 -42t44 -15q27 0 43.5 14.5t16.5 39.5q0 26 -17 42.5t-45 16.5h-18v55h18q20 0 31.5 12t11.5 28t-10.5 26.5t-28.5 10.5
q-17 0 -30 -11.5t-17 -30.5l-55 27q8 35 34 52.5t65 17.5q47 0 76 -22.5t29 -58.5q0 -32 -18.5 -51t-48.5 -25q45 -7 66 -32t21 -61z" />
    <glyph glyph-name="uni2154" unicode="&#x2154;" horiz-adv-x="753" 
d="M150 409h123v-55h-242v5l110 138q38 47 49 66t11 38q0 26 -12.5 37t-30.5 11t-31 -11.5t-24 -34.5l-54 26q17 38 46 56.5t64 18.5q44 0 75 -26.5t31 -72.5q0 -28 -13 -55.5t-41 -63.5zM624 700h79l-504 -700h-82zM723 100q0 -45 -34 -75t-89 -30q-42 0 -74 18.5t-43 59.5
l49 34q5 -27 23 -42t44 -15q27 0 43.5 14.5t16.5 39.5q0 26 -17 42.5t-45 16.5h-18v55h18q20 0 31.5 12t11.5 28t-10.5 26.5t-28.5 10.5q-17 0 -30 -11.5t-17 -30.5l-55 27q8 35 34 52.5t65 17.5q47 0 76 -22.5t29 -58.5q0 -32 -18.5 -51t-48.5 -25q45 -7 66 -32t21 -61z
" />
    <glyph glyph-name="oneeighth" unicode="&#x215b;" horiz-adv-x="689" 
d="M31 585v61l163 58v-354h-61v275zM559 700h79l-504 -700h-82zM659 100q0 -45 -34.5 -75t-91.5 -30t-91.5 30t-34.5 75q0 34 20 59.5t55 33.5q-21 8 -38 26.5t-17 47.5q0 38 30 63t77 25t76 -25t29 -63q0 -29 -16.5 -47.5t-36.5 -26.5q34 -8 53.5 -33.5t19.5 -59.5z
M482 261q0 -19 14 -31.5t38 -12.5q23 0 36.5 12.5t13.5 31.5q0 18 -13.5 28.5t-37.5 10.5t-37.5 -10.5t-13.5 -28.5zM604 105q0 26 -19 41.5t-51 15.5t-52 -15.5t-20 -41.5t19.5 -40.5t52.5 -14.5t51.5 14.5t18.5 40.5z" />
    <glyph glyph-name="threeeighths" unicode="&#x215c;" horiz-adv-x="776" 
d="M746 100q0 -45 -34.5 -75t-91.5 -30t-91.5 30t-34.5 75q0 34 20 59.5t55 33.5q-21 8 -38 26.5t-17 47.5q0 38 30 63t77 25t76 -25t29 -63q0 -29 -16.5 -47.5t-36.5 -26.5q34 -8 53.5 -33.5t19.5 -59.5zM569 261q0 -19 14 -31.5t38 -12.5q23 0 36.5 12.5t13.5 31.5
q0 18 -13.5 28.5t-37.5 10.5t-37.5 -10.5t-13.5 -28.5zM691 105q0 26 -19 41.5t-51 15.5t-52 -15.5t-20 -41.5t19.5 -40.5t52.5 -14.5t51.5 14.5t18.5 40.5zM645 700h79l-504 -700h-82zM274 450q0 -45 -34 -75t-89 -30q-42 0 -74 18.5t-43 59.5l49 34q5 -27 23 -42t44 -15
q27 0 43.5 14.5t16.5 39.5q0 26 -17 42.5t-45 16.5h-18v55h18q20 0 31.5 12t11.5 28t-10.5 26.5t-28.5 10.5q-17 0 -30 -11.5t-17 -30.5l-55 27q8 35 34 52.5t65 17.5q47 0 76 -22.5t29 -58.5q0 -32 -18.5 -51t-48.5 -25q45 -7 66 -32t21 -61z" />
    <glyph glyph-name="fiveeighths" unicode="&#x215d;" horiz-adv-x="701" 
d="M264 468q0 -51 -34.5 -84.5t-89.5 -33.5q-40 0 -73 19t-49 59l49 35q7 -26 24.5 -42t47.5 -16q31 0 47 16.5t16 44.5q0 65 -77 65q-26 0 -58 -8h-10l20 177h163v-55h-115l-5 -60q14 2 23 2q53 0 87 -33t34 -86zM570 700h79l-504 -700h-82zM671 100q0 -45 -34.5 -75
t-91.5 -30t-91.5 30t-34.5 75q0 34 20 59.5t55 33.5q-21 8 -38 26.5t-17 47.5q0 38 30 63t77 25t76 -25t29 -63q0 -29 -16.5 -47.5t-36.5 -26.5q34 -8 53.5 -33.5t19.5 -59.5zM494 261q0 -19 14 -31.5t38 -12.5q23 0 36.5 12.5t13.5 31.5q0 18 -13.5 28.5t-37.5 10.5
t-37.5 -10.5t-13.5 -28.5zM616 105q0 26 -19 41.5t-51 15.5t-52 -15.5t-20 -41.5t19.5 -40.5t52.5 -14.5t51.5 14.5t18.5 40.5z" />
    <glyph glyph-name="seveneighths" unicode="&#x215e;" horiz-adv-x="668" 
d="M265 700v-10l-119 -340h-61v7l102 288h-144v55h222zM537 700h79l-504 -700h-82zM638 100q0 -45 -34.5 -75t-91.5 -30t-91.5 30t-34.5 75q0 34 20 59.5t55 33.5q-21 8 -38 26.5t-17 47.5q0 38 30 63t77 25t76 -25t29 -63q0 -29 -16.5 -47.5t-36.5 -26.5q34 -8 53.5 -33.5
t19.5 -59.5zM461 261q0 -19 14 -31.5t38 -12.5q23 0 36.5 12.5t13.5 31.5q0 18 -13.5 28.5t-37.5 10.5t-37.5 -10.5t-13.5 -28.5zM583 105q0 26 -19 41.5t-51 15.5t-52 -15.5t-20 -41.5t19.5 -40.5t52.5 -14.5t51.5 14.5t18.5 40.5z" />
    <glyph glyph-name="uni2206" unicode="&#x2206;" horiz-adv-x="625" 
d="M367 707l248 -707h-605l248 707h109zM311 639l-197 -562h394z" />
    <glyph glyph-name="minus" unicode="&#x2212;" horiz-adv-x="620" 
d="M82 385h420v-65h-420v65z" />
    <glyph glyph-name="uni2219" unicode="&#x2219;" horiz-adv-x="261" 
d="M89 343q0 19 10.5 30.5t30.5 11.5t31 -11.5t11 -30.5q0 -17 -11 -28.5t-31 -11.5q-19 0 -30 11.5t-11 28.5z" />
    <glyph glyph-name="infinity" unicode="&#x221e;" horiz-adv-x="620" 
d="M574 350q0 -63 -37.5 -106.5t-104.5 -43.5q-53 0 -84 26t-56 72q-25 -46 -56.5 -72t-83.5 -26q-67 0 -104.5 44t-37.5 106q0 63 37.5 106.5t104.5 43.5q53 0 84 -26t56 -72q25 46 56.5 72t83.5 26q67 0 104.5 -44t37.5 -106zM258 350q-26 41 -49 60.5t-57 19.5
q-35 0 -52.5 -21t-17.5 -59t17.5 -59t52.5 -21q34 0 57 19.5t49 60.5zM502 350q0 37 -17.5 58.5t-52.5 21.5q-33 0 -57 -19.5t-49 -60.5q26 -41 49 -60.5t57 -19.5q70 0 70 80z" />
    <glyph glyph-name="approxequal" unicode="&#x2248;" horiz-adv-x="620" 
d="M109 357q0 64 29 95t77 31q29 0 50.5 -8.5t48.5 -24.5q26 -15 43.5 -22t39.5 -7q29 0 43.5 14.5t15.5 47.5h56q0 -60 -30.5 -93t-82.5 -33q-31 0 -56 9.5t-58 27.5q-24 13 -38.5 19t-28.5 6q-48 0 -53 -62h-56zM109 158q0 64 29 95t77 31q29 0 50.5 -8.5t48.5 -24.5
q26 -15 43.5 -22t39.5 -7q29 0 43.5 14.5t15.5 47.5h56q0 -60 -30.5 -93t-82.5 -33q-31 0 -56 9.5t-58 27.5q-24 13 -38.5 19t-28.5 6q-48 0 -53 -62h-56z" />
    <glyph glyph-name="notequal" unicode="&#x2260;" horiz-adv-x="620" 
d="M520 489v-65h-147l-51 -145h198v-65h-220l-77 -219h-74l77 219h-126v65h148l51 145h-199v65h222l75 214h74l-75 -214h124z" />
    <glyph glyph-name="lessequal" unicode="&#x2264;" horiz-adv-x="620" 
d="M103 407l392 248v-79l-276 -169l276 -169v-79zM495 78h-371v65h371v-65z" />
    <glyph glyph-name="greaterequal" unicode="&#x2265;" horiz-adv-x="620" 
d="M115 576v79l392 -248l-392 -248v79l276 169zM486 78h-371v65h371v-65z" />
    <glyph glyph-name="lozenge" unicode="&#x25ca;" horiz-adv-x="620" 
d="M323 700l212 -349l-212 -349h-26l-212 349l212 349h26zM160 351l150 -246l150 246l-150 246z" />
    <glyph glyph-name="uniF400" unicode="&#xf400;" 
d="M-174 565l105 147l60 -47l-130 -129z" />
    <glyph glyph-name="one.tab" unicode="&#xf4e1;" horiz-adv-x="620" 
d="M354 710v-633h140v-77h-361v77h149v530l-131 -50v75z" />
    <glyph glyph-name="two.tab" unicode="&#xf4e2;" horiz-adv-x="620" 
d="M215 65h303v-65h-423v10l211 279l19 25q62 81 84 120t22 84q0 58 -33.5 90t-89.5 32q-89 0 -158 -83l-44 45q31 44 85 74t124 30q59 0 102.5 -24t66 -64.5t22.5 -90.5q0 -37 -13 -70.5t-35.5 -66.5t-70.5 -97l-20 -26z" />
    <glyph glyph-name="three.tab" unicode="&#xf4e3;" horiz-adv-x="620" 
d="M548 202q0 -60 -31 -108.5t-85.5 -76t-122.5 -27.5q-63 0 -117.5 24t-91.5 74l55 49q55 -82 154 -82q74 0 120.5 43t46.5 110q0 65 -44 103.5t-117 38.5h-20v60h20q57 0 89 32.5t32 85.5q0 52 -31 84.5t-88 32.5q-48 0 -82.5 -22t-56.5 -59l-50 48q27 46 74.5 72
t106.5 26t104 -23t70 -63.5t25 -90.5q0 -56 -30 -94t-74 -52q66 -13 105 -64.5t39 -120.5z" />
    <glyph glyph-name="four.tab" unicode="&#xf4e4;" horiz-adv-x="620" 
d="M447 266h89v-65h-89v-201h-72v201h-329v27l381 482h20v-444zM375 539l-216 -273h216v273z" />
    <glyph glyph-name="five.tab" unicode="&#xf4e5;" horiz-adv-x="620" 
d="M530 215q0 -67 -31 -118t-85 -79t-123 -28q-63 0 -117.5 24t-91.5 74l55 49q55 -82 154 -82q74 0 120.5 44.5t46.5 116.5q0 76 -52.5 117.5t-132.5 41.5q-45 0 -87 -16h-28l48 341h277v-70h-219l-28 -194q24 3 49 3q74 0 129.5 -28.5t85.5 -79t30 -116.5z" />
    <glyph glyph-name="six.tab" unicode="&#xf4e6;" horiz-adv-x="620" 
d="M540 218q0 -72 -32 -123t-84.5 -76t-115.5 -25q-65 0 -118.5 27t-85 79.5t-31.5 126.5q0 70 28.5 135t86.5 148l132 190h82v-8l-215 -301q61 51 139 51q56 0 105 -26t79 -77t30 -121zM468 218q0 75 -46 119t-116 44q-69 0 -115 -42.5t-46 -116.5q0 -76 46.5 -119.5
t115.5 -43.5q44 0 80.5 18.5t58.5 54.5t22 86z" />
    <glyph glyph-name="seven.tab" unicode="&#xf4e7;" horiz-adv-x="620" 
d="M103 630v70h407v-20l-238 -680h-75l222 630h-316z" />
    <glyph glyph-name="eight.tab" unicode="&#xf4e8;" horiz-adv-x="620" 
d="M542 200q0 -60 -28.5 -107.5t-81 -75t-122.5 -27.5t-122.5 27.5t-81 75t-28.5 107.5q0 69 38 119t111 67q-45 13 -77 52t-32 95q0 80 53 128.5t139 48.5t139 -48.5t53 -128.5q0 -56 -32 -95t-77 -52q73 -17 111 -67t38 -119zM310 410q56 0 88 33.5t32 84.5
q0 54 -31.5 85.5t-88.5 31.5t-88.5 -31.5t-31.5 -85.5q0 -51 32 -84.5t88 -33.5zM470 204q0 68 -44 107t-116 39t-116 -39t-44 -107t44 -108.5t116 -40.5t116 40.5t44 108.5z" />
    <glyph glyph-name="nine.tab" unicode="&#xf4e9;" horiz-adv-x="620" 
d="M547 473q0 -70 -28.5 -135t-86.5 -148l-132 -190h-82v8l215 301q-61 -51 -139 -51q-56 0 -105 26t-79 77t-30 121q0 72 32 123t84.5 76t115.5 25q65 0 118.5 -27t85 -79.5t31.5 -126.5zM475 478q0 76 -46.5 119.5t-115.5 43.5q-44 0 -80.5 -18.5t-58.5 -54.5t-22 -86
q0 -75 46 -119t116 -44q69 0 115 42.5t46 116.5z" />
    <glyph glyph-name="dollar.tab" unicode="&#xf4ec;" horiz-adv-x="620" 
d="M343 -7v-93h-65v91q-117 7 -199 99l56 63q34 -44 76 -67.5t99 -23.5q70 0 108 35t38 92q0 44 -22 72.5t-55 45.5t-87 37q-60 23 -96 42.5t-61 54t-25 88.5q0 74 47.5 122t127.5 56v93h65v-93q99 -10 161 -80l-50 -55q-49 65 -144 65q-60 0 -93.5 -26.5t-33.5 -72.5
q0 -35 19.5 -58t48 -37.5t78.5 -32.5q64 -24 104 -45.5t68 -61.5t28 -104q0 -88 -53 -141.5t-140 -64.5z" />
    <glyph glyph-name="Euro.tab" unicode="&#xf4ed;" horiz-adv-x="620" 
d="M168 255q23 -95 92 -144t170 -49q87 0 153 33v-75q-71 -28 -161 -28q-131 0 -218 70.5t-112 192.5h-76l16 65h52q-1 10 -1 29q0 21 1 31h-69l16 65h63q19 79 68 138t120.5 91t154.5 32q46 0 88 -9t65 -23l-17 -67q-25 14 -62 21.5t-74 7.5q-93 0 -166.5 -49t-99.5 -142
h362l-17 -65h-357q-1 -10 -1 -31q0 -20 1 -29h342l-16 -65h-317z" />
    <glyph glyph-name="cent.tab" unicode="&#xf4ee;" horiz-adv-x="620" 
d="M497 68q-26 -31 -65 -51t-88 -24v-83h-65v85q-85 13 -135.5 76t-50.5 151q0 91 51.5 150.5t134.5 72.5v102h65v-100q44 -4 82 -20.5t64 -43.5l-42 -56q-22 26 -55 41t-71 15q-67 0 -112 -43.5t-45 -116.5q0 -48 21 -86t58 -59t83 -21q39 0 71.5 15t53.5 41z" />
    <glyph glyph-name="sterling.tab" unicode="&#xf4ef;" horiz-adv-x="620" 
d="M247 70h262v-70h-411v70h77v250h-76v65h76v119q0 97 43.5 151.5t122.5 54.5q67 0 112 -40.5t45 -119.5v-23h-64q-1 53 -25.5 82t-67.5 29t-68.5 -30t-25.5 -86v-137h221v-65h-221v-250z" />
    <glyph glyph-name="yen.tab" unicode="&#xf4fa;" horiz-adv-x="620" 
d="M490 700h79v-20l-203 -335h154v-65h-170v-96h170v-65h-170v-119h-80v119h-170v65h170v96h-170v65h155l-204 335v20h82l182 -300z" />
    <glyph glyph-name="uni20B4.tab" unicode="&#xf4fc;" horiz-adv-x="620" 
d="M520 445v-65h-420v65h257q67 58 67 112q0 38 -30 62t-76 24q-45 0 -71 -22t-32 -64l-65 11q9 71 53.5 105.5t116.5 34.5q81 0 124 -41t43 -102q0 -35 -15 -64t-46 -56h94zM100 255v65h420v-65h-256q-70 -61 -70 -114q0 -38 33 -62t88 -24q51 0 84.5 22t43.5 63l65 -15
q-14 -68 -67 -101.5t-129 -33.5q-89 0 -135 40t-46 102q0 66 63 123h-94z" />
    <glyph glyph-name="uni20BD.tab" unicode="&#xf4fd;" horiz-adv-x="620" 
d="M250 322v-90h211v-65h-211v-167h-72v167h-95v65h95v90h-95v65h95v313h103q241 0 241 -186q0 -94 -61.5 -143t-179.5 -49h-31zM250 636v-249h29q85 0 127.5 30.5t42.5 97.5q0 61 -41 91t-132 30h-26z" />
    <glyph glyph-name="uni20B8.tab" unicode="&#xf5f3;" horiz-adv-x="620" 
d="M69 630v70h482v-70h-482zM270 470h-201v70h482v-70h-201v-470h-80v470z" />
    <glyph glyph-name="at.case" unicode="&#xf623;" horiz-adv-x="902" 
d="M856 343q0 -103 -42 -165t-115 -62q-45 0 -80.5 23t-40.5 70q-15 -42 -52 -68.5t-89 -26.5q-48 0 -87.5 23.5t-62 67.5t-22.5 103t22 103t61.5 67.5t89.5 23.5q54 0 89 -26t47 -63v76h59v-238q0 -38 20.5 -58.5t48.5 -20.5q41 0 65 45t24 126q0 152 -92 230.5t-248 78.5
q-105 0 -181.5 -42t-117.5 -119.5t-41 -181.5q0 -103 42 -181t119 -120t179 -42v-60q-123 0 -214.5 51t-141 142.5t-49.5 209.5q0 116 48 207.5t139.5 143.5t217.5 52q119 0 211 -46t143 -130t51 -193zM571 305v9q0 59 -32 95t-91 36q-57 0 -88.5 -35t-31.5 -99t31 -102
t88 -38q59 0 91.5 37.5t32.5 96.5z" />
    <glyph glyph-name="zero.denominator" unicode="&#xf655;" horiz-adv-x="300" 
d="M33 172q0 88 29.5 133t87.5 45q59 0 88.5 -44.5t29.5 -132.5q0 -89 -29 -134t-87 -45q-119 0 -119 178zM204 173q0 64 -12.5 93t-41.5 29q-28 0 -40.5 -29t-12.5 -94t13 -94t42 -29q28 0 40 29t12 95z" />
    <glyph glyph-name="one.denominator" unicode="&#xf656;" horiz-adv-x="265" 
d="M33 235v61l163 58v-354h-61v275z" />
    <glyph glyph-name="two.denominator" unicode="&#xf657;" horiz-adv-x="323" 
d="M157 55h123v-55h-242v5l110 138q38 47 49 66t11 38q0 26 -12.5 37t-30.5 11t-31 -11.5t-24 -34.5l-54 26q17 38 46 56.5t64 18.5q44 0 75 -26.5t31 -72.5q0 -28 -13 -55.5t-41 -63.5z" />
    <glyph glyph-name="three.denominator" unicode="&#xf658;" horiz-adv-x="300" 
d="M270 100q0 -45 -34 -75t-89 -30q-42 0 -74 18.5t-43 59.5l49 34q5 -27 23 -42t44 -15q27 0 43.5 14.5t16.5 39.5q0 26 -17 42.5t-45 16.5h-18v55h18q20 0 31.5 12t11.5 28t-10.5 26.5t-28.5 10.5q-17 0 -30 -11.5t-17 -30.5l-55 27q8 35 34 52.5t65 17.5q47 0 76 -22.5
t29 -58.5q0 -32 -18.5 -51t-48.5 -25q45 -7 66 -32t21 -61z" />
    <glyph glyph-name="four.denominator" unicode="&#xf659;" horiz-adv-x="341" 
d="M257 146h49v-55h-49v-91h-61v91h-178v5l175 249h64v-199zM196 268l-86 -122h86v122z" />
    <glyph glyph-name="five.denominator" unicode="&#xf65a;" horiz-adv-x="291" 
d="M255 113q0 -51 -34.5 -84.5t-89.5 -33.5q-40 0 -73 19t-49 59l49 35q7 -26 24.5 -42t47.5 -16q31 0 47 16.5t16 44.5q0 65 -77 65q-26 0 -58 -8h-10l20 177h163v-55h-115l-5 -60q14 2 23 2q53 0 87 -33t34 -86z" />
    <glyph glyph-name="six.denominator" unicode="&#xf65b;" horiz-adv-x="306" 
d="M281 109q0 -53 -36.5 -82.5t-86.5 -29.5q-54 0 -89.5 31t-35.5 83q0 63 58 144l66 95h71v-5l-94 -132q18 8 38 8q43 0 76 -30t33 -82zM217 109q0 26 -17 41.5t-43 15.5t-43 -15t-17 -41q0 -27 17.5 -42.5t42.5 -15.5q26 0 43 15t17 42z" />
    <glyph glyph-name="seven.denominator" unicode="&#xf65c;" horiz-adv-x="269" 
d="M249 350v-10l-119 -340h-61v7l102 288h-144v55h222z" />
    <glyph glyph-name="eight.denominator" unicode="&#xf65d;" horiz-adv-x="312" 
d="M282 100q0 -45 -34.5 -75t-91.5 -30t-91.5 30t-34.5 75q0 34 20 59.5t55 33.5q-21 8 -38 26.5t-17 47.5q0 38 30 63t77 25t76 -25t29 -63q0 -29 -16.5 -47.5t-36.5 -26.5q34 -8 53.5 -33.5t19.5 -59.5zM105 261q0 -19 14 -31.5t38 -12.5q23 0 36.5 12.5t13.5 31.5
q0 18 -13.5 28.5t-37.5 10.5t-37.5 -10.5t-13.5 -28.5zM227 105q0 26 -19 41.5t-51 15.5t-52 -15.5t-20 -41.5t19.5 -40.5t52.5 -14.5t51.5 14.5t18.5 40.5z" />
    <glyph glyph-name="nine.denominator" unicode="&#xf65e;" horiz-adv-x="306" 
d="M273 240q0 -63 -58 -144l-66 -95h-71v5l94 132q-18 -8 -38 -8q-43 0 -76 30t-33 82q0 53 36.5 82.5t86.5 29.5q54 0 89.5 -31t35.5 -83zM209 241q0 27 -17.5 42.5t-42.5 15.5q-26 0 -43 -15t-17 -42q0 -26 17 -41.5t43 -15.5t43 15t17 41z" />
    <glyph glyph-name="zero.numerator" unicode="&#xf661;" horiz-adv-x="300" 
d="M33 526q0 88 29.5 133t87.5 45q59 0 88.5 -44.5t29.5 -132.5q0 -89 -29 -134t-87 -45q-119 0 -119 178zM204 527q0 64 -12.5 93t-41.5 29q-28 0 -40.5 -29t-12.5 -94t13 -94t42 -29q28 0 40 29t12 95z" />
    <glyph glyph-name="one.numerator" unicode="&#xf662;" horiz-adv-x="265" 
d="M33 585v61l163 58v-354h-61v275z" />
    <glyph glyph-name="two.numerator" unicode="&#xf663;" horiz-adv-x="322" 
d="M157 409h123v-55h-242v5l110 138q38 47 49 66t11 38q0 26 -12.5 37t-30.5 11t-31 -11.5t-24 -34.5l-54 26q17 38 46 56.5t64 18.5q44 0 75 -26.5t31 -72.5q0 -28 -13 -55.5t-41 -63.5z" />
    <glyph glyph-name="three.numerator" unicode="&#xf664;" horiz-adv-x="301" 
d="M270 454q0 -45 -34 -75t-89 -30q-42 0 -74 18.5t-43 59.5l49 34q5 -27 23 -42t44 -15q27 0 43.5 14.5t16.5 39.5q0 26 -17 42.5t-45 16.5h-18v55h18q20 0 31.5 12t11.5 28t-10.5 26.5t-28.5 10.5q-17 0 -30 -11.5t-17 -30.5l-55 27q8 35 34 52.5t65 17.5q47 0 76 -22.5
t29 -58.5q0 -32 -18.5 -51t-48.5 -25q45 -7 66 -32t21 -61z" />
    <glyph glyph-name="four.numerator" unicode="&#xf665;" horiz-adv-x="342" 
d="M257 501h49v-55h-49v-91h-61v91h-178v5l175 249h64v-199zM196 623l-86 -122h86v122z" />
    <glyph glyph-name="five.numerator" unicode="&#xf666;" horiz-adv-x="291" 
d="M255 468q0 -51 -34.5 -84.5t-89.5 -33.5q-40 0 -73 19t-49 59l49 35q7 -26 24.5 -42t47.5 -16q31 0 47 16.5t16 44.5q0 65 -77 65q-26 0 -58 -8h-10l20 177h163v-55h-115l-5 -60q14 2 23 2q53 0 87 -33t34 -86z" />
    <glyph glyph-name="six.numerator" unicode="&#xf667;" horiz-adv-x="306" 
d="M281 459q0 -53 -36.5 -82.5t-86.5 -29.5q-54 0 -89.5 31t-35.5 83q0 63 58 144l66 95h71v-5l-94 -132q18 8 38 8q43 0 76 -30t33 -82zM217 459q0 26 -17 41.5t-43 15.5t-43 -15t-17 -41q0 -27 17.5 -42.5t42.5 -15.5q26 0 43 15t17 42z" />
    <glyph glyph-name="seven.numerator" unicode="&#xf668;" horiz-adv-x="269" 
d="M249 700v-10l-119 -340h-61v7l102 288h-144v55h222z" />
    <glyph glyph-name="eight.numerator" unicode="&#xf669;" horiz-adv-x="312" 
d="M282 451q0 -45 -34.5 -75t-91.5 -30t-91.5 30t-34.5 75q0 34 20 59.5t55 33.5q-21 8 -38 26.5t-17 47.5q0 38 30 63t77 25t76 -25t29 -63q0 -29 -16.5 -47.5t-36.5 -26.5q34 -8 53.5 -33.5t19.5 -59.5zM105 612q0 -19 14 -31.5t38 -12.5q23 0 36.5 12.5t13.5 31.5
q0 18 -13.5 28.5t-37.5 10.5t-37.5 -10.5t-13.5 -28.5zM227 456q0 26 -19 41.5t-51 15.5t-52 -15.5t-20 -41.5t19.5 -40.5t52.5 -14.5t51.5 14.5t18.5 40.5z" />
    <glyph glyph-name="nine.numerator" unicode="&#xf66a;" horiz-adv-x="306" 
d="M273 595q0 -63 -58 -144l-66 -95h-71v5l94 132q-18 -8 -38 -8q-43 0 -76 30t-33 82q0 53 36.5 82.5t86.5 29.5q54 0 89.5 -31t35.5 -83zM209 596q0 27 -17.5 42.5t-42.5 15.5q-26 0 -43 -15t-17 -42q0 -26 17 -41.5t43 -15.5t43 15t17 41z" />
    <glyph glyph-name="exclamdown.case" unicode="&#xf6b4;" horiz-adv-x="301" 
d="M95 657q0 23 15.5 38t40.5 15t40 -15t15 -38q0 -24 -14.5 -39.5t-40.5 -15.5t-41 15.5t-15 39.5zM190 0h-80v503h80v-503z" />
    <glyph glyph-name="questiondown.case" unicode="&#xf6b5;" horiz-adv-x="539" 
d="M219 636q0 23 15 38.5t41 15.5q25 0 40 -15.5t15 -38.5t-14.5 -38.5t-40.5 -15.5t-41 15.5t-15 38.5zM72 163q0 45 12.5 78.5t31 57t48.5 54.5q40 40 59.5 71.5t19.5 78.5h65q0 -47 -12 -81.5t-28.5 -57t-44.5 -50.5q-36 -36 -53.5 -65.5t-17.5 -76.5q0 -52 29.5 -84.5
t84.5 -32.5q58 0 90 37t33 103h66v-23q-6 -91 -58.5 -136.5t-132.5 -45.5q-84 0 -138 46.5t-54 126.5z" />
    <glyph glyph-name="guillemotleft.case" unicode="&#xf6b6;" horiz-adv-x="508" 
d="M231 340l195 210v-90l-114 -120l114 -121v-89zM31 340l195 210v-90l-114 -120l114 -121v-89z" />
    <glyph glyph-name="guillemotright.case" unicode="&#xf6b7;" horiz-adv-x="508" 
d="M196 340l-114 121v89l195 -210l-195 -210v90zM282 461v89l195 -210l-195 -210v90l114 120z" />
    <glyph glyph-name="guilsinglleft.case" unicode="&#xf6b8;" horiz-adv-x="308" 
d="M31 340l195 210v-90l-114 -120l114 -121v-89z" />
    <glyph glyph-name="guilsinglright.case" unicode="&#xf6b9;" horiz-adv-x="308" 
d="M82 461v89l195 -210l-195 -210v90l114 120z" />
    <glyph glyph-name="uniFEFF" unicode="&#xfeff;" 
 />
    <glyph glyph-name="i.loclTRK" horiz-adv-x="242" 
d="M157 0h-72v440h72v-440zM73 598q0 19 14.5 32t34.5 13t33.5 -13t13.5 -32t-14 -33t-33 -14q-20 0 -34.5 14t-14.5 33z" />
    <glyph glyph-name="a.ss01" horiz-adv-x="520" 
d="M453 248v-248h-68v83q-16 -40 -61 -65.5t-108 -25.5q-75 0 -120 39t-45 100q0 59 37.5 97.5t101.5 38.5q22 0 39 -4t44 -12q37 -13 59 -13q49 0 49 48q0 43 -34 66.5t-87 23.5q-56 0 -89.5 -25.5t-40.5 -70.5l-67 20q12 69 68 107.5t133 38.5q80 0 134.5 -46t54.5 -152z
M381 183v25q-24 -24 -62 -24q-17 0 -37 4l-25 5q-38 9 -61 9q-34 0 -53.5 -18t-19.5 -48q0 -34 26.5 -54t80.5 -20q47 0 81 16.5t52 44.5t18 60z" />
    <glyph glyph-name="aacute.ss01" horiz-adv-x="520" 
d="M453 248v-248h-68v83q-16 -40 -61 -65.5t-108 -25.5q-75 0 -120 39t-45 100q0 59 37.5 97.5t101.5 38.5q22 0 39 -4t44 -12q37 -13 59 -13q49 0 49 48q0 43 -34 66.5t-87 23.5q-56 0 -89.5 -25.5t-40.5 -70.5l-67 20q12 69 68 107.5t133 38.5q80 0 134.5 -46t54.5 -152z
M381 183v25q-24 -24 -62 -24q-17 0 -37 4l-25 5q-38 9 -61 9q-34 0 -53.5 -18t-19.5 -48q0 -34 26.5 -54t80.5 -20q47 0 81 16.5t52 44.5t18 60zM217 565l105 147l60 -47l-130 -129z" />
    <glyph glyph-name="abreve.ss01" horiz-adv-x="520" 
d="M453 248v-248h-68v83q-16 -40 -61 -65.5t-108 -25.5q-75 0 -120 39t-45 100q0 59 37.5 97.5t101.5 38.5q22 0 39 -4t44 -12q37 -13 59 -13q49 0 49 48q0 43 -34 66.5t-87 23.5q-56 0 -89.5 -25.5t-40.5 -70.5l-67 20q12 69 68 107.5t133 38.5q80 0 134.5 -46t54.5 -152z
M381 183v25q-24 -24 -62 -24q-17 0 -37 4l-25 5q-38 9 -61 9q-34 0 -53.5 -18t-19.5 -48q0 -34 26.5 -54t80.5 -20q47 0 81 16.5t52 44.5t18 60zM116 648l43 27q18 -29 45.5 -47t59.5 -18t60 18t45 47l43 -27q-21 -46 -59 -72t-89 -26t-89 26t-59 72z" />
    <glyph glyph-name="acircumflex.ss01" horiz-adv-x="520" 
d="M453 248v-248h-68v83q-16 -40 -61 -65.5t-108 -25.5q-75 0 -120 39t-45 100q0 59 37.5 97.5t101.5 38.5q22 0 39 -4t44 -12q37 -13 59 -13q49 0 49 48q0 43 -34 66.5t-87 23.5q-56 0 -89.5 -25.5t-40.5 -70.5l-67 20q12 69 68 107.5t133 38.5q80 0 134.5 -46t54.5 -152z
M381 183v25q-24 -24 -62 -24q-17 0 -37 4l-25 5q-38 9 -61 9q-34 0 -53.5 -18t-19.5 -48q0 -34 26.5 -54t80.5 -20q47 0 81 16.5t52 44.5t18 60zM309 673l96 -104l-25 -29l-116 76l-117 -76l-25 29l96 104h91z" />
    <glyph glyph-name="adieresis.ss01" horiz-adv-x="520" 
d="M453 248v-248h-68v83q-16 -40 -61 -65.5t-108 -25.5q-75 0 -120 39t-45 100q0 59 37.5 97.5t101.5 38.5q22 0 39 -4t44 -12q37 -13 59 -13q49 0 49 48q0 43 -34 66.5t-87 23.5q-56 0 -89.5 -25.5t-40.5 -70.5l-67 20q12 69 68 107.5t133 38.5q80 0 134.5 -46t54.5 -152z
M381 183v25q-24 -24 -62 -24q-17 0 -37 4l-25 5q-38 9 -61 9q-34 0 -53.5 -18t-19.5 -48q0 -34 26.5 -54t80.5 -20q47 0 81 16.5t52 44.5t18 60zM112 597q0 19 14 31.5t34 12.5t33 -12.5t13 -31.5t-13.5 -32.5t-32.5 -13.5q-20 0 -34 13.5t-14 32.5zM320 597q0 19 14 31.5
t34 12.5t33 -12.5t13 -31.5t-13.5 -32.5t-32.5 -13.5q-20 0 -34 13.5t-14 32.5z" />
    <glyph glyph-name="agrave.ss01" horiz-adv-x="520" 
d="M453 248v-248h-68v83q-16 -40 -61 -65.5t-108 -25.5q-75 0 -120 39t-45 100q0 59 37.5 97.5t101.5 38.5q22 0 39 -4t44 -12q37 -13 59 -13q49 0 49 48q0 43 -34 66.5t-87 23.5q-56 0 -89.5 -25.5t-40.5 -70.5l-67 20q12 69 68 107.5t133 38.5q80 0 134.5 -46t54.5 -152z
M381 183v25q-24 -24 -62 -24q-17 0 -37 4l-25 5q-38 9 -61 9q-34 0 -53.5 -18t-19.5 -48q0 -34 26.5 -54t80.5 -20q47 0 81 16.5t52 44.5t18 60zM126 665l60 47l105 -147l-35 -29z" />
    <glyph glyph-name="amacron.ss01" horiz-adv-x="520" 
d="M453 248v-248h-68v83q-16 -40 -61 -65.5t-108 -25.5q-75 0 -120 39t-45 100q0 59 37.5 97.5t101.5 38.5q22 0 39 -4t44 -12q37 -13 59 -13q49 0 49 48q0 43 -34 66.5t-87 23.5q-56 0 -89.5 -25.5t-40.5 -70.5l-67 20q12 69 68 107.5t133 38.5q80 0 134.5 -46t54.5 -152z
M381 183v25q-24 -24 -62 -24q-17 0 -37 4l-25 5q-38 9 -61 9q-34 0 -53.5 -18t-19.5 -48q0 -34 26.5 -54t80.5 -20q47 0 81 16.5t52 44.5t18 60zM115 641h300v-61h-300v61z" />
    <glyph glyph-name="aogonek.ss01" horiz-adv-x="520" 
d="M454 -191v-39q-26 -13 -58 -13q-51 0 -78 28.5t-27 69.5q0 38 24.5 76t69.5 71v81q-16 -40 -61 -65.5t-108 -25.5q-75 0 -120 39t-45 100q0 59 37.5 97.5t101.5 38.5q22 0 39 -4t44 -12q37 -13 59 -13q49 0 49 48q0 43 -34 66.5t-87 23.5q-56 0 -89.5 -25.5t-40.5 -70.5
l-67 20q12 69 68 107.5t133 38.5q80 0 134.5 -46t54.5 -152v-248q-104 -67 -104 -130q0 -28 18 -47.5t50 -19.5q18 0 37 6zM381 183v25q-24 -24 -62 -24q-17 0 -37 4l-25 5q-38 9 -61 9q-34 0 -53.5 -18t-19.5 -48q0 -34 26.5 -54t80.5 -20q47 0 81 16.5t52 44.5t18 60z" />
    <glyph glyph-name="aring.ss01" horiz-adv-x="520" 
d="M453 248v-248h-68v83q-16 -40 -61 -65.5t-108 -25.5q-75 0 -120 39t-45 100q0 59 37.5 97.5t101.5 38.5q22 0 39 -4t44 -12q37 -13 59 -13q49 0 49 48q0 43 -34 66.5t-87 23.5q-56 0 -89.5 -25.5t-40.5 -70.5l-67 20q12 69 68 107.5t133 38.5q80 0 134.5 -46t54.5 -152z
M381 183v25q-24 -24 -62 -24q-17 0 -37 4l-25 5q-38 9 -61 9q-34 0 -53.5 -18t-19.5 -48q0 -34 26.5 -54t80.5 -20q47 0 81 16.5t52 44.5t18 60zM165 635q0 41 28 68t71 27t71 -27t28 -68t-28 -68.5t-71 -27.5t-71 27.5t-28 68.5zM314 635q0 24 -13.5 38t-36.5 14t-36.5 -14
t-13.5 -38t13.5 -38t36.5 -14t36.5 14t13.5 38z" />
    <glyph glyph-name="atilde.ss01" horiz-adv-x="520" 
d="M453 248v-248h-68v83q-16 -40 -61 -65.5t-108 -25.5q-75 0 -120 39t-45 100q0 59 37.5 97.5t101.5 38.5q22 0 39 -4t44 -12q37 -13 59 -13q49 0 49 48q0 43 -34 66.5t-87 23.5q-56 0 -89.5 -25.5t-40.5 -70.5l-67 20q12 69 68 107.5t133 38.5q80 0 134.5 -46t54.5 -152z
M381 183v25q-24 -24 -62 -24q-17 0 -37 4l-25 5q-38 9 -61 9q-34 0 -53.5 -18t-19.5 -48q0 -34 26.5 -54t80.5 -20q47 0 81 16.5t52 44.5t18 60zM249 599q-18 10 -29 14.5t-23 4.5q-19 0 -29 -12.5t-10 -33.5h-50q0 54 22.5 80t61.5 26q21 0 35.5 -6t33.5 -18
q19 -11 31.5 -16.5t30.5 -5.5q46 0 46 46h50q0 -51 -23.5 -78.5t-65.5 -27.5q-23 0 -41 7t-40 20z" />
    <glyph glyph-name="u.ss02" horiz-adv-x="507" 
d="M67 188v252h72v-236q0 -68 29 -105t86 -37q56 0 85 37t29 105v236h72v-252q0 -92 -50 -143t-136 -51q-87 0 -137 50.5t-50 143.5z" />
    <glyph glyph-name="f_b" horiz-adv-x="856" 
d="M814 220q0 -69 -29 -120.5t-78 -79.5t-106 -28q-56 0 -99.5 25.5t-61.5 66.5v-84h-67v481q0 90 -22.5 127t-82.5 37t-83 -37t-23 -127v-41h109v-65h-109v-375h-72v375h-75v65h75v61q0 101 42.5 155t135.5 54t135 -54t42 -155v-131q18 33 58.5 55.5t97.5 22.5
q59 0 107.5 -28t77 -80t28.5 -120zM739 221q0 75 -41 117.5t-106 42.5q-46 0 -79.5 -21.5t-50.5 -56.5t-17 -76v-10q0 -40 17.5 -76.5t51.5 -59t80 -22.5q65 0 105 44.5t40 117.5z" />
    <glyph glyph-name="f_f_b" horiz-adv-x="1130" 
d="M1088 220q0 -69 -29 -120.5t-78 -79.5t-106 -28q-50 0 -90 20.5t-62 55.5v-68h-67v522q0 68 -24 100.5t-81 32.5q-41 0 -64 -17.5t-32.5 -55t-9.5 -101.5v-41h109v-65h-109v-375h-72v375h-211v-375h-72v375h-75v65h75v61q0 189 167 189q52 0 85.5 -17.5t52.5 -51.5
q35 99 156 99q94 0 135.5 -52t41.5 -136v-148q21 28 59 46t88 18q59 0 107.5 -28t77 -80t28.5 -120zM162 440h211v38q0 76 -28 111.5t-89 35.5q-37 0 -57.5 -14.5t-28.5 -45t-8 -84.5v-41zM1013 221q0 75 -41 117.5t-106 42.5q-52 0 -87.5 -27t-50.5 -71v-121
q15 -45 51.5 -74t88.5 -29q65 0 105 44.5t40 117.5z" />
    <glyph glyph-name="f_f_h" horiz-adv-x="1102" 
d="M1035 272v-272h-72v256q0 60 -30.5 90t-78.5 30q-57 0 -91.5 -42t-34.5 -108v-226h-72v522q0 68 -24 100.5t-81 32.5q-41 0 -64 -17.5t-32.5 -55t-9.5 -101.5v-41h109v-65h-109v-375h-72v375h-211v-375h-72v375h-75v65h75v61q0 189 167 189q52 0 85.5 -17.5t52.5 -51.5
q35 99 156 99q94 0 135.5 -52t41.5 -136v-157q21 31 59 51t84 20q72 0 118 -47t46 -127zM162 440h211v38q0 76 -28 111.5t-89 35.5q-37 0 -57.5 -14.5t-28.5 -45t-8 -84.5v-41z" />
    <glyph glyph-name="f_f_j" horiz-adv-x="803" 
d="M445 440h109v-65h-109v-375h-72v375h-211v-375h-72v375h-75v65h75v61q0 189 167 189q105 0 141 -76q28 106 153 106q94 0 135.5 -54.5t41.5 -143.5h-72q0 68 -24 100.5t-81 32.5q-41 0 -64 -17.5t-32.5 -55t-9.5 -101.5v-41zM162 440h211v21q-5 89 -30.5 126.5
t-86.5 37.5q-37 0 -57.5 -14.5t-28.5 -45t-8 -84.5v-41zM655 440h72v-518q0 -84 -35 -126t-114 -42q-11 0 -16 1v65q6 -1 18 -1q76 0 75 93v528z" />
    <glyph glyph-name="f_f_k" horiz-adv-x="1020" 
d="M817 238l198 -228v-10h-83l-177 205h-27v-205h-72v522q0 68 -24 100.5t-81 32.5q-41 0 -64 -17.5t-32.5 -55t-9.5 -101.5v-41h109v-65h-109v-375h-72v375h-211v-375h-72v375h-75v65h75v61q0 189 167 189q52 0 85.5 -17.5t52.5 -51.5q35 99 156 99q94 0 135.5 -52
t41.5 -136v-266h33l137 174h77v-10zM162 440h211v38q0 76 -28 111.5t-89 35.5q-37 0 -57.5 -14.5t-28.5 -45t-8 -84.5v-41z" />
    <glyph glyph-name="f_h" horiz-adv-x="819" 
d="M752 272v-272h-72v256q0 60 -30.5 90t-78.5 30q-57 0 -91.5 -42t-34.5 -108v-226h-72v481q0 90 -22.5 127t-82.5 37t-83 -37t-23 -127v-41h109v-65h-109v-375h-72v375h-75v65h75v61q0 101 42.5 155t135.5 54t135 -54t42 -155v-126q21 31 59 51t84 20q72 0 118 -47
t46 -127z" />
    <glyph glyph-name="f_j" horiz-adv-x="520" 
d="M162 440h109v-65h-109v-375h-72v375h-75v65h75v61q0 101 42.5 155t135.5 54q94 0 135.5 -52t41.5 -136h-72q0 63 -24 93t-81 30q-60 0 -83 -37t-23 -127v-41zM373 440h72v-518q0 -84 -35 -126t-114 -42q-11 0 -16 1v65q6 -1 18 -1q76 0 75 93v528z" />
    <glyph glyph-name="f_k" horiz-adv-x="737" 
d="M534 238l198 -228v-10h-83l-177 205h-27v-205h-72v481q0 90 -22.5 127t-82.5 37t-83 -37t-23 -127v-41h109v-65h-109v-375h-72v375h-75v65h75v61q0 101 42.5 155t135.5 54t135 -54t42 -155v-235h33l137 174h77v-10z" />
    <glyph glyph-name="uni0430.ss01" horiz-adv-x="520" 
d="M453 248v-248h-68v83q-16 -40 -61 -65.5t-108 -25.5q-75 0 -120 39t-45 100q0 59 37.5 97.5t101.5 38.5q22 0 39 -4t44 -12q37 -13 59 -13q49 0 49 48q0 43 -34 66.5t-87 23.5q-56 0 -89.5 -25.5t-40.5 -70.5l-67 20q12 69 68 107.5t133 38.5q80 0 134.5 -46t54.5 -152z
M381 183v25q-24 -24 -62 -24q-17 0 -37 4l-25 5q-38 9 -61 9q-34 0 -53.5 -18t-19.5 -48q0 -34 26.5 -54t80.5 -20q47 0 81 16.5t52 44.5t18 60z" />
    <glyph glyph-name="hyphen.case" horiz-adv-x="384" 
d="M58 394h268v-65h-268v65z" />
    <glyph glyph-name="uni00AD.case" horiz-adv-x="384" 
d="M58 394h268v-65h-268v65z" />
    <glyph glyph-name="endash.case" horiz-adv-x="587" 
d="M60 395h467v-65h-467v65z" />
    <glyph glyph-name="emdash.case" horiz-adv-x="787" 
d="M60 395h667v-65h-667v65z" />
    <glyph glyph-name="quoteright.case" horiz-adv-x="230" 
d="M169 652q0 -20 -11.5 -45t-38.5 -70l-41 -66h-60l86 143q-23 3 -35 15.5t-12 30.5q0 22 16.5 36t38.5 14q25 0 41 -16.5t16 -41.5z" />
    <glyph glyph-name="uni030C.alt" 
d="M-40 514l-46 -1v197l76 -10z" />
    <glyph glyph-name="uni0308.case" 
d="M-321 806q0 22 15.5 36t38.5 14q22 0 37 -14t15 -36q0 -21 -15 -36t-37 -15t-38 15t-16 36zM-116 806q0 22 15.5 36t38.5 14q22 0 37 -14t15 -36q0 -21 -15 -36t-37 -15t-38 15t-16 36z" />
    <glyph glyph-name="uni0307.case" 
d="M-116 806q0 22 15.5 36t38.5 14q22 0 37 -14t15 -36q0 -21 -15 -36t-37 -15t-38 15t-16 36z" />
    <glyph glyph-name="gravecomb.case" 
d="M-190 824l65 65l115 -116l-40 -38z" />
    <glyph glyph-name="acutecomb.case" 
d="M-190 775l115 116l65 -65l-140 -89z" />
    <glyph glyph-name="uni030B.case" 
d="M-326 758l61 121l80 -54l-91 -90zM-163 765l91 104l62 -62l-112 -72z" />
    <glyph glyph-name="uni0302.case" 
d="M-108 870l98 -104l-26 -30l-121 69l-117 -69l-29 30l99 104h96z" />
    <glyph glyph-name="uni030C.case" 
d="M-157 801l121 76l26 -30l-98 -104h-96l-99 104l29 30z" />
    <glyph glyph-name="uni0306.case" 
d="M-315 859l47 25q42 -69 107 -69q35 0 63 18.5t41 50.5l47 -25q-16 -53 -55 -81t-96 -28q-58 0 -98 28.5t-56 80.5z" />
    <glyph glyph-name="uni030A.case" 
d="M-241 819q0 39 31 59.5t85 20.5t84.5 -20.5t30.5 -59.5t-30.5 -59.5t-84.5 -20.5t-85 20.5t-31 59.5zM-75 819q0 35 -50 35q-51 0 -51 -35t51 -35q50 0 50 35z" />
    <glyph glyph-name="tildecomb.case" 
d="M-180 774q-13 6 -26.5 11t-25.5 5q-18 0 -25.5 -9.5t-7.5 -27.5h-56q0 106 87 106q20 0 34.5 -5t31.5 -14t30.5 -13.5t31.5 -4.5q22 0 31 9t9 28h56q0 -51 -24 -78.5t-69 -27.5q-21 0 -37.5 5t-39.5 16z" />
    <glyph glyph-name="uni0304.case" 
d="M-310 824h300v-61h-300v61z" />
    <glyph glyph-name="uni0326.case" 
d="M-70 -123q-21 3 -32 14t-11 27q0 19 15 30.5t35 11.5q24 0 38.5 -14t14.5 -39q0 -15 -11 -36t-36 -61l-37 -57h-55z" />
    <glyph glyph-name="uni0327.case" 
d="M-99 -56q46 -4 67.5 -27t21.5 -56q0 -42 -32 -65t-81 -23q-33 0 -57 10.5t-34 27.5l28 32q32 -23 62 -23q23 0 37 12t14 32q0 40 -58 40h-19v106h51v-66z" />
    <glyph glyph-name="uni0328.case" 
d="M-183 -138q0 53 39 99t107 68h6l16 -29q-40 -12 -70 -47.5t-30 -74.5q0 -29 18 -47t50 -18q18 0 37 6v-49q-26 -13 -58 -13q-56 0 -85.5 30t-29.5 75z" />
    <glyph glyph-name="uni0335.case" 
d="M-457 438h447v-70h-447v70z" />
    <glyph glyph-name="uni030C.vertical.case" orientation="v" 
d="M-88 710l78 -10l-30 -196l-48 -1v207z" />
    <glyph glyph-name="uni0308.narrow" 
d="M-227 594q0 18 13 30t32 12q18 0 31 -12t13 -30t-13 -30.5t-31 -12.5q-19 0 -32 12.5t-13 30.5zM-99 594q0 18 13 30t32 12q18 0 31 -12t13 -30t-13 -30.5t-31 -12.5q-19 0 -32 12.5t-13 30.5z" />
    <glyph glyph-name="brevecombcy" 
d="M-295 637h65q0 -32 20.5 -51.5t57.5 -19.5q36 0 57 18.5t21 52.5h64q-1 -60 -40.5 -93.5t-103.5 -33.5t-103 33.5t-38 93.5z" />
    <glyph glyph-name="descendercy" horiz-adv-x="132" 
d="M57 0h-47v65h112v-175h-65v110z" />
    <glyph glyph-name="descendercy.alt" horiz-adv-x="179" 
d="M57 25h65v-135h-65v135z" />
    <glyph glyph-name="descendercy.alt.case" horiz-adv-x="192" 
d="M60 27h72v-157h-72v157z" />
    <glyph glyph-name="brevecombcy.case" 
d="M-365 880h77q11 -72 102 -72q49 0 74.5 20t30.5 52h71q-2 -38 -24.5 -69t-62 -49.5t-90.5 -18.5q-67 0 -118.5 32.5t-59.5 104.5z" />
    <glyph glyph-name="descendercy.case" horiz-adv-x="142" 
d="M60 0h-38l-12 77h122v-207h-72v130z" />
    <glyph glyph-name="uacute.ss02" horiz-adv-x="507" 
d="M67 188v252h72v-236q0 -68 29 -105t86 -37q56 0 85 37t29 105v236h72v-252q0 -92 -50 -143t-136 -51q-87 0 -137 50.5t-50 143.5zM206 565l105 147l60 -47l-130 -129z" />
    <glyph glyph-name="ubreve.ss02" horiz-adv-x="507" 
d="M67 188v252h72v-236q0 -68 29 -105t86 -37q56 0 85 37t29 105v236h72v-252q0 -92 -50 -143t-136 -51q-87 0 -137 50.5t-50 143.5zM105 648l43 27q18 -29 45.5 -47t59.5 -18t60 18t45 47l43 -27q-21 -46 -59 -72t-89 -26t-89 26t-59 72z" />
    <glyph glyph-name="ucircumflex.ss02" horiz-adv-x="507" 
d="M67 188v252h72v-236q0 -68 29 -105t86 -37q56 0 85 37t29 105v236h72v-252q0 -92 -50 -143t-136 -51q-87 0 -137 50.5t-50 143.5zM298 673l96 -104l-25 -29l-116 76l-117 -76l-25 29l96 104h91z" />
    <glyph glyph-name="udieresis.ss02" horiz-adv-x="507" 
d="M67 188v252h72v-236q0 -68 29 -105t86 -37q56 0 85 37t29 105v236h72v-252q0 -92 -50 -143t-136 -51q-87 0 -137 50.5t-50 143.5zM101 597q0 19 14 31.5t34 12.5t33 -12.5t13 -31.5t-13.5 -32.5t-32.5 -13.5q-20 0 -34 13.5t-14 32.5zM309 597q0 19 14 31.5t34 12.5
t33 -12.5t13 -31.5t-13.5 -32.5t-32.5 -13.5q-20 0 -34 13.5t-14 32.5z" />
    <glyph glyph-name="ugrave.ss02" horiz-adv-x="507" 
d="M67 188v252h72v-236q0 -68 29 -105t86 -37q56 0 85 37t29 105v236h72v-252q0 -92 -50 -143t-136 -51q-87 0 -137 50.5t-50 143.5zM115 665l60 47l105 -147l-35 -29z" />
    <glyph glyph-name="uhungarumlaut.ss02" horiz-adv-x="507" 
d="M67 188v252h72v-236q0 -68 29 -105t86 -37q56 0 85 37t29 105v236h72v-252q0 -92 -50 -143t-136 -51q-87 0 -137 50.5t-50 143.5zM131 556l70 167l69 -32l-98 -155zM287 565l105 147l60 -47l-130 -129z" />
    <glyph glyph-name="umacron.ss02" horiz-adv-x="507" 
d="M67 188v252h72v-236q0 -68 29 -105t86 -37q56 0 85 37t29 105v236h72v-252q0 -92 -50 -143t-136 -51q-87 0 -137 50.5t-50 143.5zM104 641h300v-61h-300v61z" />
    <glyph glyph-name="uogonek.ss02" horiz-adv-x="507" 
d="M368 440h72v-252q0 -78 -36.5 -127t-101.5 -62q-102 -67 -102 -129q0 -28 18 -47.5t50 -19.5q18 0 37 6v-39q-26 -13 -58 -13q-51 0 -78 28.5t-27 69.5q0 36 22 72t63 68q-75 8 -117.5 58t-42.5 135v252h72v-236q0 -68 29 -105t86 -37q56 0 85 37t29 105v236z" />
    <glyph glyph-name="uring.ss02" horiz-adv-x="507" 
d="M67 188v252h72v-236q0 -68 29 -105t86 -37q56 0 85 37t29 105v236h72v-252q0 -92 -50 -143t-136 -51q-87 0 -137 50.5t-50 143.5zM154 635q0 41 28 68t71 27t71 -27t28 -68t-28 -68.5t-71 -27.5t-71 27.5t-28 68.5zM303 635q0 24 -13.5 38t-36.5 14t-36.5 -14t-13.5 -38
t13.5 -38t36.5 -14t36.5 14t13.5 38z" />
    <glyph glyph-name="utilde.ss02" horiz-adv-x="507" 
d="M67 188v252h72v-236q0 -68 29 -105t86 -37q56 0 85 37t29 105v236h72v-252q0 -92 -50 -143t-136 -51q-87 0 -137 50.5t-50 143.5zM238 599q-18 10 -29 14.5t-23 4.5q-19 0 -29 -12.5t-10 -33.5h-50q0 54 22.5 80t61.5 26q21 0 35.5 -6t33.5 -18q19 -11 31.5 -16.5
t30.5 -5.5q46 0 46 46h50q0 -51 -23.5 -78.5t-65.5 -27.5q-23 0 -41 7t-40 20z" />
    </font>
</defs>
</svg>
